<?xml version="1.0" encoding="UTF-8" standalone="no"?>
<!DOCTYPE svg PUBLIC "-//W3C//DTD SVG 1.1//EN"
 "http://www.w3.org/Graphics/SVG/1.1/DTD/svg11.dtd">
<!-- Generated by graphviz version 2.38.0 (20140413.2041)
 -->
<!-- Title: snakemake_dag Pages: 1 -->
<svg width="1182pt" height="620pt"
 viewBox="0.00 0.00 1181.78 620.00" xmlns="http://www.w3.org/2000/svg" xmlns:xlink="http://www.w3.org/1999/xlink">
<g id="graph0" class="graph" transform="scale(1 1) rotate(0) translate(4 616)">
<title>snakemake_dag</title>
<polygon fill="white" stroke="none" points="-4,4 -4,-616 1177.78,-616 1177.78,4 -4,4"/>
<!-- 0 -->
<g id="node1" class="node"><title>0</title>
<path fill="none" stroke="#ced856" stroke-width="2" d="M659,-36C659,-36 587,-36 587,-36 581,-36 575,-30 575,-24 575,-24 575,-12 575,-12 575,-6 581,-0 587,-0 587,-0 659,-0 659,-0 665,-0 671,-6 671,-12 671,-12 671,-24 671,-24 671,-30 665,-36 659,-36"/>
<text text-anchor="middle" x="623" y="-15.5" font-family="sans" font-size="10.00">make_summary</text>
</g>
<!-- 1 -->
<g id="node2" class="node"><title>1</title>
<path fill="none" stroke="#d88556" stroke-width="2" d="M84,-108C84,-108 12,-108 12,-108 6,-108 0,-102 0,-96 0,-96 0,-84 0,-84 0,-78 6,-72 12,-72 12,-72 84,-72 84,-72 90,-72 96,-78 96,-84 96,-84 96,-96 96,-96 96,-102 90,-108 84,-108"/>
<text text-anchor="middle" x="48" y="-87.5" font-family="sans" font-size="10.00">make_rulegraph</text>
</g>
<!-- 1&#45;&gt;0 -->
<g id="edge14" class="edge"><title>1&#45;&gt;0</title>
<path fill="none" stroke="grey" stroke-width="2" d="M96.2212,-74.9523C100.855,-73.8521 105.502,-72.843 110,-72 273.24,-41.4036 469.25,-27.3205 564.839,-21.8838"/>
<polygon fill="grey" stroke="grey" stroke-width="2" points="565.092,-25.3753 574.882,-21.3236 564.703,-18.3861 565.092,-25.3753"/>
</g>
<!-- 2 -->
<g id="node3" class="node"><title>2</title>
<path fill="none" stroke="#88d856" stroke-width="2" d="M222.5,-612C222.5,-612 109.5,-612 109.5,-612 103.5,-612 97.5,-606 97.5,-600 97.5,-600 97.5,-588 97.5,-588 97.5,-582 103.5,-576 109.5,-576 109.5,-576 222.5,-576 222.5,-576 228.5,-576 234.5,-582 234.5,-588 234.5,-588 234.5,-600 234.5,-600 234.5,-606 228.5,-612 222.5,-612"/>
<text text-anchor="middle" x="166" y="-591.5" font-family="sans" font-size="10.00">get_codon_variant_table</text>
</g>
<!-- 2&#45;&gt;0 -->
<g id="edge1" class="edge"><title>2&#45;&gt;0</title>
<path fill="none" stroke="grey" stroke-width="2" d="M157.501,-575.993C145.228,-549.822 124,-497.79 124,-451 124,-451 124,-451 124,-161 124,-113.786 141.908,-96.936 182,-72 244.658,-33.0283 460.09,-22.7051 564.861,-19.9767"/>
<polygon fill="grey" stroke="grey" stroke-width="2" points="565.039,-23.4735 574.95,-19.7286 564.867,-16.4756 565.039,-23.4735"/>
</g>
<!-- 3 -->
<g id="node4" class="node"><title>3</title>
<path fill="none" stroke="#9fd856" stroke-width="2" d="M298.5,-468C298.5,-468 179.5,-468 179.5,-468 173.5,-468 167.5,-462 167.5,-456 167.5,-456 167.5,-444 167.5,-444 167.5,-438 173.5,-432 179.5,-432 179.5,-432 298.5,-432 298.5,-432 304.5,-432 310.5,-438 310.5,-444 310.5,-444 310.5,-456 310.5,-456 310.5,-462 304.5,-468 298.5,-468"/>
<text text-anchor="middle" x="239" y="-447.5" font-family="sans" font-size="10.00">aggregate_variant_counts</text>
</g>
<!-- 2&#45;&gt;3 -->
<g id="edge18" class="edge"><title>2&#45;&gt;3</title>
<path fill="none" stroke="grey" stroke-width="2" d="M166.736,-575.918C168.18,-557.215 172.444,-526.846 185,-504 190.921,-493.226 199.73,-483.247 208.523,-474.921"/>
<polygon fill="grey" stroke="grey" stroke-width="2" points="211.072,-477.336 216.174,-468.051 206.395,-472.128 211.072,-477.336"/>
</g>
<!-- 18 -->
<g id="node19" class="node"><title>18</title>
<path fill="none" stroke="#56d8b1" stroke-width="2" d="M271.5,-540C271.5,-540 206.5,-540 206.5,-540 200.5,-540 194.5,-534 194.5,-528 194.5,-528 194.5,-516 194.5,-516 194.5,-510 200.5,-504 206.5,-504 206.5,-504 271.5,-504 271.5,-504 277.5,-504 283.5,-510 283.5,-516 283.5,-516 283.5,-528 283.5,-528 283.5,-534 277.5,-540 271.5,-540"/>
<text text-anchor="middle" x="239" y="-519.5" font-family="sans" font-size="10.00">count_variants</text>
</g>
<!-- 2&#45;&gt;18 -->
<g id="edge41" class="edge"><title>2&#45;&gt;18</title>
<path fill="none" stroke="grey" stroke-width="2" d="M184.045,-575.697C193.062,-567.05 204.118,-556.449 213.943,-547.027"/>
<polygon fill="grey" stroke="grey" stroke-width="2" points="216.367,-549.552 221.163,-540.104 211.522,-544.499 216.367,-549.552"/>
</g>
<!-- 3&#45;&gt;0 -->
<g id="edge13" class="edge"><title>3&#45;&gt;0</title>
<path fill="none" stroke="grey" stroke-width="2" d="M222.292,-431.812C199.646,-406.622 162,-357.199 162,-307 162,-307 162,-307 162,-161 162,-105.685 199.652,-96.9906 249,-72 303.01,-44.6484 473.656,-29.1813 564.602,-22.6833"/>
<polygon fill="grey" stroke="grey" stroke-width="2" points="565.02,-26.1627 574.751,-21.9718 564.53,-19.1798 565.02,-26.1627"/>
</g>
<!-- 4 -->
<g id="node5" class="node"><title>4</title>
<path fill="none" stroke="#56b1d8" stroke-width="2" d="M297.5,-324C297.5,-324 202.5,-324 202.5,-324 196.5,-324 190.5,-318 190.5,-312 190.5,-312 190.5,-300 190.5,-300 190.5,-294 196.5,-288 202.5,-288 202.5,-288 297.5,-288 297.5,-288 303.5,-288 309.5,-294 309.5,-300 309.5,-300 309.5,-312 309.5,-312 309.5,-318 303.5,-324 297.5,-324"/>
<text text-anchor="middle" x="250" y="-303.5" font-family="sans" font-size="10.00">counts_to_cells_ratio</text>
</g>
<!-- 3&#45;&gt;4 -->
<g id="edge20" class="edge"><title>3&#45;&gt;4</title>
<path fill="none" stroke="grey" stroke-width="2" d="M240.327,-431.871C242.202,-407.67 245.646,-363.211 247.878,-334.393"/>
<polygon fill="grey" stroke="grey" stroke-width="2" points="251.386,-334.43 248.668,-324.189 244.406,-333.889 251.386,-334.43"/>
</g>
<!-- 5 -->
<g id="node6" class="node"><title>5</title>
<path fill="none" stroke="#d86e56" stroke-width="2" d="M634.5,-396C634.5,-396 557.5,-396 557.5,-396 551.5,-396 545.5,-390 545.5,-384 545.5,-384 545.5,-372 545.5,-372 545.5,-366 551.5,-360 557.5,-360 557.5,-360 634.5,-360 634.5,-360 640.5,-360 646.5,-366 646.5,-372 646.5,-372 646.5,-384 646.5,-384 646.5,-390 640.5,-396 634.5,-396"/>
<text text-anchor="middle" x="596" y="-375.5" font-family="sans" font-size="10.00">counts_to_scores</text>
</g>
<!-- 3&#45;&gt;5 -->
<g id="edge22" class="edge"><title>3&#45;&gt;5</title>
<path fill="none" stroke="grey" stroke-width="2" d="M310.815,-434.919C376.682,-422.004 473.161,-403.086 535.276,-390.907"/>
<polygon fill="grey" stroke="grey" stroke-width="2" points="536.18,-394.296 545.32,-388.937 534.833,-387.427 536.18,-394.296"/>
</g>
<!-- 4&#45;&gt;0 -->
<g id="edge8" class="edge"><title>4&#45;&gt;0</title>
<path fill="none" stroke="grey" stroke-width="2" d="M245.493,-287.691C234.871,-242.416 214.068,-120.641 283,-72 327.325,-40.7221 479.883,-27.1486 564.794,-21.9014"/>
<polygon fill="grey" stroke="grey" stroke-width="2" points="565.029,-25.3937 574.802,-21.3022 564.611,-18.4062 565.029,-25.3937"/>
</g>
<!-- 5&#45;&gt;0 -->
<g id="edge9" class="edge"><title>5&#45;&gt;0</title>
<path fill="none" stroke="grey" stroke-width="2" d="M646.523,-375.286C786.834,-369.165 1171,-342.581 1171,-235 1171,-235 1171,-235 1171,-161 1171,-120.553 1182.14,-98.9777 1152,-72 1117.48,-41.0934 811.612,-26.0626 681.341,-21.0183"/>
<polygon fill="grey" stroke="grey" stroke-width="2" points="681.279,-17.5135 671.153,-20.6304 681.012,-24.5084 681.279,-17.5135"/>
</g>
<!-- 6 -->
<g id="node7" class="node"><title>6</title>
<path fill="none" stroke="#56d882" stroke-width="2" d="M656.5,-324C656.5,-324 553.5,-324 553.5,-324 547.5,-324 541.5,-318 541.5,-312 541.5,-312 541.5,-300 541.5,-300 541.5,-294 547.5,-288 553.5,-288 553.5,-288 656.5,-288 656.5,-288 662.5,-288 668.5,-294 668.5,-300 668.5,-300 668.5,-312 668.5,-312 668.5,-318 662.5,-324 656.5,-324"/>
<text text-anchor="middle" x="605" y="-303.5" font-family="sans" font-size="10.00">scores_to_frac_escape</text>
</g>
<!-- 5&#45;&gt;6 -->
<g id="edge25" class="edge"><title>5&#45;&gt;6</title>
<path fill="none" stroke="grey" stroke-width="2" d="M598.225,-359.697C599.217,-351.983 600.408,-342.712 601.514,-334.112"/>
<polygon fill="grey" stroke="grey" stroke-width="2" points="604.997,-334.469 602.801,-324.104 598.054,-333.576 604.997,-334.469"/>
</g>
<!-- 6&#45;&gt;0 -->
<g id="edge11" class="edge"><title>6&#45;&gt;0</title>
<path fill="none" stroke="grey" stroke-width="2" d="M668.728,-302.562C792.327,-297.175 1054.91,-282.267 1082,-252 1158.29,-166.765 1161.09,-187.633 932,-72 851.515,-31.3763 745.821,-21.1337 681.235,-18.9643"/>
<polygon fill="grey" stroke="grey" stroke-width="2" points="681.327,-15.4656 671.232,-18.6821 681.129,-22.4629 681.327,-15.4656"/>
</g>
<!-- 7 -->
<g id="node8" class="node"><title>7</title>
<path fill="none" stroke="#d8b456" stroke-width="2" d="M527,-252C527,-252 413,-252 413,-252 407,-252 401,-246 401,-240 401,-240 401,-228 401,-228 401,-222 407,-216 413,-216 413,-216 527,-216 527,-216 533,-216 539,-222 539,-228 539,-228 539,-240 539,-240 539,-246 533,-252 527,-252"/>
<text text-anchor="middle" x="470" y="-231.5" font-family="sans" font-size="10.00">call_strong_escape_sites</text>
</g>
<!-- 6&#45;&gt;7 -->
<g id="edge26" class="edge"><title>6&#45;&gt;7</title>
<path fill="none" stroke="grey" stroke-width="2" d="M571.975,-287.876C553.915,-278.512 531.355,-266.814 512.049,-256.803"/>
<polygon fill="grey" stroke="grey" stroke-width="2" points="513.64,-253.686 503.152,-252.19 510.418,-259.9 513.64,-253.686"/>
</g>
<!-- 8 -->
<g id="node9" class="node"><title>8</title>
<path fill="none" stroke="#59d856" stroke-width="2" d="M333,-180C333,-180 265,-180 265,-180 259,-180 253,-174 253,-168 253,-168 253,-156 253,-156 253,-150 259,-144 265,-144 265,-144 333,-144 333,-144 339,-144 345,-150 345,-156 345,-156 345,-168 345,-168 345,-174 339,-180 333,-180"/>
<text text-anchor="middle" x="299" y="-159.5" font-family="sans" font-size="10.00">escape_profiles</text>
</g>
<!-- 6&#45;&gt;8 -->
<g id="edge27" class="edge"><title>6&#45;&gt;8</title>
<path fill="none" stroke="grey" stroke-width="2" d="M541.314,-304.155C488.403,-300.611 413.274,-288.727 359,-252 336.32,-236.653 319.908,-209.598 310.04,-189.334"/>
<polygon fill="grey" stroke="grey" stroke-width="2" points="313.102,-187.616 305.723,-180.013 306.75,-190.558 313.102,-187.616"/>
</g>
<!-- 9 -->
<g id="node10" class="node"><title>9</title>
<path fill="none" stroke="#56d8c9" stroke-width="2" d="M670.5,-180C670.5,-180 575.5,-180 575.5,-180 569.5,-180 563.5,-174 563.5,-168 563.5,-168 563.5,-156 563.5,-156 563.5,-150 569.5,-144 575.5,-144 575.5,-144 670.5,-144 670.5,-144 676.5,-144 682.5,-150 682.5,-156 682.5,-156 682.5,-168 682.5,-168 682.5,-174 676.5,-180 670.5,-180"/>
<text text-anchor="middle" x="623" y="-159.5" font-family="sans" font-size="10.00">mds_escape_profiles</text>
</g>
<!-- 6&#45;&gt;9 -->
<g id="edge30" class="edge"><title>6&#45;&gt;9</title>
<path fill="none" stroke="grey" stroke-width="2" d="M607.171,-287.871C610.239,-263.67 615.875,-219.211 619.528,-190.393"/>
<polygon fill="grey" stroke="grey" stroke-width="2" points="623.036,-190.55 620.821,-180.189 616.091,-189.67 623.036,-190.55"/>
</g>
<!-- 10 -->
<g id="node11" class="node"><title>10</title>
<path fill="none" stroke="#56d86b" stroke-width="2" d="M850.5,-108C850.5,-108 797.5,-108 797.5,-108 791.5,-108 785.5,-102 785.5,-96 785.5,-96 785.5,-84 785.5,-84 785.5,-78 791.5,-72 797.5,-72 797.5,-72 850.5,-72 850.5,-72 856.5,-72 862.5,-78 862.5,-84 862.5,-84 862.5,-96 862.5,-96 862.5,-102 856.5,-108 850.5,-108"/>
<text text-anchor="middle" x="824" y="-87.5" font-family="sans" font-size="10.00">output_pdbs</text>
</g>
<!-- 6&#45;&gt;10 -->
<g id="edge31" class="edge"><title>6&#45;&gt;10</title>
<path fill="none" stroke="grey" stroke-width="2" d="M668.819,-297.93C706.059,-291.143 752.206,-277.881 786,-252 827.15,-220.486 832.92,-195.748 830,-144 829.523,-135.549 828.622,-126.376 827.66,-118.074"/>
<polygon fill="grey" stroke="grey" stroke-width="2" points="831.133,-117.641 826.437,-108.144 824.186,-118.497 831.133,-117.641"/>
</g>
<!-- 12 -->
<g id="node13" class="node"><title>12</title>
<path fill="none" stroke="#d8cb56" stroke-width="2" d="M533,-180C533,-180 451,-180 451,-180 445,-180 439,-174 439,-168 439,-168 439,-156 439,-156 439,-150 445,-144 451,-144 451,-144 533,-144 533,-144 539,-144 545,-150 545,-156 545,-156 545,-168 545,-168 545,-174 539,-180 533,-180"/>
<text text-anchor="middle" x="492" y="-159.5" font-family="sans" font-size="10.00">natural_mutations</text>
</g>
<!-- 6&#45;&gt;12 -->
<g id="edge32" class="edge"><title>6&#45;&gt;12</title>
<path fill="none" stroke="grey" stroke-width="2" d="M595.639,-287.761C585.181,-269.189 567.184,-239.184 548,-216 539.599,-205.848 529.379,-195.667 519.981,-186.98"/>
<polygon fill="grey" stroke="grey" stroke-width="2" points="522.102,-184.18 512.338,-180.068 517.407,-189.372 522.102,-184.18"/>
</g>
<!-- 13 -->
<g id="node14" class="node"><title>13</title>
<path fill="none" stroke="#70d856" stroke-width="2" d="M936.5,-252C936.5,-252 861.5,-252 861.5,-252 855.5,-252 849.5,-246 849.5,-240 849.5,-240 849.5,-228 849.5,-228 849.5,-222 855.5,-216 861.5,-216 861.5,-216 936.5,-216 936.5,-216 942.5,-216 948.5,-222 948.5,-228 948.5,-228 948.5,-240 948.5,-240 948.5,-246 942.5,-252 936.5,-252"/>
<text text-anchor="middle" x="899" y="-231.5" font-family="sans" font-size="10.00">homolog_escape</text>
</g>
<!-- 6&#45;&gt;13 -->
<g id="edge35" class="edge"><title>6&#45;&gt;13</title>
<path fill="none" stroke="grey" stroke-width="2" d="M668.591,-290.941C714.843,-280.571 778.921,-265.905 835,-252 836.465,-251.637 837.947,-251.266 839.442,-250.89"/>
<polygon fill="grey" stroke="grey" stroke-width="2" points="840.604,-254.206 849.428,-248.341 838.873,-247.423 840.604,-254.206"/>
</g>
<!-- 14 -->
<g id="node15" class="node"><title>14</title>
<path fill="none" stroke="#56c9d8" stroke-width="2" d="M1061,-252C1061,-252 979,-252 979,-252 973,-252 967,-246 967,-240 967,-240 967,-228 967,-228 967,-222 973,-216 979,-216 979,-216 1061,-216 1061,-216 1067,-216 1073,-222 1073,-228 1073,-228 1073,-240 1073,-240 1073,-246 1067,-252 1061,-252"/>
<text text-anchor="middle" x="1020" y="-231.5" font-family="sans" font-size="10.00">escape_selections</text>
</g>
<!-- 6&#45;&gt;14 -->
<g id="edge36" class="edge"><title>6&#45;&gt;14</title>
<path fill="none" stroke="grey" stroke-width="2" d="M668.658,-297.635C739.462,-288.93 857.045,-272.94 957,-252 957.1,-251.979 957.201,-251.958 957.302,-251.937"/>
<polygon fill="grey" stroke="grey" stroke-width="2" points="957.832,-255.405 966.827,-249.806 956.304,-248.573 957.832,-255.405"/>
</g>
<!-- 15 -->
<g id="node16" class="node"><title>15</title>
<path fill="none" stroke="#d85656" stroke-width="2" d="M395,-108C395,-108 319,-108 319,-108 313,-108 307,-102 307,-96 307,-96 307,-84 307,-84 307,-78 313,-72 319,-72 319,-72 395,-72 395,-72 401,-72 407,-78 407,-84 407,-84 407,-96 407,-96 407,-102 401,-108 395,-108"/>
<text text-anchor="middle" x="357" y="-87.5" font-family="sans" font-size="10.00">make_supp_data</text>
</g>
<!-- 6&#45;&gt;15 -->
<g id="edge37" class="edge"><title>6&#45;&gt;15</title>
<path fill="none" stroke="grey" stroke-width="2" d="M541.303,-296.656C486.315,-288.151 412.569,-273.192 392,-252 357.064,-216.007 353.567,-153.779 354.831,-118.147"/>
<polygon fill="grey" stroke="grey" stroke-width="2" points="358.335,-118.166 355.347,-108.001 351.344,-117.811 358.335,-118.166"/>
</g>
<!-- 17 -->
<g id="node18" class="node"><title>17</title>
<path fill="none" stroke="#d89c56" stroke-width="2" d="M809,-180C809,-180 751,-180 751,-180 745,-180 739,-174 739,-168 739,-168 739,-156 739,-156 739,-150 745,-144 751,-144 751,-144 809,-144 809,-144 815,-144 821,-150 821,-156 821,-156 821,-168 821,-168 821,-174 815,-180 809,-180"/>
<text text-anchor="middle" x="780" y="-159.5" font-family="sans" font-size="10.00">custom_plots</text>
</g>
<!-- 6&#45;&gt;17 -->
<g id="edge39" class="edge"><title>6&#45;&gt;17</title>
<path fill="none" stroke="grey" stroke-width="2" d="M668.595,-299.172C701.73,-292.781 740.196,-279.501 764,-252 778.564,-235.174 781.905,-209.695 781.986,-190.303"/>
<polygon fill="grey" stroke="grey" stroke-width="2" points="785.484,-190.164 781.747,-180.25 778.486,-190.331 785.484,-190.164"/>
</g>
<!-- 7&#45;&gt;0 -->
<g id="edge17" class="edge"><title>7&#45;&gt;0</title>
<path fill="none" stroke="grey" stroke-width="2" d="M452.84,-215.936C436.75,-197.77 416.971,-168.345 430,-144 458.138,-91.4243 519.149,-57.6456 565.091,-38.6282"/>
<polygon fill="grey" stroke="grey" stroke-width="2" points="566.671,-41.7654 574.649,-34.7927 564.064,-35.269 566.671,-41.7654"/>
</g>
<!-- 7&#45;&gt;8 -->
<g id="edge29" class="edge"><title>7&#45;&gt;8</title>
<path fill="none" stroke="grey" stroke-width="2" d="M428.169,-215.876C404.584,-206.222 374.94,-194.087 350.001,-183.878"/>
<polygon fill="grey" stroke="grey" stroke-width="2" points="351.276,-180.618 340.695,-180.068 348.624,-187.096 351.276,-180.618"/>
</g>
<!-- 7&#45;&gt;12 -->
<g id="edge34" class="edge"><title>7&#45;&gt;12</title>
<path fill="none" stroke="grey" stroke-width="2" d="M475.438,-215.697C477.889,-207.898 480.84,-198.509 483.568,-189.829"/>
<polygon fill="grey" stroke="grey" stroke-width="2" points="486.965,-190.694 486.624,-180.104 480.287,-188.595 486.965,-190.694"/>
</g>
<!-- 8&#45;&gt;0 -->
<g id="edge3" class="edge"><title>8&#45;&gt;0</title>
<path fill="none" stroke="grey" stroke-width="2" d="M292.766,-143.692C286.871,-123.927 281.186,-91.7786 298,-72 331.547,-32.5395 480.417,-22.3872 564.557,-19.8235"/>
<polygon fill="grey" stroke="grey" stroke-width="2" points="564.836,-23.3172 574.735,-19.5407 564.641,-16.3199 564.836,-23.3172"/>
</g>
<!-- 8&#45;&gt;15 -->
<g id="edge38" class="edge"><title>8&#45;&gt;15</title>
<path fill="none" stroke="grey" stroke-width="2" d="M313.337,-143.697C320.291,-135.305 328.77,-125.07 336.401,-115.861"/>
<polygon fill="grey" stroke="grey" stroke-width="2" points="339.143,-118.038 342.828,-108.104 333.753,-113.571 339.143,-118.038"/>
</g>
<!-- 9&#45;&gt;0 -->
<g id="edge6" class="edge"><title>9&#45;&gt;0</title>
<path fill="none" stroke="grey" stroke-width="2" d="M623,-143.871C623,-119.67 623,-75.2108 623,-46.3932"/>
<polygon fill="grey" stroke="grey" stroke-width="2" points="626.5,-46.1892 623,-36.1893 619.5,-46.1893 626.5,-46.1892"/>
</g>
<!-- 10&#45;&gt;0 -->
<g id="edge12" class="edge"><title>10&#45;&gt;0</title>
<path fill="none" stroke="grey" stroke-width="2" d="M785.245,-75.5033C755.654,-65.1978 714.402,-50.8316 680.9,-39.1643"/>
<polygon fill="grey" stroke="grey" stroke-width="2" points="681.819,-35.7782 671.224,-35.7946 679.517,-42.3888 681.819,-35.7782"/>
</g>
<!-- 11 -->
<g id="node12" class="node"><title>11</title>
<path fill="none" stroke="#b6d856" stroke-width="2" d="M743,-252C743,-252 645,-252 645,-252 639,-252 633,-246 633,-240 633,-240 633,-228 633,-228 633,-222 639,-216 645,-216 645,-216 743,-216 743,-216 749,-216 755,-222 755,-228 755,-228 755,-240 755,-240 755,-246 749,-252 743,-252"/>
<text text-anchor="middle" x="694" y="-231.5" font-family="sans" font-size="10.00">gisaid_rbd_mutations</text>
</g>
<!-- 11&#45;&gt;0 -->
<g id="edge10" class="edge"><title>11&#45;&gt;0</title>
<path fill="none" stroke="grey" stroke-width="2" d="M695.722,-215.923C697.029,-197.747 697.623,-168.314 691,-144 680.88,-106.849 657.877,-68.6016 641.429,-44.3633"/>
<polygon fill="grey" stroke="grey" stroke-width="2" points="644.274,-42.3228 635.702,-36.0952 638.519,-46.3087 644.274,-42.3228"/>
</g>
<!-- 11&#45;&gt;12 -->
<g id="edge33" class="edge"><title>11&#45;&gt;12</title>
<path fill="none" stroke="grey" stroke-width="2" d="M644.844,-215.966C616.497,-206.142 580.675,-193.729 550.837,-183.389"/>
<polygon fill="grey" stroke="grey" stroke-width="2" points="551.972,-180.078 541.377,-180.111 549.68,-186.692 551.972,-180.078"/>
</g>
<!-- 11&#45;&gt;17 -->
<g id="edge40" class="edge"><title>11&#45;&gt;17</title>
<path fill="none" stroke="grey" stroke-width="2" d="M715.258,-215.697C726.089,-206.881 739.418,-196.032 751.16,-186.474"/>
<polygon fill="grey" stroke="grey" stroke-width="2" points="753.44,-189.132 758.986,-180.104 749.021,-183.703 753.44,-189.132"/>
</g>
<!-- 12&#45;&gt;0 -->
<g id="edge5" class="edge"><title>12&#45;&gt;0</title>
<path fill="none" stroke="grey" stroke-width="2" d="M507.802,-143.871C530.817,-118.924 573.691,-72.4495 600.146,-43.7729"/>
<polygon fill="grey" stroke="grey" stroke-width="2" points="602.934,-45.9125 607.142,-36.1893 597.789,-41.1661 602.934,-45.9125"/>
</g>
<!-- 13&#45;&gt;0 -->
<g id="edge2" class="edge"><title>13&#45;&gt;0</title>
<path fill="none" stroke="grey" stroke-width="2" d="M901.615,-215.97C905.585,-183.297 909.067,-111.556 871,-72 845.281,-45.2751 745.992,-30.7706 681.114,-23.977"/>
<polygon fill="grey" stroke="grey" stroke-width="2" points="681.315,-20.4796 671.013,-22.9522 680.609,-27.4438 681.315,-20.4796"/>
</g>
<!-- 14&#45;&gt;0 -->
<g id="edge7" class="edge"><title>14&#45;&gt;0</title>
<path fill="none" stroke="grey" stroke-width="2" d="M1012.08,-215.831C995.632,-182.257 954.389,-108.05 896,-72 830.117,-31.323 739.643,-20.8109 681.243,-18.6334"/>
<polygon fill="grey" stroke="grey" stroke-width="2" points="681.184,-15.1301 671.083,-18.3266 680.973,-22.1269 681.184,-15.1301"/>
</g>
<!-- 15&#45;&gt;0 -->
<g id="edge4" class="edge"><title>15&#45;&gt;0</title>
<path fill="none" stroke="grey" stroke-width="2" d="M407.305,-75.6224C411.934,-74.3958 416.554,-73.1738 421,-72 469.578,-59.1755 524.753,-44.7053 565.149,-34.1288"/>
<polygon fill="grey" stroke="grey" stroke-width="2" points="566.041,-37.5135 574.828,-31.5952 564.268,-30.7417 566.041,-37.5135"/>
</g>
<!-- 16 -->
<g id="node17" class="node"><title>16</title>
<path fill="none" stroke="#5682d8" stroke-width="2" d="M1131,-108C1131,-108 1045,-108 1045,-108 1039,-108 1033,-102 1033,-96 1033,-96 1033,-84 1033,-84 1033,-78 1039,-72 1045,-72 1045,-72 1131,-72 1131,-72 1137,-72 1143,-78 1143,-84 1143,-84 1143,-96 1143,-96 1143,-102 1137,-108 1131,-108"/>
<text text-anchor="middle" x="1088" y="-87.5" font-family="sans" font-size="10.00">structural_contacts</text>
</g>
<!-- 16&#45;&gt;0 -->
<g id="edge16" class="edge"><title>16&#45;&gt;0</title>
<path fill="none" stroke="grey" stroke-width="2" d="M1032.75,-74.8289C1028.11,-73.8095 1023.48,-72.85 1019,-72 899.808,-49.4097 758.644,-32.9486 681.164,-24.7859"/>
<polygon fill="grey" stroke="grey" stroke-width="2" points="681.43,-21.2947 671.12,-23.7368 680.703,-28.2569 681.43,-21.2947"/>
</g>
<!-- 17&#45;&gt;0 -->
<g id="edge15" class="edge"><title>17&#45;&gt;0</title>
<path fill="none" stroke="grey" stroke-width="2" d="M772.74,-143.692C763.863,-124.224 747.231,-92.6373 725,-72 711.179,-59.1696 693.662,-48.5896 677.062,-40.3469"/>
<polygon fill="grey" stroke="grey" stroke-width="2" points="678.497,-37.1533 667.964,-36.0086 675.484,-43.4718 678.497,-37.1533"/>
</g>
<!-- 18&#45;&gt;3 -->
<g id="edge19" class="edge"><title>18&#45;&gt;3</title>
<path fill="none" stroke="grey" stroke-width="2" d="M239,-503.697C239,-495.983 239,-486.712 239,-478.112"/>
<polygon fill="grey" stroke="grey" stroke-width="2" points="242.5,-478.104 239,-468.104 235.5,-478.104 242.5,-478.104"/>
</g>
<!-- 19 -->
<g id="node20" class="node"><title>19</title>
<path fill="none" stroke="#569ad8" stroke-width="2" d="M452,-468C452,-468 366,-468 366,-468 360,-468 354,-462 354,-456 354,-456 354,-444 354,-444 354,-438 360,-432 366,-432 366,-432 452,-432 452,-432 458,-432 464,-438 464,-444 464,-444 464,-456 464,-456 464,-462 458,-468 452,-468"/>
<text text-anchor="middle" x="409" y="-447.5" font-family="sans" font-size="10.00">get_mut_bind_expr</text>
</g>
<!-- 19&#45;&gt;5 -->
<g id="edge23" class="edge"><title>19&#45;&gt;5</title>
<path fill="none" stroke="grey" stroke-width="2" d="M454.745,-431.876C480.764,-422.137 513.526,-409.872 540.947,-399.608"/>
<polygon fill="grey" stroke="grey" stroke-width="2" points="542.265,-402.852 550.403,-396.068 539.811,-396.296 542.265,-402.852"/>
</g>
<!-- 19&#45;&gt;8 -->
<g id="edge28" class="edge"><title>19&#45;&gt;8</title>
<path fill="none" stroke="grey" stroke-width="2" d="M400.352,-431.988C383.492,-398.32 345.804,-320.516 322,-252 314.94,-231.68 308.939,-208.085 304.838,-190.297"/>
<polygon fill="grey" stroke="grey" stroke-width="2" points="308.201,-189.298 302.594,-180.308 301.371,-190.833 308.201,-189.298"/>
</g>
<!-- 20 -->
<g id="node21" class="node"><title>20</title>
<path fill="none" stroke="#56d89a" stroke-width="2" d="M582.5,-468C582.5,-468 507.5,-468 507.5,-468 501.5,-468 495.5,-462 495.5,-456 495.5,-456 495.5,-444 495.5,-444 495.5,-438 501.5,-432 507.5,-432 507.5,-432 582.5,-432 582.5,-432 588.5,-432 594.5,-438 594.5,-444 594.5,-444 594.5,-456 594.5,-456 594.5,-462 588.5,-468 582.5,-468"/>
<text text-anchor="middle" x="545" y="-447.5" font-family="sans" font-size="10.00">get_variant_expr</text>
</g>
<!-- 20&#45;&gt;5 -->
<g id="edge21" class="edge"><title>20&#45;&gt;5</title>
<path fill="none" stroke="grey" stroke-width="2" d="M557.607,-431.697C563.597,-423.474 570.876,-413.483 577.479,-404.421"/>
<polygon fill="grey" stroke="grey" stroke-width="2" points="580.478,-406.248 583.538,-396.104 574.821,-402.126 580.478,-406.248"/>
</g>
<!-- 21 -->
<g id="node22" class="node"><title>21</title>
<path fill="none" stroke="#566bd8" stroke-width="2" d="M699,-468C699,-468 625,-468 625,-468 619,-468 613,-462 613,-456 613,-456 613,-444 613,-444 613,-438 619,-432 625,-432 625,-432 699,-432 699,-432 705,-432 711,-438 711,-444 711,-444 711,-456 711,-456 711,-462 705,-468 699,-468"/>
<text text-anchor="middle" x="662" y="-447.5" font-family="sans" font-size="10.00">get_variant_bind</text>
</g>
<!-- 21&#45;&gt;5 -->
<g id="edge24" class="edge"><title>21&#45;&gt;5</title>
<path fill="none" stroke="grey" stroke-width="2" d="M645.685,-431.697C637.693,-423.22 627.928,-412.864 619.178,-403.583"/>
<polygon fill="grey" stroke="grey" stroke-width="2" points="621.534,-400.979 612.127,-396.104 616.441,-405.781 621.534,-400.979"/>
</g>
</g>
</svg>
