<?xml version="1.0" encoding="UTF-8" standalone="no"?>
<!DOCTYPE svg PUBLIC "-//W3C//DTD SVG 1.1//EN"
 "http://www.w3.org/Graphics/SVG/1.1/DTD/svg11.dtd">
<!-- Generated by graphviz version 2.38.0 (20140413.2041)
 -->
<!-- Title: snakemake_dag Pages: 1 -->
<svg width="1184pt" height="620pt"
 viewBox="0.00 0.00 1183.78 620.00" xmlns="http://www.w3.org/2000/svg" xmlns:xlink="http://www.w3.org/1999/xlink">
<g id="graph0" class="graph" transform="scale(1 1) rotate(0) translate(4 616)">
<title>snakemake_dag</title>
<polygon fill="white" stroke="none" points="-4,4 -4,-616 1179.78,-616 1179.78,4 -4,4"/>
<!-- 0 -->
<g id="node1" class="node"><title>0</title>
<path fill="none" stroke="#ced856" stroke-width="2" d="M661,-36C661,-36 589,-36 589,-36 583,-36 577,-30 577,-24 577,-24 577,-12 577,-12 577,-6 583,-0 589,-0 589,-0 661,-0 661,-0 667,-0 673,-6 673,-12 673,-12 673,-24 673,-24 673,-30 667,-36 661,-36"/>
<text text-anchor="middle" x="625" y="-15.5" font-family="sans" font-size="10.00">make_summary</text>
</g>
<!-- 1 -->
<g id="node2" class="node"><title>1</title>
<path fill="none" stroke="#56d89a" stroke-width="2" d="M84,-108C84,-108 12,-108 12,-108 6,-108 0,-102 0,-96 0,-96 0,-84 0,-84 0,-78 6,-72 12,-72 12,-72 84,-72 84,-72 90,-72 96,-78 96,-84 96,-84 96,-96 96,-96 96,-102 90,-108 84,-108"/>
<text text-anchor="middle" x="48" y="-87.5" font-family="sans" font-size="10.00">make_rulegraph</text>
</g>
<!-- 1&#45;&gt;0 -->
<g id="edge7" class="edge"><title>1&#45;&gt;0</title>
<path fill="none" stroke="grey" stroke-width="2" d="M96.2208,-74.9504C100.855,-73.8506 105.502,-72.8421 110,-72 273.876,-41.3181 470.65,-27.2734 566.613,-21.8644"/>
<polygon fill="grey" stroke="grey" stroke-width="2" points="566.903,-25.3538 576.694,-21.3071 566.516,-18.3644 566.903,-25.3538"/>
</g>
<!-- 2 -->
<g id="node3" class="node"><title>2</title>
<path fill="none" stroke="#70d856" stroke-width="2" d="M222.5,-612C222.5,-612 109.5,-612 109.5,-612 103.5,-612 97.5,-606 97.5,-600 97.5,-600 97.5,-588 97.5,-588 97.5,-582 103.5,-576 109.5,-576 109.5,-576 222.5,-576 222.5,-576 228.5,-576 234.5,-582 234.5,-588 234.5,-588 234.5,-600 234.5,-600 234.5,-606 228.5,-612 222.5,-612"/>
<text text-anchor="middle" x="166" y="-591.5" font-family="sans" font-size="10.00">get_codon_variant_table</text>
</g>
<!-- 2&#45;&gt;0 -->
<g id="edge16" class="edge"><title>2&#45;&gt;0</title>
<path fill="none" stroke="grey" stroke-width="2" d="M157.501,-575.993C145.228,-549.822 124,-497.79 124,-451 124,-451 124,-451 124,-161 124,-113.786 141.902,-96.9253 182,-72 244.948,-32.8709 461.354,-22.6257 566.599,-19.9466"/>
<polygon fill="grey" stroke="grey" stroke-width="2" points="566.82,-23.4424 576.733,-19.7033 566.652,-16.4444 566.82,-23.4424"/>
</g>
<!-- 3 -->
<g id="node4" class="node"><title>3</title>
<path fill="none" stroke="#88d856" stroke-width="2" d="M298.5,-468C298.5,-468 179.5,-468 179.5,-468 173.5,-468 167.5,-462 167.5,-456 167.5,-456 167.5,-444 167.5,-444 167.5,-438 173.5,-432 179.5,-432 179.5,-432 298.5,-432 298.5,-432 304.5,-432 310.5,-438 310.5,-444 310.5,-444 310.5,-456 310.5,-456 310.5,-462 304.5,-468 298.5,-468"/>
<text text-anchor="middle" x="239" y="-447.5" font-family="sans" font-size="10.00">aggregate_variant_counts</text>
</g>
<!-- 2&#45;&gt;3 -->
<g id="edge19" class="edge"><title>2&#45;&gt;3</title>
<path fill="none" stroke="grey" stroke-width="2" d="M166.736,-575.918C168.18,-557.215 172.444,-526.846 185,-504 190.921,-493.226 199.73,-483.247 208.523,-474.921"/>
<polygon fill="grey" stroke="grey" stroke-width="2" points="211.072,-477.336 216.174,-468.051 206.395,-472.128 211.072,-477.336"/>
</g>
<!-- 18 -->
<g id="node19" class="node"><title>18</title>
<path fill="none" stroke="#d88556" stroke-width="2" d="M271.5,-540C271.5,-540 206.5,-540 206.5,-540 200.5,-540 194.5,-534 194.5,-528 194.5,-528 194.5,-516 194.5,-516 194.5,-510 200.5,-504 206.5,-504 206.5,-504 271.5,-504 271.5,-504 277.5,-504 283.5,-510 283.5,-516 283.5,-516 283.5,-528 283.5,-528 283.5,-534 277.5,-540 271.5,-540"/>
<text text-anchor="middle" x="239" y="-519.5" font-family="sans" font-size="10.00">count_variants</text>
</g>
<!-- 2&#45;&gt;18 -->
<g id="edge41" class="edge"><title>2&#45;&gt;18</title>
<path fill="none" stroke="grey" stroke-width="2" d="M184.045,-575.697C193.062,-567.05 204.118,-556.449 213.943,-547.027"/>
<polygon fill="grey" stroke="grey" stroke-width="2" points="216.367,-549.552 221.163,-540.104 211.522,-544.499 216.367,-549.552"/>
</g>
<!-- 3&#45;&gt;0 -->
<g id="edge13" class="edge"><title>3&#45;&gt;0</title>
<path fill="none" stroke="grey" stroke-width="2" d="M222.292,-431.812C199.646,-406.622 162,-357.199 162,-307 162,-307 162,-307 162,-161 162,-105.373 200.298,-96.9803 250,-72 304.306,-44.706 475.748,-29.1928 566.821,-22.6795"/>
<polygon fill="grey" stroke="grey" stroke-width="2" points="567.251,-26.158 576.981,-21.9664 566.76,-19.1752 567.251,-26.158"/>
</g>
<!-- 4 -->
<g id="node5" class="node"><title>4</title>
<path fill="none" stroke="#9fd856" stroke-width="2" d="M297.5,-324C297.5,-324 202.5,-324 202.5,-324 196.5,-324 190.5,-318 190.5,-312 190.5,-312 190.5,-300 190.5,-300 190.5,-294 196.5,-288 202.5,-288 202.5,-288 297.5,-288 297.5,-288 303.5,-288 309.5,-294 309.5,-300 309.5,-300 309.5,-312 309.5,-312 309.5,-318 303.5,-324 297.5,-324"/>
<text text-anchor="middle" x="250" y="-303.5" font-family="sans" font-size="10.00">counts_to_cells_ratio</text>
</g>
<!-- 3&#45;&gt;4 -->
<g id="edge20" class="edge"><title>3&#45;&gt;4</title>
<path fill="none" stroke="grey" stroke-width="2" d="M240.327,-431.871C242.202,-407.67 245.646,-363.211 247.878,-334.393"/>
<polygon fill="grey" stroke="grey" stroke-width="2" points="251.386,-334.43 248.668,-324.189 244.406,-333.889 251.386,-334.43"/>
</g>
<!-- 5 -->
<g id="node6" class="node"><title>5</title>
<path fill="none" stroke="#d85656" stroke-width="2" d="M636.5,-396C636.5,-396 559.5,-396 559.5,-396 553.5,-396 547.5,-390 547.5,-384 547.5,-384 547.5,-372 547.5,-372 547.5,-366 553.5,-360 559.5,-360 559.5,-360 636.5,-360 636.5,-360 642.5,-360 648.5,-366 648.5,-372 648.5,-372 648.5,-384 648.5,-384 648.5,-390 642.5,-396 636.5,-396"/>
<text text-anchor="middle" x="598" y="-375.5" font-family="sans" font-size="10.00">counts_to_scores</text>
</g>
<!-- 3&#45;&gt;5 -->
<g id="edge22" class="edge"><title>3&#45;&gt;5</title>
<path fill="none" stroke="grey" stroke-width="2" d="M310.786,-435.003C377.173,-422.058 474.752,-403.032 537.335,-390.829"/>
<polygon fill="grey" stroke="grey" stroke-width="2" points="538.305,-394.206 547.451,-388.856 536.966,-387.335 538.305,-394.206"/>
</g>
<!-- 4&#45;&gt;0 -->
<g id="edge9" class="edge"><title>4&#45;&gt;0</title>
<path fill="none" stroke="grey" stroke-width="2" d="M245.631,-287.979C235.199,-242.87 214.589,-120.403 284,-72 328.626,-40.88 481.561,-27.2403 566.666,-21.9414"/>
<polygon fill="grey" stroke="grey" stroke-width="2" points="566.926,-25.4322 576.697,-21.3359 566.504,-18.4449 566.926,-25.4322"/>
</g>
<!-- 5&#45;&gt;0 -->
<g id="edge1" class="edge"><title>5&#45;&gt;0</title>
<path fill="none" stroke="grey" stroke-width="2" d="M648.523,-375.286C788.834,-369.165 1173,-342.581 1173,-235 1173,-235 1173,-235 1173,-161 1173,-120.553 1184.14,-98.9777 1154,-72 1119.48,-41.0934 813.612,-26.0626 683.341,-21.0183"/>
<polygon fill="grey" stroke="grey" stroke-width="2" points="683.279,-17.5135 673.153,-20.6304 683.012,-24.5084 683.279,-17.5135"/>
</g>
<!-- 6 -->
<g id="node7" class="node"><title>6</title>
<path fill="none" stroke="#56d86b" stroke-width="2" d="M658.5,-324C658.5,-324 555.5,-324 555.5,-324 549.5,-324 543.5,-318 543.5,-312 543.5,-312 543.5,-300 543.5,-300 543.5,-294 549.5,-288 555.5,-288 555.5,-288 658.5,-288 658.5,-288 664.5,-288 670.5,-294 670.5,-300 670.5,-300 670.5,-312 670.5,-312 670.5,-318 664.5,-324 658.5,-324"/>
<text text-anchor="middle" x="607" y="-303.5" font-family="sans" font-size="10.00">scores_to_frac_escape</text>
</g>
<!-- 5&#45;&gt;6 -->
<g id="edge25" class="edge"><title>5&#45;&gt;6</title>
<path fill="none" stroke="grey" stroke-width="2" d="M600.225,-359.697C601.217,-351.983 602.408,-342.712 603.514,-334.112"/>
<polygon fill="grey" stroke="grey" stroke-width="2" points="606.997,-334.469 604.801,-324.104 600.054,-333.576 606.997,-334.469"/>
</g>
<!-- 6&#45;&gt;0 -->
<g id="edge5" class="edge"><title>6&#45;&gt;0</title>
<path fill="none" stroke="grey" stroke-width="2" d="M670.728,-302.562C794.327,-297.175 1056.91,-282.267 1084,-252 1160.29,-166.765 1163.09,-187.633 934,-72 853.515,-31.3763 747.821,-21.1337 683.235,-18.9643"/>
<polygon fill="grey" stroke="grey" stroke-width="2" points="683.327,-15.4656 673.232,-18.6821 683.129,-22.4629 683.327,-15.4656"/>
</g>
<!-- 7 -->
<g id="node8" class="node"><title>7</title>
<path fill="none" stroke="#5682d8" stroke-width="2" d="M529,-252C529,-252 415,-252 415,-252 409,-252 403,-246 403,-240 403,-240 403,-228 403,-228 403,-222 409,-216 415,-216 415,-216 529,-216 529,-216 535,-216 541,-222 541,-228 541,-228 541,-240 541,-240 541,-246 535,-252 529,-252"/>
<text text-anchor="middle" x="472" y="-231.5" font-family="sans" font-size="10.00">call_strong_escape_sites</text>
</g>
<!-- 6&#45;&gt;7 -->
<g id="edge26" class="edge"><title>6&#45;&gt;7</title>
<path fill="none" stroke="grey" stroke-width="2" d="M573.975,-287.876C555.915,-278.512 533.355,-266.814 514.049,-256.803"/>
<polygon fill="grey" stroke="grey" stroke-width="2" points="515.64,-253.686 505.152,-252.19 512.418,-259.9 515.64,-253.686"/>
</g>
<!-- 8 -->
<g id="node9" class="node"><title>8</title>
<path fill="none" stroke="#566bd8" stroke-width="2" d="M334.5,-180C334.5,-180 265.5,-180 265.5,-180 259.5,-180 253.5,-174 253.5,-168 253.5,-168 253.5,-156 253.5,-156 253.5,-150 259.5,-144 265.5,-144 265.5,-144 334.5,-144 334.5,-144 340.5,-144 346.5,-150 346.5,-156 346.5,-156 346.5,-168 346.5,-168 346.5,-174 340.5,-180 334.5,-180"/>
<text text-anchor="middle" x="300" y="-159.5" font-family="sans" font-size="10.00">escape_profiles</text>
</g>
<!-- 6&#45;&gt;8 -->
<g id="edge28" class="edge"><title>6&#45;&gt;8</title>
<path fill="none" stroke="grey" stroke-width="2" d="M543.386,-304.048C490.519,-300.438 415.414,-288.518 361,-252 338.039,-236.59 321.275,-209.358 311.196,-189.062"/>
<polygon fill="grey" stroke="grey" stroke-width="2" points="314.355,-187.556 306.912,-180.016 308.029,-190.552 314.355,-187.556"/>
</g>
<!-- 9 -->
<g id="node10" class="node"><title>9</title>
<path fill="none" stroke="#d8cb56" stroke-width="2" d="M672.5,-180C672.5,-180 577.5,-180 577.5,-180 571.5,-180 565.5,-174 565.5,-168 565.5,-168 565.5,-156 565.5,-156 565.5,-150 571.5,-144 577.5,-144 577.5,-144 672.5,-144 672.5,-144 678.5,-144 684.5,-150 684.5,-156 684.5,-156 684.5,-168 684.5,-168 684.5,-174 678.5,-180 672.5,-180"/>
<text text-anchor="middle" x="625" y="-159.5" font-family="sans" font-size="10.00">mds_escape_profiles</text>
</g>
<!-- 6&#45;&gt;9 -->
<g id="edge30" class="edge"><title>6&#45;&gt;9</title>
<path fill="none" stroke="grey" stroke-width="2" d="M609.171,-287.871C612.239,-263.67 617.875,-219.211 621.528,-190.393"/>
<polygon fill="grey" stroke="grey" stroke-width="2" points="625.036,-190.55 622.821,-180.189 618.091,-189.67 625.036,-190.55"/>
</g>
<!-- 10 -->
<g id="node11" class="node"><title>10</title>
<path fill="none" stroke="#56b1d8" stroke-width="2" d="M852.5,-108C852.5,-108 799.5,-108 799.5,-108 793.5,-108 787.5,-102 787.5,-96 787.5,-96 787.5,-84 787.5,-84 787.5,-78 793.5,-72 799.5,-72 799.5,-72 852.5,-72 852.5,-72 858.5,-72 864.5,-78 864.5,-84 864.5,-84 864.5,-96 864.5,-96 864.5,-102 858.5,-108 852.5,-108"/>
<text text-anchor="middle" x="826" y="-87.5" font-family="sans" font-size="10.00">output_pdbs</text>
</g>
<!-- 6&#45;&gt;10 -->
<g id="edge31" class="edge"><title>6&#45;&gt;10</title>
<path fill="none" stroke="grey" stroke-width="2" d="M670.819,-297.93C708.059,-291.143 754.206,-277.881 788,-252 829.15,-220.486 834.92,-195.748 832,-144 831.523,-135.549 830.622,-126.376 829.66,-118.074"/>
<polygon fill="grey" stroke="grey" stroke-width="2" points="833.133,-117.641 828.437,-108.144 826.186,-118.497 833.133,-117.641"/>
</g>
<!-- 12 -->
<g id="node13" class="node"><title>12</title>
<path fill="none" stroke="#56d8b1" stroke-width="2" d="M535,-180C535,-180 453,-180 453,-180 447,-180 441,-174 441,-168 441,-168 441,-156 441,-156 441,-150 447,-144 453,-144 453,-144 535,-144 535,-144 541,-144 547,-150 547,-156 547,-156 547,-168 547,-168 547,-174 541,-180 535,-180"/>
<text text-anchor="middle" x="494" y="-159.5" font-family="sans" font-size="10.00">natural_mutations</text>
</g>
<!-- 6&#45;&gt;12 -->
<g id="edge34" class="edge"><title>6&#45;&gt;12</title>
<path fill="none" stroke="grey" stroke-width="2" d="M597.639,-287.761C587.181,-269.189 569.184,-239.184 550,-216 541.599,-205.848 531.379,-195.667 521.981,-186.98"/>
<polygon fill="grey" stroke="grey" stroke-width="2" points="524.102,-184.18 514.338,-180.068 519.407,-189.372 524.102,-184.18"/>
</g>
<!-- 13 -->
<g id="node14" class="node"><title>13</title>
<path fill="none" stroke="#569ad8" stroke-width="2" d="M938.5,-252C938.5,-252 863.5,-252 863.5,-252 857.5,-252 851.5,-246 851.5,-240 851.5,-240 851.5,-228 851.5,-228 851.5,-222 857.5,-216 863.5,-216 863.5,-216 938.5,-216 938.5,-216 944.5,-216 950.5,-222 950.5,-228 950.5,-228 950.5,-240 950.5,-240 950.5,-246 944.5,-252 938.5,-252"/>
<text text-anchor="middle" x="901" y="-231.5" font-family="sans" font-size="10.00">homolog_escape</text>
</g>
<!-- 6&#45;&gt;13 -->
<g id="edge35" class="edge"><title>6&#45;&gt;13</title>
<path fill="none" stroke="grey" stroke-width="2" d="M670.591,-290.941C716.843,-280.571 780.921,-265.905 837,-252 838.465,-251.637 839.947,-251.266 841.442,-250.89"/>
<polygon fill="grey" stroke="grey" stroke-width="2" points="842.604,-254.206 851.428,-248.341 840.873,-247.423 842.604,-254.206"/>
</g>
<!-- 14 -->
<g id="node15" class="node"><title>14</title>
<path fill="none" stroke="#56d8c9" stroke-width="2" d="M1063,-252C1063,-252 981,-252 981,-252 975,-252 969,-246 969,-240 969,-240 969,-228 969,-228 969,-222 975,-216 981,-216 981,-216 1063,-216 1063,-216 1069,-216 1075,-222 1075,-228 1075,-228 1075,-240 1075,-240 1075,-246 1069,-252 1063,-252"/>
<text text-anchor="middle" x="1022" y="-231.5" font-family="sans" font-size="10.00">escape_selections</text>
</g>
<!-- 6&#45;&gt;14 -->
<g id="edge36" class="edge"><title>6&#45;&gt;14</title>
<path fill="none" stroke="grey" stroke-width="2" d="M670.658,-297.635C741.462,-288.93 859.045,-272.94 959,-252 959.1,-251.979 959.201,-251.958 959.302,-251.937"/>
<polygon fill="grey" stroke="grey" stroke-width="2" points="959.832,-255.405 968.827,-249.806 958.304,-248.573 959.832,-255.405"/>
</g>
<!-- 15 -->
<g id="node16" class="node"><title>15</title>
<path fill="none" stroke="#d8b456" stroke-width="2" d="M396,-108C396,-108 320,-108 320,-108 314,-108 308,-102 308,-96 308,-96 308,-84 308,-84 308,-78 314,-72 320,-72 320,-72 396,-72 396,-72 402,-72 408,-78 408,-84 408,-84 408,-96 408,-96 408,-102 402,-108 396,-108"/>
<text text-anchor="middle" x="358" y="-87.5" font-family="sans" font-size="10.00">make_supp_data</text>
</g>
<!-- 6&#45;&gt;15 -->
<g id="edge37" class="edge"><title>6&#45;&gt;15</title>
<path fill="none" stroke="grey" stroke-width="2" d="M543.332,-296.628C488.364,-288.103 414.632,-273.131 394,-252 358.912,-216.063 355.002,-153.815 356.021,-118.164"/>
<polygon fill="grey" stroke="grey" stroke-width="2" points="359.525,-118.156 356.466,-108.013 352.531,-117.85 359.525,-118.156"/>
</g>
<!-- 17 -->
<g id="node18" class="node"><title>17</title>
<path fill="none" stroke="#d86e56" stroke-width="2" d="M811,-180C811,-180 753,-180 753,-180 747,-180 741,-174 741,-168 741,-168 741,-156 741,-156 741,-150 747,-144 753,-144 753,-144 811,-144 811,-144 817,-144 823,-150 823,-156 823,-156 823,-168 823,-168 823,-174 817,-180 811,-180"/>
<text text-anchor="middle" x="782" y="-159.5" font-family="sans" font-size="10.00">custom_plots</text>
</g>
<!-- 6&#45;&gt;17 -->
<g id="edge40" class="edge"><title>6&#45;&gt;17</title>
<path fill="none" stroke="grey" stroke-width="2" d="M670.595,-299.172C703.73,-292.781 742.196,-279.501 766,-252 780.564,-235.174 783.905,-209.695 783.986,-190.303"/>
<polygon fill="grey" stroke="grey" stroke-width="2" points="787.484,-190.164 783.747,-180.25 780.486,-190.331 787.484,-190.164"/>
</g>
<!-- 7&#45;&gt;0 -->
<g id="edge17" class="edge"><title>7&#45;&gt;0</title>
<path fill="none" stroke="grey" stroke-width="2" d="M454.84,-215.936C438.75,-197.77 418.971,-168.345 432,-144 460.138,-91.4243 521.149,-57.6456 567.091,-38.6282"/>
<polygon fill="grey" stroke="grey" stroke-width="2" points="568.671,-41.7654 576.649,-34.7927 566.064,-35.269 568.671,-41.7654"/>
</g>
<!-- 7&#45;&gt;8 -->
<g id="edge27" class="edge"><title>7&#45;&gt;8</title>
<path fill="none" stroke="grey" stroke-width="2" d="M429.924,-215.876C406.202,-206.222 376.384,-194.087 351.299,-183.878"/>
<polygon fill="grey" stroke="grey" stroke-width="2" points="352.521,-180.596 341.939,-180.068 349.882,-187.08 352.521,-180.596"/>
</g>
<!-- 7&#45;&gt;12 -->
<g id="edge33" class="edge"><title>7&#45;&gt;12</title>
<path fill="none" stroke="grey" stroke-width="2" d="M477.438,-215.697C479.889,-207.898 482.84,-198.509 485.568,-189.829"/>
<polygon fill="grey" stroke="grey" stroke-width="2" points="488.965,-190.694 488.624,-180.104 482.287,-188.595 488.965,-190.694"/>
</g>
<!-- 8&#45;&gt;0 -->
<g id="edge4" class="edge"><title>8&#45;&gt;0</title>
<path fill="none" stroke="grey" stroke-width="2" d="M293.764,-143.69C287.867,-123.924 282.181,-91.7745 299,-72 332.701,-32.377 482.378,-22.2962 566.714,-19.7853"/>
<polygon fill="grey" stroke="grey" stroke-width="2" points="567.011,-23.2786 576.913,-19.509 566.822,-16.2812 567.011,-23.2786"/>
</g>
<!-- 8&#45;&gt;15 -->
<g id="edge38" class="edge"><title>8&#45;&gt;15</title>
<path fill="none" stroke="grey" stroke-width="2" d="M314.337,-143.697C321.291,-135.305 329.77,-125.07 337.401,-115.861"/>
<polygon fill="grey" stroke="grey" stroke-width="2" points="340.143,-118.038 343.828,-108.104 334.753,-113.571 340.143,-118.038"/>
</g>
<!-- 9&#45;&gt;0 -->
<g id="edge10" class="edge"><title>9&#45;&gt;0</title>
<path fill="none" stroke="grey" stroke-width="2" d="M625,-143.871C625,-119.67 625,-75.2108 625,-46.3932"/>
<polygon fill="grey" stroke="grey" stroke-width="2" points="628.5,-46.1892 625,-36.1893 621.5,-46.1893 628.5,-46.1892"/>
</g>
<!-- 10&#45;&gt;0 -->
<g id="edge15" class="edge"><title>10&#45;&gt;0</title>
<path fill="none" stroke="grey" stroke-width="2" d="M787.245,-75.5033C757.654,-65.1978 716.402,-50.8316 682.9,-39.1643"/>
<polygon fill="grey" stroke="grey" stroke-width="2" points="683.819,-35.7782 673.224,-35.7946 681.517,-42.3888 683.819,-35.7782"/>
</g>
<!-- 11 -->
<g id="node12" class="node"><title>11</title>
<path fill="none" stroke="#56c9d8" stroke-width="2" d="M745,-252C745,-252 647,-252 647,-252 641,-252 635,-246 635,-240 635,-240 635,-228 635,-228 635,-222 641,-216 647,-216 647,-216 745,-216 745,-216 751,-216 757,-222 757,-228 757,-228 757,-240 757,-240 757,-246 751,-252 745,-252"/>
<text text-anchor="middle" x="696" y="-231.5" font-family="sans" font-size="10.00">gisaid_rbd_mutations</text>
</g>
<!-- 11&#45;&gt;0 -->
<g id="edge11" class="edge"><title>11&#45;&gt;0</title>
<path fill="none" stroke="grey" stroke-width="2" d="M697.722,-215.923C699.029,-197.747 699.623,-168.314 693,-144 682.88,-106.849 659.877,-68.6016 643.429,-44.3633"/>
<polygon fill="grey" stroke="grey" stroke-width="2" points="646.274,-42.3228 637.702,-36.0952 640.519,-46.3087 646.274,-42.3228"/>
</g>
<!-- 11&#45;&gt;12 -->
<g id="edge32" class="edge"><title>11&#45;&gt;12</title>
<path fill="none" stroke="grey" stroke-width="2" d="M646.844,-215.966C618.497,-206.142 582.675,-193.729 552.837,-183.389"/>
<polygon fill="grey" stroke="grey" stroke-width="2" points="553.972,-180.078 543.377,-180.111 551.68,-186.692 553.972,-180.078"/>
</g>
<!-- 11&#45;&gt;17 -->
<g id="edge39" class="edge"><title>11&#45;&gt;17</title>
<path fill="none" stroke="grey" stroke-width="2" d="M717.258,-215.697C728.089,-206.881 741.418,-196.032 753.16,-186.474"/>
<polygon fill="grey" stroke="grey" stroke-width="2" points="755.44,-189.132 760.986,-180.104 751.021,-183.703 755.44,-189.132"/>
</g>
<!-- 12&#45;&gt;0 -->
<g id="edge8" class="edge"><title>12&#45;&gt;0</title>
<path fill="none" stroke="grey" stroke-width="2" d="M509.802,-143.871C532.817,-118.924 575.691,-72.4495 602.146,-43.7729"/>
<polygon fill="grey" stroke="grey" stroke-width="2" points="604.934,-45.9125 609.142,-36.1893 599.789,-41.1661 604.934,-45.9125"/>
</g>
<!-- 13&#45;&gt;0 -->
<g id="edge3" class="edge"><title>13&#45;&gt;0</title>
<path fill="none" stroke="grey" stroke-width="2" d="M903.615,-215.97C907.585,-183.297 911.067,-111.556 873,-72 847.281,-45.2751 747.992,-30.7706 683.114,-23.977"/>
<polygon fill="grey" stroke="grey" stroke-width="2" points="683.315,-20.4796 673.013,-22.9522 682.609,-27.4438 683.315,-20.4796"/>
</g>
<!-- 14&#45;&gt;0 -->
<g id="edge12" class="edge"><title>14&#45;&gt;0</title>
<path fill="none" stroke="grey" stroke-width="2" d="M1014.08,-215.831C997.632,-182.257 956.389,-108.05 898,-72 832.117,-31.323 741.643,-20.8109 683.243,-18.6334"/>
<polygon fill="grey" stroke="grey" stroke-width="2" points="683.184,-15.1301 673.083,-18.3266 682.973,-22.1269 683.184,-15.1301"/>
</g>
<!-- 15&#45;&gt;0 -->
<g id="edge14" class="edge"><title>15&#45;&gt;0</title>
<path fill="none" stroke="grey" stroke-width="2" d="M408.303,-75.6166C412.933,-74.3913 417.553,-73.1711 422,-72 470.973,-59.1027 526.629,-44.5814 567.264,-34.0044"/>
<polygon fill="grey" stroke="grey" stroke-width="2" points="568.2,-37.3774 576.996,-31.4717 566.437,-30.603 568.2,-37.3774"/>
</g>
<!-- 16 -->
<g id="node17" class="node"><title>16</title>
<path fill="none" stroke="#b6d856" stroke-width="2" d="M1133,-108C1133,-108 1047,-108 1047,-108 1041,-108 1035,-102 1035,-96 1035,-96 1035,-84 1035,-84 1035,-78 1041,-72 1047,-72 1047,-72 1133,-72 1133,-72 1139,-72 1145,-78 1145,-84 1145,-84 1145,-96 1145,-96 1145,-102 1139,-108 1133,-108"/>
<text text-anchor="middle" x="1090" y="-87.5" font-family="sans" font-size="10.00">structural_contacts</text>
</g>
<!-- 16&#45;&gt;0 -->
<g id="edge2" class="edge"><title>16&#45;&gt;0</title>
<path fill="none" stroke="grey" stroke-width="2" d="M1034.75,-74.8289C1030.11,-73.8095 1025.48,-72.85 1021,-72 901.808,-49.4097 760.644,-32.9486 683.164,-24.7859"/>
<polygon fill="grey" stroke="grey" stroke-width="2" points="683.43,-21.2947 673.12,-23.7368 682.703,-28.2569 683.43,-21.2947"/>
</g>
<!-- 17&#45;&gt;0 -->
<g id="edge6" class="edge"><title>17&#45;&gt;0</title>
<path fill="none" stroke="grey" stroke-width="2" d="M774.74,-143.692C765.863,-124.224 749.231,-92.6373 727,-72 713.179,-59.1696 695.662,-48.5896 679.062,-40.3469"/>
<polygon fill="grey" stroke="grey" stroke-width="2" points="680.497,-37.1533 669.964,-36.0086 677.484,-43.4718 680.497,-37.1533"/>
</g>
<!-- 18&#45;&gt;3 -->
<g id="edge18" class="edge"><title>18&#45;&gt;3</title>
<path fill="none" stroke="grey" stroke-width="2" d="M239,-503.697C239,-495.983 239,-486.712 239,-478.112"/>
<polygon fill="grey" stroke="grey" stroke-width="2" points="242.5,-478.104 239,-468.104 235.5,-478.104 242.5,-478.104"/>
</g>
<!-- 19 -->
<g id="node20" class="node"><title>19</title>
<path fill="none" stroke="#56d882" stroke-width="2" d="M453,-468C453,-468 367,-468 367,-468 361,-468 355,-462 355,-456 355,-456 355,-444 355,-444 355,-438 361,-432 367,-432 367,-432 453,-432 453,-432 459,-432 465,-438 465,-444 465,-444 465,-456 465,-456 465,-462 459,-468 453,-468"/>
<text text-anchor="middle" x="410" y="-447.5" font-family="sans" font-size="10.00">get_mut_bind_expr</text>
</g>
<!-- 19&#45;&gt;5 -->
<g id="edge23" class="edge"><title>19&#45;&gt;5</title>
<path fill="none" stroke="grey" stroke-width="2" d="M455.99,-431.876C482.148,-422.137 515.085,-409.872 542.652,-399.608"/>
<polygon fill="grey" stroke="grey" stroke-width="2" points="544.009,-402.838 552.159,-396.068 541.567,-396.278 544.009,-402.838"/>
</g>
<!-- 19&#45;&gt;8 -->
<g id="edge29" class="edge"><title>19&#45;&gt;8</title>
<path fill="none" stroke="grey" stroke-width="2" d="M401.352,-431.988C384.492,-398.32 346.804,-320.516 323,-252 315.94,-231.68 309.939,-208.085 305.838,-190.297"/>
<polygon fill="grey" stroke="grey" stroke-width="2" points="309.201,-189.298 303.594,-180.308 302.371,-190.833 309.201,-189.298"/>
</g>
<!-- 20 -->
<g id="node21" class="node"><title>20</title>
<path fill="none" stroke="#d89c56" stroke-width="2" d="M583.5,-468C583.5,-468 508.5,-468 508.5,-468 502.5,-468 496.5,-462 496.5,-456 496.5,-456 496.5,-444 496.5,-444 496.5,-438 502.5,-432 508.5,-432 508.5,-432 583.5,-432 583.5,-432 589.5,-432 595.5,-438 595.5,-444 595.5,-444 595.5,-456 595.5,-456 595.5,-462 589.5,-468 583.5,-468"/>
<text text-anchor="middle" x="546" y="-447.5" font-family="sans" font-size="10.00">get_variant_expr</text>
</g>
<!-- 20&#45;&gt;5 -->
<g id="edge21" class="edge"><title>20&#45;&gt;5</title>
<path fill="none" stroke="grey" stroke-width="2" d="M558.854,-431.697C565.025,-423.389 572.537,-413.277 579.324,-404.141"/>
<polygon fill="grey" stroke="grey" stroke-width="2" points="582.14,-406.219 585.294,-396.104 576.521,-402.045 582.14,-406.219"/>
</g>
<!-- 21 -->
<g id="node22" class="node"><title>21</title>
<path fill="none" stroke="#59d856" stroke-width="2" d="M700,-468C700,-468 626,-468 626,-468 620,-468 614,-462 614,-456 614,-456 614,-444 614,-444 614,-438 620,-432 626,-432 626,-432 700,-432 700,-432 706,-432 712,-438 712,-444 712,-444 712,-456 712,-456 712,-462 706,-468 700,-468"/>
<text text-anchor="middle" x="663" y="-447.5" font-family="sans" font-size="10.00">get_variant_bind</text>
</g>
<!-- 21&#45;&gt;5 -->
<g id="edge24" class="edge"><title>21&#45;&gt;5</title>
<path fill="none" stroke="grey" stroke-width="2" d="M646.933,-431.697C639.061,-423.22 629.445,-412.864 620.827,-403.583"/>
<polygon fill="grey" stroke="grey" stroke-width="2" points="623.252,-401.051 613.883,-396.104 618.122,-405.814 623.252,-401.051"/>
</g>
</g>
</svg>
