<?xml version="1.0" encoding="utf-8" standalone="no"?>
<!DOCTYPE svg PUBLIC "-//W3C//DTD SVG 1.1//EN"
  "http://www.w3.org/Graphics/SVG/1.1/DTD/svg11.dtd">
<!-- Created with matplotlib (https://matplotlib.org/) -->
<svg height="177.639312pt" version="1.1" viewBox="0 0 678.294937 177.639312" width="678.294937pt" xmlns="http://www.w3.org/2000/svg" xmlns:xlink="http://www.w3.org/1999/xlink">
 <metadata>
  <rdf:RDF xmlns:cc="http://creativecommons.org/ns#" xmlns:dc="http://purl.org/dc/elements/1.1/" xmlns:rdf="http://www.w3.org/1999/02/22-rdf-syntax-ns#">
   <cc:Work>
    <dc:type rdf:resource="http://purl.org/dc/dcmitype/StillImage"/>
    <dc:date>2020-11-27T13:43:45.349013</dc:date>
    <dc:format>image/svg+xml</dc:format>
    <dc:creator>
     <cc:Agent>
      <dc:title>Matplotlib v3.3.2, https://matplotlib.org/</dc:title>
     </cc:Agent>
    </dc:creator>
   </cc:Work>
  </rdf:RDF>
 </metadata>
 <defs>
  <style type="text/css">*{stroke-linecap:butt;stroke-linejoin:round;}</style>
 </defs>
 <g id="figure_1">
  <g id="patch_1">
   <path d="M 0 177.639312 
L 678.294937 177.639312 
L 678.294937 0 
L 0 0 
z
" style="fill:#ffffff;stroke:#ffffff;stroke-linejoin:miter;"/>
  </g>
  <g id="axes_1">
   <g id="patch_2">
    <path d="M 43.808688 121.292 
L 165.578688 121.292 
L 165.578688 21.5 
L 43.808688 21.5 
z
" style="fill:#ffffff;"/>
   </g>
   <g id="matplotlib.axis_1">
    <g id="xtick_1">
     <g id="line2d_1">
      <path d="M 57.859072 121.292 
" style="fill:none;stroke:#333333;stroke-width:1.5;"/>
      <defs>
       <path d="M 0 0 
L 0 2.75 
" id="m217a399ea8" style="stroke:#000000;"/>
      </defs>
      <g>
       <use style="fill:#333333;stroke:#000000;" x="57.859072" xlink:href="#m217a399ea8" y="121.292"/>
      </g>
     </g>
     <g id="text_1">
      <!-- WT -->
      <g style="fill:#4d4d4d;" transform="translate(60.287322 140.317875)rotate(-90)scale(0.088 -0.088)">
       <defs>
        <path d="M 3.328125 72.90625 
L 13.28125 72.90625 
L 28.609375 11.28125 
L 43.890625 72.90625 
L 54.984375 72.90625 
L 70.3125 11.28125 
L 85.59375 72.90625 
L 95.609375 72.90625 
L 77.296875 0 
L 64.890625 0 
L 49.515625 63.28125 
L 33.984375 0 
L 21.578125 0 
z
" id="DejaVuSans-87"/>
        <path d="M -0.296875 72.90625 
L 61.375 72.90625 
L 61.375 64.59375 
L 35.5 64.59375 
L 35.5 0 
L 25.59375 0 
L 25.59375 64.59375 
L -0.296875 64.59375 
z
" id="DejaVuSans-84"/>
       </defs>
       <use xlink:href="#DejaVuSans-87"/>
       <use x="98.876953" xlink:href="#DejaVuSans-84"/>
      </g>
     </g>
    </g>
    <g id="xtick_2">
     <g id="line2d_2">
      <path d="M 81.27638 121.292 
" style="fill:none;stroke:#333333;stroke-width:1.5;"/>
      <g>
       <use style="fill:#333333;stroke:#000000;" x="81.27638" xlink:href="#m217a399ea8" y="121.292"/>
      </g>
     </g>
     <g id="text_2">
      <!-- E406W -->
      <g style="fill:#4d4d4d;" transform="translate(83.70463 157.3005)rotate(-90)scale(0.088 -0.088)">
       <defs>
        <path d="M 9.8125 72.90625 
L 55.90625 72.90625 
L 55.90625 64.59375 
L 19.671875 64.59375 
L 19.671875 43.015625 
L 54.390625 43.015625 
L 54.390625 34.71875 
L 19.671875 34.71875 
L 19.671875 8.296875 
L 56.78125 8.296875 
L 56.78125 0 
L 9.8125 0 
z
" id="DejaVuSans-69"/>
        <path d="M 37.796875 64.3125 
L 12.890625 25.390625 
L 37.796875 25.390625 
z
M 35.203125 72.90625 
L 47.609375 72.90625 
L 47.609375 25.390625 
L 58.015625 25.390625 
L 58.015625 17.1875 
L 47.609375 17.1875 
L 47.609375 0 
L 37.796875 0 
L 37.796875 17.1875 
L 4.890625 17.1875 
L 4.890625 26.703125 
z
" id="DejaVuSans-52"/>
        <path d="M 31.78125 66.40625 
Q 24.171875 66.40625 20.328125 58.90625 
Q 16.5 51.421875 16.5 36.375 
Q 16.5 21.390625 20.328125 13.890625 
Q 24.171875 6.390625 31.78125 6.390625 
Q 39.453125 6.390625 43.28125 13.890625 
Q 47.125 21.390625 47.125 36.375 
Q 47.125 51.421875 43.28125 58.90625 
Q 39.453125 66.40625 31.78125 66.40625 
z
M 31.78125 74.21875 
Q 44.046875 74.21875 50.515625 64.515625 
Q 56.984375 54.828125 56.984375 36.375 
Q 56.984375 17.96875 50.515625 8.265625 
Q 44.046875 -1.421875 31.78125 -1.421875 
Q 19.53125 -1.421875 13.0625 8.265625 
Q 6.59375 17.96875 6.59375 36.375 
Q 6.59375 54.828125 13.0625 64.515625 
Q 19.53125 74.21875 31.78125 74.21875 
z
" id="DejaVuSans-48"/>
        <path d="M 33.015625 40.375 
Q 26.375 40.375 22.484375 35.828125 
Q 18.609375 31.296875 18.609375 23.390625 
Q 18.609375 15.53125 22.484375 10.953125 
Q 26.375 6.390625 33.015625 6.390625 
Q 39.65625 6.390625 43.53125 10.953125 
Q 47.40625 15.53125 47.40625 23.390625 
Q 47.40625 31.296875 43.53125 35.828125 
Q 39.65625 40.375 33.015625 40.375 
z
M 52.59375 71.296875 
L 52.59375 62.3125 
Q 48.875 64.0625 45.09375 64.984375 
Q 41.3125 65.921875 37.59375 65.921875 
Q 27.828125 65.921875 22.671875 59.328125 
Q 17.53125 52.734375 16.796875 39.40625 
Q 19.671875 43.65625 24.015625 45.921875 
Q 28.375 48.1875 33.59375 48.1875 
Q 44.578125 48.1875 50.953125 41.515625 
Q 57.328125 34.859375 57.328125 23.390625 
Q 57.328125 12.15625 50.6875 5.359375 
Q 44.046875 -1.421875 33.015625 -1.421875 
Q 20.359375 -1.421875 13.671875 8.265625 
Q 6.984375 17.96875 6.984375 36.375 
Q 6.984375 53.65625 15.1875 63.9375 
Q 23.390625 74.21875 37.203125 74.21875 
Q 40.921875 74.21875 44.703125 73.484375 
Q 48.484375 72.75 52.59375 71.296875 
z
" id="DejaVuSans-54"/>
       </defs>
       <use xlink:href="#DejaVuSans-69"/>
       <use x="63.183594" xlink:href="#DejaVuSans-52"/>
       <use x="126.806641" xlink:href="#DejaVuSans-48"/>
       <use x="190.429688" xlink:href="#DejaVuSans-54"/>
       <use x="254.052734" xlink:href="#DejaVuSans-87"/>
      </g>
     </g>
    </g>
    <g id="xtick_3">
     <g id="line2d_3">
      <path d="M 104.693688 121.292 
" style="fill:none;stroke:#333333;stroke-width:1.5;"/>
      <g>
       <use style="fill:#333333;stroke:#000000;" x="104.693688" xlink:href="#m217a399ea8" y="121.292"/>
      </g>
     </g>
     <g id="text_3">
      <!-- N439K -->
      <g style="fill:#4d4d4d;" transform="translate(107.121938 155.393375)rotate(-90)scale(0.088 -0.088)">
       <defs>
        <path d="M 9.8125 72.90625 
L 23.09375 72.90625 
L 55.421875 11.921875 
L 55.421875 72.90625 
L 64.984375 72.90625 
L 64.984375 0 
L 51.703125 0 
L 19.390625 60.984375 
L 19.390625 0 
L 9.8125 0 
z
" id="DejaVuSans-78"/>
        <path d="M 40.578125 39.3125 
Q 47.65625 37.796875 51.625 33 
Q 55.609375 28.21875 55.609375 21.1875 
Q 55.609375 10.40625 48.1875 4.484375 
Q 40.765625 -1.421875 27.09375 -1.421875 
Q 22.515625 -1.421875 17.65625 -0.515625 
Q 12.796875 0.390625 7.625 2.203125 
L 7.625 11.71875 
Q 11.71875 9.328125 16.59375 8.109375 
Q 21.484375 6.890625 26.8125 6.890625 
Q 36.078125 6.890625 40.9375 10.546875 
Q 45.796875 14.203125 45.796875 21.1875 
Q 45.796875 27.640625 41.28125 31.265625 
Q 36.765625 34.90625 28.71875 34.90625 
L 20.21875 34.90625 
L 20.21875 43.015625 
L 29.109375 43.015625 
Q 36.375 43.015625 40.234375 45.921875 
Q 44.09375 48.828125 44.09375 54.296875 
Q 44.09375 59.90625 40.109375 62.90625 
Q 36.140625 65.921875 28.71875 65.921875 
Q 24.65625 65.921875 20.015625 65.03125 
Q 15.375 64.15625 9.8125 62.3125 
L 9.8125 71.09375 
Q 15.4375 72.65625 20.34375 73.4375 
Q 25.25 74.21875 29.59375 74.21875 
Q 40.828125 74.21875 47.359375 69.109375 
Q 53.90625 64.015625 53.90625 55.328125 
Q 53.90625 49.265625 50.4375 45.09375 
Q 46.96875 40.921875 40.578125 39.3125 
z
" id="DejaVuSans-51"/>
        <path d="M 10.984375 1.515625 
L 10.984375 10.5 
Q 14.703125 8.734375 18.5 7.8125 
Q 22.3125 6.890625 25.984375 6.890625 
Q 35.75 6.890625 40.890625 13.453125 
Q 46.046875 20.015625 46.78125 33.40625 
Q 43.953125 29.203125 39.59375 26.953125 
Q 35.25 24.703125 29.984375 24.703125 
Q 19.046875 24.703125 12.671875 31.3125 
Q 6.296875 37.9375 6.296875 49.421875 
Q 6.296875 60.640625 12.9375 67.421875 
Q 19.578125 74.21875 30.609375 74.21875 
Q 43.265625 74.21875 49.921875 64.515625 
Q 56.59375 54.828125 56.59375 36.375 
Q 56.59375 19.140625 48.40625 8.859375 
Q 40.234375 -1.421875 26.421875 -1.421875 
Q 22.703125 -1.421875 18.890625 -0.6875 
Q 15.09375 0.046875 10.984375 1.515625 
z
M 30.609375 32.421875 
Q 37.25 32.421875 41.125 36.953125 
Q 45.015625 41.5 45.015625 49.421875 
Q 45.015625 57.28125 41.125 61.84375 
Q 37.25 66.40625 30.609375 66.40625 
Q 23.96875 66.40625 20.09375 61.84375 
Q 16.21875 57.28125 16.21875 49.421875 
Q 16.21875 41.5 20.09375 36.953125 
Q 23.96875 32.421875 30.609375 32.421875 
z
" id="DejaVuSans-57"/>
        <path d="M 9.8125 72.90625 
L 19.671875 72.90625 
L 19.671875 42.09375 
L 52.390625 72.90625 
L 65.09375 72.90625 
L 28.90625 38.921875 
L 67.671875 0 
L 54.6875 0 
L 19.671875 35.109375 
L 19.671875 0 
L 9.8125 0 
z
" id="DejaVuSans-75"/>
       </defs>
       <use xlink:href="#DejaVuSans-78"/>
       <use x="74.804688" xlink:href="#DejaVuSans-52"/>
       <use x="138.427734" xlink:href="#DejaVuSans-51"/>
       <use x="202.050781" xlink:href="#DejaVuSans-57"/>
       <use x="265.673828" xlink:href="#DejaVuSans-75"/>
      </g>
     </g>
    </g>
    <g id="xtick_4">
     <g id="line2d_4">
      <path d="M 128.110995 121.292 
" style="fill:none;stroke:#333333;stroke-width:1.5;"/>
      <g>
       <use style="fill:#333333;stroke:#000000;" x="128.110995" xlink:href="#m217a399ea8" y="121.292"/>
      </g>
     </g>
     <g id="text_4">
      <!-- K444Q -->
      <g style="fill:#4d4d4d;" transform="translate(130.539245 155.737125)rotate(-90)scale(0.088 -0.088)">
       <defs>
        <path d="M 39.40625 66.21875 
Q 28.65625 66.21875 22.328125 58.203125 
Q 16.015625 50.203125 16.015625 36.375 
Q 16.015625 22.609375 22.328125 14.59375 
Q 28.65625 6.59375 39.40625 6.59375 
Q 50.140625 6.59375 56.421875 14.59375 
Q 62.703125 22.609375 62.703125 36.375 
Q 62.703125 50.203125 56.421875 58.203125 
Q 50.140625 66.21875 39.40625 66.21875 
z
M 53.21875 1.3125 
L 66.21875 -12.890625 
L 54.296875 -12.890625 
L 43.5 -1.21875 
Q 41.890625 -1.3125 41.03125 -1.359375 
Q 40.1875 -1.421875 39.40625 -1.421875 
Q 24.03125 -1.421875 14.8125 8.859375 
Q 5.609375 19.140625 5.609375 36.375 
Q 5.609375 53.65625 14.8125 63.9375 
Q 24.03125 74.21875 39.40625 74.21875 
Q 54.734375 74.21875 63.90625 63.9375 
Q 73.09375 53.65625 73.09375 36.375 
Q 73.09375 23.6875 67.984375 14.640625 
Q 62.890625 5.609375 53.21875 1.3125 
z
" id="DejaVuSans-81"/>
       </defs>
       <use xlink:href="#DejaVuSans-75"/>
       <use x="65.576172" xlink:href="#DejaVuSans-52"/>
       <use x="129.199219" xlink:href="#DejaVuSans-52"/>
       <use x="192.822266" xlink:href="#DejaVuSans-52"/>
       <use x="256.445312" xlink:href="#DejaVuSans-81"/>
      </g>
     </g>
    </g>
    <g id="xtick_5">
     <g id="line2d_5">
      <path d="M 151.528303 121.292 
" style="fill:none;stroke:#333333;stroke-width:1.5;"/>
      <g>
       <use style="fill:#333333;stroke:#000000;" x="151.528303" xlink:href="#m217a399ea8" y="121.292"/>
      </g>
     </g>
     <g id="text_5">
      <!-- F486K -->
      <g style="fill:#4d4d4d;" transform="translate(153.956553 153.87125)rotate(-90)scale(0.088 -0.088)">
       <defs>
        <path d="M 9.8125 72.90625 
L 51.703125 72.90625 
L 51.703125 64.59375 
L 19.671875 64.59375 
L 19.671875 43.109375 
L 48.578125 43.109375 
L 48.578125 34.8125 
L 19.671875 34.8125 
L 19.671875 0 
L 9.8125 0 
z
" id="DejaVuSans-70"/>
        <path d="M 31.78125 34.625 
Q 24.75 34.625 20.71875 30.859375 
Q 16.703125 27.09375 16.703125 20.515625 
Q 16.703125 13.921875 20.71875 10.15625 
Q 24.75 6.390625 31.78125 6.390625 
Q 38.8125 6.390625 42.859375 10.171875 
Q 46.921875 13.96875 46.921875 20.515625 
Q 46.921875 27.09375 42.890625 30.859375 
Q 38.875 34.625 31.78125 34.625 
z
M 21.921875 38.8125 
Q 15.578125 40.375 12.03125 44.71875 
Q 8.5 49.078125 8.5 55.328125 
Q 8.5 64.0625 14.71875 69.140625 
Q 20.953125 74.21875 31.78125 74.21875 
Q 42.671875 74.21875 48.875 69.140625 
Q 55.078125 64.0625 55.078125 55.328125 
Q 55.078125 49.078125 51.53125 44.71875 
Q 48 40.375 41.703125 38.8125 
Q 48.828125 37.15625 52.796875 32.3125 
Q 56.78125 27.484375 56.78125 20.515625 
Q 56.78125 9.90625 50.3125 4.234375 
Q 43.84375 -1.421875 31.78125 -1.421875 
Q 19.734375 -1.421875 13.25 4.234375 
Q 6.78125 9.90625 6.78125 20.515625 
Q 6.78125 27.484375 10.78125 32.3125 
Q 14.796875 37.15625 21.921875 38.8125 
z
M 18.3125 54.390625 
Q 18.3125 48.734375 21.84375 45.5625 
Q 25.390625 42.390625 31.78125 42.390625 
Q 38.140625 42.390625 41.71875 45.5625 
Q 45.3125 48.734375 45.3125 54.390625 
Q 45.3125 60.0625 41.71875 63.234375 
Q 38.140625 66.40625 31.78125 66.40625 
Q 25.390625 66.40625 21.84375 63.234375 
Q 18.3125 60.0625 18.3125 54.390625 
z
" id="DejaVuSans-56"/>
       </defs>
       <use xlink:href="#DejaVuSans-70"/>
       <use x="57.519531" xlink:href="#DejaVuSans-52"/>
       <use x="121.142578" xlink:href="#DejaVuSans-56"/>
       <use x="184.765625" xlink:href="#DejaVuSans-54"/>
       <use x="248.388672" xlink:href="#DejaVuSans-75"/>
      </g>
     </g>
    </g>
   </g>
   <g id="matplotlib.axis_2">
    <g id="ytick_1">
     <g id="line2d_6">
      <path d="M 43.808688 104.330764 
" style="fill:none;stroke:#333333;stroke-width:1.5;"/>
      <defs>
       <path d="M 0 0 
L -2.75 0 
" id="md98a7ed030" style="stroke:#000000;"/>
      </defs>
      <g>
       <use style="fill:#333333;stroke:#000000;" x="43.808688" xlink:href="#md98a7ed030" y="104.330764"/>
      </g>
     </g>
     <g id="text_6">
      <!-- 1 -->
      <g style="fill:#4d4d4d;" transform="translate(33.259688 106.759014)scale(0.088 -0.088)">
       <defs>
        <path d="M 12.40625 8.296875 
L 28.515625 8.296875 
L 28.515625 63.921875 
L 10.984375 60.40625 
L 10.984375 69.390625 
L 28.421875 72.90625 
L 38.28125 72.90625 
L 38.28125 8.296875 
L 54.390625 8.296875 
L 54.390625 0 
L 12.40625 0 
z
" id="DejaVuSans-49"/>
       </defs>
       <use xlink:href="#DejaVuSans-49"/>
      </g>
     </g>
    </g>
    <g id="ytick_2">
     <g id="line2d_7">
      <path d="M 43.808688 72.535019 
" style="fill:none;stroke:#333333;stroke-width:1.5;"/>
      <g>
       <use style="fill:#333333;stroke:#000000;" x="43.808688" xlink:href="#md98a7ed030" y="72.535019"/>
      </g>
     </g>
     <g id="text_7">
      <!-- 1e2 -->
      <g style="fill:#4d4d4d;" transform="translate(22.245938 74.963269)scale(0.088 -0.088)">
       <defs>
        <path d="M 56.203125 29.59375 
L 56.203125 25.203125 
L 14.890625 25.203125 
Q 15.484375 15.921875 20.484375 11.0625 
Q 25.484375 6.203125 34.421875 6.203125 
Q 39.59375 6.203125 44.453125 7.46875 
Q 49.3125 8.734375 54.109375 11.28125 
L 54.109375 2.78125 
Q 49.265625 0.734375 44.1875 -0.34375 
Q 39.109375 -1.421875 33.890625 -1.421875 
Q 20.796875 -1.421875 13.15625 6.1875 
Q 5.515625 13.8125 5.515625 26.8125 
Q 5.515625 40.234375 12.765625 48.109375 
Q 20.015625 56 32.328125 56 
Q 43.359375 56 49.78125 48.890625 
Q 56.203125 41.796875 56.203125 29.59375 
z
M 47.21875 32.234375 
Q 47.125 39.59375 43.09375 43.984375 
Q 39.0625 48.390625 32.421875 48.390625 
Q 24.90625 48.390625 20.390625 44.140625 
Q 15.875 39.890625 15.1875 32.171875 
z
" id="DejaVuSans-101"/>
        <path d="M 19.1875 8.296875 
L 53.609375 8.296875 
L 53.609375 0 
L 7.328125 0 
L 7.328125 8.296875 
Q 12.9375 14.109375 22.625 23.890625 
Q 32.328125 33.6875 34.8125 36.53125 
Q 39.546875 41.84375 41.421875 45.53125 
Q 43.3125 49.21875 43.3125 52.78125 
Q 43.3125 58.59375 39.234375 62.25 
Q 35.15625 65.921875 28.609375 65.921875 
Q 23.96875 65.921875 18.8125 64.3125 
Q 13.671875 62.703125 7.8125 59.421875 
L 7.8125 69.390625 
Q 13.765625 71.78125 18.9375 73 
Q 24.125 74.21875 28.421875 74.21875 
Q 39.75 74.21875 46.484375 68.546875 
Q 53.21875 62.890625 53.21875 53.421875 
Q 53.21875 48.921875 51.53125 44.890625 
Q 49.859375 40.875 45.40625 35.40625 
Q 44.1875 33.984375 37.640625 27.21875 
Q 31.109375 20.453125 19.1875 8.296875 
z
" id="DejaVuSans-50"/>
       </defs>
       <use xlink:href="#DejaVuSans-49"/>
       <use x="63.623047" xlink:href="#DejaVuSans-101"/>
       <use x="125.146484" xlink:href="#DejaVuSans-50"/>
      </g>
     </g>
    </g>
    <g id="ytick_3">
     <g id="line2d_8">
      <path d="M 43.808688 40.739273 
" style="fill:none;stroke:#333333;stroke-width:1.5;"/>
      <g>
       <use style="fill:#333333;stroke:#000000;" x="43.808688" xlink:href="#md98a7ed030" y="40.739273"/>
      </g>
     </g>
     <g id="text_8">
      <!-- 1e4 -->
      <g style="fill:#4d4d4d;" transform="translate(22.245938 43.167523)scale(0.088 -0.088)">
       <use xlink:href="#DejaVuSans-49"/>
       <use x="63.623047" xlink:href="#DejaVuSans-101"/>
       <use x="125.146484" xlink:href="#DejaVuSans-52"/>
      </g>
     </g>
    </g>
    <g id="ytick_4"/>
    <g id="ytick_5"/>
    <g id="ytick_6"/>
    <g id="ytick_7"/>
    <g id="ytick_8"/>
    <g id="ytick_9"/>
    <g id="ytick_10"/>
    <g id="ytick_11"/>
    <g id="ytick_12"/>
    <g id="ytick_13"/>
    <g id="ytick_14"/>
    <g id="ytick_15"/>
    <g id="ytick_16"/>
    <g id="ytick_17"/>
    <g id="ytick_18"/>
    <g id="ytick_19"/>
    <g id="ytick_20"/>
    <g id="ytick_21"/>
    <g id="ytick_22"/>
    <g id="ytick_23"/>
    <g id="ytick_24"/>
    <g id="ytick_25"/>
    <g id="ytick_26"/>
    <g id="ytick_27"/>
    <g id="ytick_28"/>
    <g id="text_9">
     <!-- fold change in IC50 -->
     <g transform="translate(15.558281 124.030109)rotate(-90)scale(0.11 -0.11)">
      <defs>
       <path d="M 37.109375 75.984375 
L 37.109375 68.5 
L 28.515625 68.5 
Q 23.6875 68.5 21.796875 66.546875 
Q 19.921875 64.59375 19.921875 59.515625 
L 19.921875 54.6875 
L 34.71875 54.6875 
L 34.71875 47.703125 
L 19.921875 47.703125 
L 19.921875 0 
L 10.890625 0 
L 10.890625 47.703125 
L 2.296875 47.703125 
L 2.296875 54.6875 
L 10.890625 54.6875 
L 10.890625 58.5 
Q 10.890625 67.625 15.140625 71.796875 
Q 19.390625 75.984375 28.609375 75.984375 
z
" id="DejaVuSans-102"/>
       <path d="M 30.609375 48.390625 
Q 23.390625 48.390625 19.1875 42.75 
Q 14.984375 37.109375 14.984375 27.296875 
Q 14.984375 17.484375 19.15625 11.84375 
Q 23.34375 6.203125 30.609375 6.203125 
Q 37.796875 6.203125 41.984375 11.859375 
Q 46.1875 17.53125 46.1875 27.296875 
Q 46.1875 37.015625 41.984375 42.703125 
Q 37.796875 48.390625 30.609375 48.390625 
z
M 30.609375 56 
Q 42.328125 56 49.015625 48.375 
Q 55.71875 40.765625 55.71875 27.296875 
Q 55.71875 13.875 49.015625 6.21875 
Q 42.328125 -1.421875 30.609375 -1.421875 
Q 18.84375 -1.421875 12.171875 6.21875 
Q 5.515625 13.875 5.515625 27.296875 
Q 5.515625 40.765625 12.171875 48.375 
Q 18.84375 56 30.609375 56 
z
" id="DejaVuSans-111"/>
       <path d="M 9.421875 75.984375 
L 18.40625 75.984375 
L 18.40625 0 
L 9.421875 0 
z
" id="DejaVuSans-108"/>
       <path d="M 45.40625 46.390625 
L 45.40625 75.984375 
L 54.390625 75.984375 
L 54.390625 0 
L 45.40625 0 
L 45.40625 8.203125 
Q 42.578125 3.328125 38.25 0.953125 
Q 33.9375 -1.421875 27.875 -1.421875 
Q 17.96875 -1.421875 11.734375 6.484375 
Q 5.515625 14.40625 5.515625 27.296875 
Q 5.515625 40.1875 11.734375 48.09375 
Q 17.96875 56 27.875 56 
Q 33.9375 56 38.25 53.625 
Q 42.578125 51.265625 45.40625 46.390625 
z
M 14.796875 27.296875 
Q 14.796875 17.390625 18.875 11.75 
Q 22.953125 6.109375 30.078125 6.109375 
Q 37.203125 6.109375 41.296875 11.75 
Q 45.40625 17.390625 45.40625 27.296875 
Q 45.40625 37.203125 41.296875 42.84375 
Q 37.203125 48.484375 30.078125 48.484375 
Q 22.953125 48.484375 18.875 42.84375 
Q 14.796875 37.203125 14.796875 27.296875 
z
" id="DejaVuSans-100"/>
       <path id="DejaVuSans-32"/>
       <path d="M 48.78125 52.59375 
L 48.78125 44.1875 
Q 44.96875 46.296875 41.140625 47.34375 
Q 37.3125 48.390625 33.40625 48.390625 
Q 24.65625 48.390625 19.8125 42.84375 
Q 14.984375 37.3125 14.984375 27.296875 
Q 14.984375 17.28125 19.8125 11.734375 
Q 24.65625 6.203125 33.40625 6.203125 
Q 37.3125 6.203125 41.140625 7.25 
Q 44.96875 8.296875 48.78125 10.40625 
L 48.78125 2.09375 
Q 45.015625 0.34375 40.984375 -0.53125 
Q 36.96875 -1.421875 32.421875 -1.421875 
Q 20.0625 -1.421875 12.78125 6.34375 
Q 5.515625 14.109375 5.515625 27.296875 
Q 5.515625 40.671875 12.859375 48.328125 
Q 20.21875 56 33.015625 56 
Q 37.15625 56 41.109375 55.140625 
Q 45.0625 54.296875 48.78125 52.59375 
z
" id="DejaVuSans-99"/>
       <path d="M 54.890625 33.015625 
L 54.890625 0 
L 45.90625 0 
L 45.90625 32.71875 
Q 45.90625 40.484375 42.875 44.328125 
Q 39.84375 48.1875 33.796875 48.1875 
Q 26.515625 48.1875 22.3125 43.546875 
Q 18.109375 38.921875 18.109375 30.90625 
L 18.109375 0 
L 9.078125 0 
L 9.078125 75.984375 
L 18.109375 75.984375 
L 18.109375 46.1875 
Q 21.34375 51.125 25.703125 53.5625 
Q 30.078125 56 35.796875 56 
Q 45.21875 56 50.046875 50.171875 
Q 54.890625 44.34375 54.890625 33.015625 
z
" id="DejaVuSans-104"/>
       <path d="M 34.28125 27.484375 
Q 23.390625 27.484375 19.1875 25 
Q 14.984375 22.515625 14.984375 16.5 
Q 14.984375 11.71875 18.140625 8.90625 
Q 21.296875 6.109375 26.703125 6.109375 
Q 34.1875 6.109375 38.703125 11.40625 
Q 43.21875 16.703125 43.21875 25.484375 
L 43.21875 27.484375 
z
M 52.203125 31.203125 
L 52.203125 0 
L 43.21875 0 
L 43.21875 8.296875 
Q 40.140625 3.328125 35.546875 0.953125 
Q 30.953125 -1.421875 24.3125 -1.421875 
Q 15.921875 -1.421875 10.953125 3.296875 
Q 6 8.015625 6 15.921875 
Q 6 25.140625 12.171875 29.828125 
Q 18.359375 34.515625 30.609375 34.515625 
L 43.21875 34.515625 
L 43.21875 35.40625 
Q 43.21875 41.609375 39.140625 45 
Q 35.0625 48.390625 27.6875 48.390625 
Q 23 48.390625 18.546875 47.265625 
Q 14.109375 46.140625 10.015625 43.890625 
L 10.015625 52.203125 
Q 14.9375 54.109375 19.578125 55.046875 
Q 24.21875 56 28.609375 56 
Q 40.484375 56 46.34375 49.84375 
Q 52.203125 43.703125 52.203125 31.203125 
z
" id="DejaVuSans-97"/>
       <path d="M 54.890625 33.015625 
L 54.890625 0 
L 45.90625 0 
L 45.90625 32.71875 
Q 45.90625 40.484375 42.875 44.328125 
Q 39.84375 48.1875 33.796875 48.1875 
Q 26.515625 48.1875 22.3125 43.546875 
Q 18.109375 38.921875 18.109375 30.90625 
L 18.109375 0 
L 9.078125 0 
L 9.078125 54.6875 
L 18.109375 54.6875 
L 18.109375 46.1875 
Q 21.34375 51.125 25.703125 53.5625 
Q 30.078125 56 35.796875 56 
Q 45.21875 56 50.046875 50.171875 
Q 54.890625 44.34375 54.890625 33.015625 
z
" id="DejaVuSans-110"/>
       <path d="M 45.40625 27.984375 
Q 45.40625 37.75 41.375 43.109375 
Q 37.359375 48.484375 30.078125 48.484375 
Q 22.859375 48.484375 18.828125 43.109375 
Q 14.796875 37.75 14.796875 27.984375 
Q 14.796875 18.265625 18.828125 12.890625 
Q 22.859375 7.515625 30.078125 7.515625 
Q 37.359375 7.515625 41.375 12.890625 
Q 45.40625 18.265625 45.40625 27.984375 
z
M 54.390625 6.78125 
Q 54.390625 -7.171875 48.1875 -13.984375 
Q 42 -20.796875 29.203125 -20.796875 
Q 24.46875 -20.796875 20.265625 -20.09375 
Q 16.0625 -19.390625 12.109375 -17.921875 
L 12.109375 -9.1875 
Q 16.0625 -11.328125 19.921875 -12.34375 
Q 23.78125 -13.375 27.78125 -13.375 
Q 36.625 -13.375 41.015625 -8.765625 
Q 45.40625 -4.15625 45.40625 5.171875 
L 45.40625 9.625 
Q 42.625 4.78125 38.28125 2.390625 
Q 33.9375 0 27.875 0 
Q 17.828125 0 11.671875 7.65625 
Q 5.515625 15.328125 5.515625 27.984375 
Q 5.515625 40.671875 11.671875 48.328125 
Q 17.828125 56 27.875 56 
Q 33.9375 56 38.28125 53.609375 
Q 42.625 51.21875 45.40625 46.390625 
L 45.40625 54.6875 
L 54.390625 54.6875 
z
" id="DejaVuSans-103"/>
       <path d="M 9.421875 54.6875 
L 18.40625 54.6875 
L 18.40625 0 
L 9.421875 0 
z
M 9.421875 75.984375 
L 18.40625 75.984375 
L 18.40625 64.59375 
L 9.421875 64.59375 
z
" id="DejaVuSans-105"/>
       <path d="M 9.8125 72.90625 
L 19.671875 72.90625 
L 19.671875 0 
L 9.8125 0 
z
" id="DejaVuSans-73"/>
       <path d="M 64.40625 67.28125 
L 64.40625 56.890625 
Q 59.421875 61.53125 53.78125 63.8125 
Q 48.140625 66.109375 41.796875 66.109375 
Q 29.296875 66.109375 22.65625 58.46875 
Q 16.015625 50.828125 16.015625 36.375 
Q 16.015625 21.96875 22.65625 14.328125 
Q 29.296875 6.6875 41.796875 6.6875 
Q 48.140625 6.6875 53.78125 8.984375 
Q 59.421875 11.28125 64.40625 15.921875 
L 64.40625 5.609375 
Q 59.234375 2.09375 53.4375 0.328125 
Q 47.65625 -1.421875 41.21875 -1.421875 
Q 24.65625 -1.421875 15.125 8.703125 
Q 5.609375 18.84375 5.609375 36.375 
Q 5.609375 53.953125 15.125 64.078125 
Q 24.65625 74.21875 41.21875 74.21875 
Q 47.75 74.21875 53.53125 72.484375 
Q 59.328125 70.75 64.40625 67.28125 
z
" id="DejaVuSans-67"/>
       <path d="M 10.796875 72.90625 
L 49.515625 72.90625 
L 49.515625 64.59375 
L 19.828125 64.59375 
L 19.828125 46.734375 
Q 21.96875 47.46875 24.109375 47.828125 
Q 26.265625 48.1875 28.421875 48.1875 
Q 40.625 48.1875 47.75 41.5 
Q 54.890625 34.8125 54.890625 23.390625 
Q 54.890625 11.625 47.5625 5.09375 
Q 40.234375 -1.421875 26.90625 -1.421875 
Q 22.3125 -1.421875 17.546875 -0.640625 
Q 12.796875 0.140625 7.71875 1.703125 
L 7.71875 11.625 
Q 12.109375 9.234375 16.796875 8.0625 
Q 21.484375 6.890625 26.703125 6.890625 
Q 35.15625 6.890625 40.078125 11.328125 
Q 45.015625 15.765625 45.015625 23.390625 
Q 45.015625 31 40.078125 35.4375 
Q 35.15625 39.890625 26.703125 39.890625 
Q 22.75 39.890625 18.8125 39.015625 
Q 14.890625 38.140625 10.796875 36.28125 
z
" id="DejaVuSans-53"/>
      </defs>
      <use xlink:href="#DejaVuSans-102"/>
      <use x="35.205078" xlink:href="#DejaVuSans-111"/>
      <use x="96.386719" xlink:href="#DejaVuSans-108"/>
      <use x="124.169922" xlink:href="#DejaVuSans-100"/>
      <use x="187.646484" xlink:href="#DejaVuSans-32"/>
      <use x="219.433594" xlink:href="#DejaVuSans-99"/>
      <use x="274.414062" xlink:href="#DejaVuSans-104"/>
      <use x="337.792969" xlink:href="#DejaVuSans-97"/>
      <use x="399.072266" xlink:href="#DejaVuSans-110"/>
      <use x="462.451172" xlink:href="#DejaVuSans-103"/>
      <use x="525.927734" xlink:href="#DejaVuSans-101"/>
      <use x="587.451172" xlink:href="#DejaVuSans-32"/>
      <use x="619.238281" xlink:href="#DejaVuSans-105"/>
      <use x="647.021484" xlink:href="#DejaVuSans-110"/>
      <use x="710.400391" xlink:href="#DejaVuSans-32"/>
      <use x="742.1875" xlink:href="#DejaVuSans-73"/>
      <use x="771.679688" xlink:href="#DejaVuSans-67"/>
      <use x="841.503906" xlink:href="#DejaVuSans-53"/>
      <use x="905.126953" xlink:href="#DejaVuSans-48"/>
     </g>
    </g>
   </g>
   <g id="PathCollection_1">
    <path clip-path="url(#p330af6d461)" d="M 81.27638 52.692128 
L 78.174586 58.895716 
L 84.378174 58.895716 
z
" style="fill:#009e73;stroke:#009e73;stroke-width:0.886227;"/>
    <path clip-path="url(#p330af6d461)" d="M 151.528303 26.347142 
L 148.426509 32.550731 
L 154.630097 32.550731 
z
" style="fill:#009e73;stroke:#009e73;stroke-width:0.886227;"/>
   </g>
   <g id="PathCollection_2">
    <path clip-path="url(#p330af6d461)" d="M 57.859072 107.432559 
C 58.681678 107.432559 59.470702 107.105734 60.052372 106.524064 
C 60.634042 105.942394 60.960866 105.15337 60.960866 104.330764 
C 60.960866 103.508159 60.634042 102.719134 60.052372 102.137465 
C 59.470702 101.555795 58.681678 101.22897 57.859072 101.22897 
C 57.036467 101.22897 56.247442 101.555795 55.665772 102.137465 
C 55.084102 102.719134 54.757278 103.508159 54.757278 104.330764 
C 54.757278 105.15337 55.084102 105.942394 55.665772 106.524064 
C 56.247442 107.105734 57.036467 107.432559 57.859072 107.432559 
z
" style="fill:#56b4e9;stroke:#56b4e9;stroke-width:0.886227;"/>
    <path clip-path="url(#p330af6d461)" d="M 104.693688 109.585078 
C 105.516293 109.585078 106.305317 109.258254 106.886987 108.676584 
C 107.468657 108.094914 107.795482 107.30589 107.795482 106.483284 
C 107.795482 105.660679 107.468657 104.871654 106.886987 104.289984 
C 106.305317 103.708315 105.516293 103.38149 104.693688 103.38149 
C 103.871082 103.38149 103.082058 103.708315 102.500388 104.289984 
C 101.918718 104.871654 101.591893 105.660679 101.591893 106.483284 
C 101.591893 107.30589 101.918718 108.094914 102.500388 108.676584 
C 103.082058 109.258254 103.871082 109.585078 104.693688 109.585078 
z
" style="fill:#56b4e9;stroke:#56b4e9;stroke-width:0.886227;"/>
    <path clip-path="url(#p330af6d461)" d="M 128.110995 115.98811 
C 128.933601 115.98811 129.722625 115.661285 130.304295 115.079616 
C 130.885965 114.497946 131.212789 113.708921 131.212789 112.886316 
C 131.212789 112.06371 130.885965 111.274686 130.304295 110.693016 
C 129.722625 110.111346 128.933601 109.784522 128.110995 109.784522 
C 127.28839 109.784522 126.499365 110.111346 125.917695 110.693016 
C 125.336026 111.274686 125.009201 112.06371 125.009201 112.886316 
C 125.009201 113.708921 125.336026 114.497946 125.917695 115.079616 
C 126.499365 115.661285 127.28839 115.98811 128.110995 115.98811 
z
" style="fill:#56b4e9;stroke:#56b4e9;stroke-width:0.886227;"/>
   </g>
   <g id="LineCollection_1">
    <path clip-path="url(#p330af6d461)" d="M 43.808688 104.330764 
L 165.578688 104.330764 
" style="fill:none;stroke:#56b4e9;stroke-dasharray:1.32934,2.193412;stroke-dashoffset:0;stroke-width:1.32934;"/>
   </g>
   <g id="patch_3">
    <path d="M 43.808688 21.5 
L 165.578688 21.5 
L 165.578688 7.2 
L 43.808688 7.2 
z
" style="fill:none;stroke:#000000;stroke-linejoin:miter;"/>
   </g>
   <g id="patch_4">
    <path d="M 43.808688 121.292 
L 43.808688 21.5 
" style="fill:none;stroke:#000000;stroke-linecap:square;stroke-linejoin:miter;"/>
   </g>
   <g id="patch_5">
    <path d="M 43.808688 121.292 
L 165.578688 121.292 
" style="fill:none;stroke:#000000;stroke-linecap:square;stroke-linejoin:miter;"/>
   </g>
   <g id="LineCollection_2">
    <path clip-path="url(#p330af6d461)" d="M 43.808688 112.886316 
L 165.578688 112.886316 
" style="fill:none;stroke:#999999;stroke-dasharray:3.27904,1.417963;stroke-dashoffset:0;stroke-opacity:0.698039;stroke-width:0.886227;"/>
   </g>
   <g id="text_10">
    <!-- REGN10933 -->
    <g style="fill:#1a1a1a;" transform="translate(78.157563 16.77825)scale(0.088 -0.088)">
     <defs>
      <path d="M 44.390625 34.1875 
Q 47.5625 33.109375 50.5625 29.59375 
Q 53.5625 26.078125 56.59375 19.921875 
L 66.609375 0 
L 56 0 
L 46.6875 18.703125 
Q 43.0625 26.03125 39.671875 28.421875 
Q 36.28125 30.8125 30.421875 30.8125 
L 19.671875 30.8125 
L 19.671875 0 
L 9.8125 0 
L 9.8125 72.90625 
L 32.078125 72.90625 
Q 44.578125 72.90625 50.734375 67.671875 
Q 56.890625 62.453125 56.890625 51.90625 
Q 56.890625 45.015625 53.6875 40.46875 
Q 50.484375 35.9375 44.390625 34.1875 
z
M 19.671875 64.796875 
L 19.671875 38.921875 
L 32.078125 38.921875 
Q 39.203125 38.921875 42.84375 42.21875 
Q 46.484375 45.515625 46.484375 51.90625 
Q 46.484375 58.296875 42.84375 61.546875 
Q 39.203125 64.796875 32.078125 64.796875 
z
" id="DejaVuSans-82"/>
      <path d="M 59.515625 10.40625 
L 59.515625 29.984375 
L 43.40625 29.984375 
L 43.40625 38.09375 
L 69.28125 38.09375 
L 69.28125 6.78125 
Q 63.578125 2.734375 56.6875 0.65625 
Q 49.8125 -1.421875 42 -1.421875 
Q 24.90625 -1.421875 15.25 8.5625 
Q 5.609375 18.5625 5.609375 36.375 
Q 5.609375 54.25 15.25 64.234375 
Q 24.90625 74.21875 42 74.21875 
Q 49.125 74.21875 55.546875 72.453125 
Q 61.96875 70.703125 67.390625 67.28125 
L 67.390625 56.78125 
Q 61.921875 61.421875 55.765625 63.765625 
Q 49.609375 66.109375 42.828125 66.109375 
Q 29.4375 66.109375 22.71875 58.640625 
Q 16.015625 51.171875 16.015625 36.375 
Q 16.015625 21.625 22.71875 14.15625 
Q 29.4375 6.6875 42.828125 6.6875 
Q 48.046875 6.6875 52.140625 7.59375 
Q 56.25 8.5 59.515625 10.40625 
z
" id="DejaVuSans-71"/>
     </defs>
     <use xlink:href="#DejaVuSans-82"/>
     <use x="69.482422" xlink:href="#DejaVuSans-69"/>
     <use x="132.666016" xlink:href="#DejaVuSans-71"/>
     <use x="210.15625" xlink:href="#DejaVuSans-78"/>
     <use x="284.960938" xlink:href="#DejaVuSans-49"/>
     <use x="348.583984" xlink:href="#DejaVuSans-48"/>
     <use x="412.207031" xlink:href="#DejaVuSans-57"/>
     <use x="475.830078" xlink:href="#DejaVuSans-51"/>
     <use x="539.453125" xlink:href="#DejaVuSans-51"/>
    </g>
   </g>
   <g id="LineCollection_3">
    <path clip-path="url(#p330af6d461)" d="M 43.808688 29.448936 
L 165.578688 29.448936 
" style="fill:none;stroke:#999999;stroke-dasharray:3.27904,1.417963;stroke-dashoffset:0;stroke-opacity:0.698039;stroke-width:0.886227;"/>
   </g>
   <g id="patch_6">
    <path d="M 553.208687 107.310969 
L 671.094938 107.310969 
L 671.094938 34.185031 
L 553.208687 34.185031 
z
" style="fill:#ffffff;"/>
   </g>
   <g id="text_11">
    <!-- escape expected -->
    <g transform="translate(565.408688 57.778625)scale(0.11 -0.11)">
     <defs>
      <path d="M 44.28125 53.078125 
L 44.28125 44.578125 
Q 40.484375 46.53125 36.375 47.5 
Q 32.28125 48.484375 27.875 48.484375 
Q 21.1875 48.484375 17.84375 46.4375 
Q 14.5 44.390625 14.5 40.28125 
Q 14.5 37.15625 16.890625 35.375 
Q 19.28125 33.59375 26.515625 31.984375 
L 29.59375 31.296875 
Q 39.15625 29.25 43.1875 25.515625 
Q 47.21875 21.78125 47.21875 15.09375 
Q 47.21875 7.46875 41.1875 3.015625 
Q 35.15625 -1.421875 24.609375 -1.421875 
Q 20.21875 -1.421875 15.453125 -0.5625 
Q 10.6875 0.296875 5.421875 2 
L 5.421875 11.28125 
Q 10.40625 8.6875 15.234375 7.390625 
Q 20.0625 6.109375 24.8125 6.109375 
Q 31.15625 6.109375 34.5625 8.28125 
Q 37.984375 10.453125 37.984375 14.40625 
Q 37.984375 18.0625 35.515625 20.015625 
Q 33.0625 21.96875 24.703125 23.78125 
L 21.578125 24.515625 
Q 13.234375 26.265625 9.515625 29.90625 
Q 5.8125 33.546875 5.8125 39.890625 
Q 5.8125 47.609375 11.28125 51.796875 
Q 16.75 56 26.8125 56 
Q 31.78125 56 36.171875 55.265625 
Q 40.578125 54.546875 44.28125 53.078125 
z
" id="DejaVuSans-115"/>
      <path d="M 18.109375 8.203125 
L 18.109375 -20.796875 
L 9.078125 -20.796875 
L 9.078125 54.6875 
L 18.109375 54.6875 
L 18.109375 46.390625 
Q 20.953125 51.265625 25.265625 53.625 
Q 29.59375 56 35.59375 56 
Q 45.5625 56 51.78125 48.09375 
Q 58.015625 40.1875 58.015625 27.296875 
Q 58.015625 14.40625 51.78125 6.484375 
Q 45.5625 -1.421875 35.59375 -1.421875 
Q 29.59375 -1.421875 25.265625 0.953125 
Q 20.953125 3.328125 18.109375 8.203125 
z
M 48.6875 27.296875 
Q 48.6875 37.203125 44.609375 42.84375 
Q 40.53125 48.484375 33.40625 48.484375 
Q 26.265625 48.484375 22.1875 42.84375 
Q 18.109375 37.203125 18.109375 27.296875 
Q 18.109375 17.390625 22.1875 11.75 
Q 26.265625 6.109375 33.40625 6.109375 
Q 40.53125 6.109375 44.609375 11.75 
Q 48.6875 17.390625 48.6875 27.296875 
z
" id="DejaVuSans-112"/>
      <path d="M 54.890625 54.6875 
L 35.109375 28.078125 
L 55.90625 0 
L 45.3125 0 
L 29.390625 21.484375 
L 13.484375 0 
L 2.875 0 
L 24.125 28.609375 
L 4.6875 54.6875 
L 15.28125 54.6875 
L 29.78125 35.203125 
L 44.28125 54.6875 
z
" id="DejaVuSans-120"/>
      <path d="M 18.3125 70.21875 
L 18.3125 54.6875 
L 36.8125 54.6875 
L 36.8125 47.703125 
L 18.3125 47.703125 
L 18.3125 18.015625 
Q 18.3125 11.328125 20.140625 9.421875 
Q 21.96875 7.515625 27.59375 7.515625 
L 36.8125 7.515625 
L 36.8125 0 
L 27.59375 0 
Q 17.1875 0 13.234375 3.875 
Q 9.28125 7.765625 9.28125 18.015625 
L 9.28125 47.703125 
L 2.6875 47.703125 
L 2.6875 54.6875 
L 9.28125 54.6875 
L 9.28125 70.21875 
z
" id="DejaVuSans-116"/>
     </defs>
     <use xlink:href="#DejaVuSans-101"/>
     <use x="61.523438" xlink:href="#DejaVuSans-115"/>
     <use x="113.623047" xlink:href="#DejaVuSans-99"/>
     <use x="168.603516" xlink:href="#DejaVuSans-97"/>
     <use x="229.882812" xlink:href="#DejaVuSans-112"/>
     <use x="293.359375" xlink:href="#DejaVuSans-101"/>
     <use x="354.882812" xlink:href="#DejaVuSans-32"/>
     <use x="386.669922" xlink:href="#DejaVuSans-101"/>
     <use x="446.443359" xlink:href="#DejaVuSans-120"/>
     <use x="505.623047" xlink:href="#DejaVuSans-112"/>
     <use x="569.099609" xlink:href="#DejaVuSans-101"/>
     <use x="630.623047" xlink:href="#DejaVuSans-99"/>
     <use x="685.603516" xlink:href="#DejaVuSans-116"/>
     <use x="724.8125" xlink:href="#DejaVuSans-101"/>
     <use x="786.335938" xlink:href="#DejaVuSans-100"/>
    </g>
   </g>
   <g id="patch_7">
    <path clip-path="url(#p37dbb99011)" d="M 565.408688 77.270969 
L 581.248688 77.270969 
L 581.248688 61.430969 
L 565.408688 61.430969 
z
" style="fill:none;"/>
   </g>
   <g id="line2d_9">
    <path clip-path="url(#p37dbb99011)" d="M 573.328688 69.350969 
" style="fill:none;stroke:#1f77b4;stroke-linecap:square;stroke-width:1.5;"/>
    <defs>
     <path d="M 0 3.101794 
C 0.822605 3.101794 1.61163 2.77497 2.1933 2.1933 
C 2.77497 1.61163 3.101794 0.822605 3.101794 0 
C 3.101794 -0.822605 2.77497 -1.61163 2.1933 -2.1933 
C 1.61163 -2.77497 0.822605 -3.101794 0 -3.101794 
C -0.822605 -3.101794 -1.61163 -2.77497 -2.1933 -2.1933 
C -2.77497 -1.61163 -3.101794 -0.822605 -3.101794 0 
C -3.101794 0.822605 -2.77497 1.61163 -2.1933 2.1933 
C -1.61163 2.77497 -0.822605 3.101794 0 3.101794 
z
" id="mfb8f7e6ba9" style="stroke:#56b4e9;stroke-width:0.886227;"/>
    </defs>
    <g clip-path="url(#p37dbb99011)">
     <use style="fill:#56b4e9;stroke:#56b4e9;stroke-width:0.886227;" x="573.328688" xlink:href="#mfb8f7e6ba9" y="69.350969"/>
    </g>
   </g>
   <g id="text_12">
    <!-- no -->
    <g transform="translate(584.248688 71.779219)scale(0.088 -0.088)">
     <use xlink:href="#DejaVuSans-110"/>
     <use x="63.378906" xlink:href="#DejaVuSans-111"/>
    </g>
   </g>
   <g id="patch_8">
    <path clip-path="url(#p899d6d44f4)" d="M 565.408688 95.110969 
L 581.248688 95.110969 
L 581.248688 79.270969 
L 565.408688 79.270969 
z
" style="fill:none;"/>
   </g>
   <g id="line2d_10">
    <path clip-path="url(#p899d6d44f4)" d="M 573.328688 87.190969 
" style="fill:none;stroke:#1f77b4;stroke-linecap:square;stroke-width:1.5;"/>
    <defs>
     <path d="M 0 -3.101794 
L -3.101794 3.101794 
L 3.101794 3.101794 
z
" id="m8caaddea30" style="stroke:#009e73;stroke-linejoin:miter;stroke-width:0.886227;"/>
    </defs>
    <g clip-path="url(#p899d6d44f4)">
     <use style="fill:#009e73;stroke:#009e73;stroke-linejoin:miter;stroke-width:0.886227;" x="573.328688" xlink:href="#m8caaddea30" y="87.190969"/>
    </g>
   </g>
   <g id="text_13">
    <!-- yes -->
    <g transform="translate(584.248688 89.619219)scale(0.088 -0.088)">
     <defs>
      <path d="M 32.171875 -5.078125 
Q 28.375 -14.84375 24.75 -17.8125 
Q 21.140625 -20.796875 15.09375 -20.796875 
L 7.90625 -20.796875 
L 7.90625 -13.28125 
L 13.1875 -13.28125 
Q 16.890625 -13.28125 18.9375 -11.515625 
Q 21 -9.765625 23.484375 -3.21875 
L 25.09375 0.875 
L 2.984375 54.6875 
L 12.5 54.6875 
L 29.59375 11.921875 
L 46.6875 54.6875 
L 56.203125 54.6875 
z
" id="DejaVuSans-121"/>
     </defs>
     <use xlink:href="#DejaVuSans-121"/>
     <use x="59.179688" xlink:href="#DejaVuSans-101"/>
     <use x="120.703125" xlink:href="#DejaVuSans-115"/>
    </g>
   </g>
  </g>
  <g id="axes_2">
   <g id="patch_9">
    <path d="M 170.618688 121.292 
L 292.388688 121.292 
L 292.388688 21.5 
L 170.618688 21.5 
z
" style="fill:#ffffff;"/>
   </g>
   <g id="matplotlib.axis_3">
    <g id="xtick_6">
     <g id="line2d_11">
      <path d="M 184.669072 121.292 
" style="fill:none;stroke:#333333;stroke-linecap:square;stroke-width:1.5;"/>
      <g>
       <use style="fill:#333333;stroke:#000000;" x="184.669072" xlink:href="#m217a399ea8" y="121.292"/>
      </g>
     </g>
     <g id="text_14">
      <!-- WT -->
      <g style="fill:#4d4d4d;" transform="translate(187.097322 140.317875)rotate(-90)scale(0.088 -0.088)">
       <use xlink:href="#DejaVuSans-87"/>
       <use x="98.876953" xlink:href="#DejaVuSans-84"/>
      </g>
     </g>
    </g>
    <g id="xtick_7">
     <g id="line2d_12">
      <path d="M 208.08638 121.292 
" style="fill:none;stroke:#333333;stroke-linecap:square;stroke-width:1.5;"/>
      <g>
       <use style="fill:#333333;stroke:#000000;" x="208.08638" xlink:href="#m217a399ea8" y="121.292"/>
      </g>
     </g>
     <g id="text_15">
      <!-- E406W -->
      <g style="fill:#4d4d4d;" transform="translate(210.51463 157.3005)rotate(-90)scale(0.088 -0.088)">
       <use xlink:href="#DejaVuSans-69"/>
       <use x="63.183594" xlink:href="#DejaVuSans-52"/>
       <use x="126.806641" xlink:href="#DejaVuSans-48"/>
       <use x="190.429688" xlink:href="#DejaVuSans-54"/>
       <use x="254.052734" xlink:href="#DejaVuSans-87"/>
      </g>
     </g>
    </g>
    <g id="xtick_8">
     <g id="line2d_13">
      <path d="M 231.503688 121.292 
" style="fill:none;stroke:#333333;stroke-linecap:square;stroke-width:1.5;"/>
      <g>
       <use style="fill:#333333;stroke:#000000;" x="231.503688" xlink:href="#m217a399ea8" y="121.292"/>
      </g>
     </g>
     <g id="text_16">
      <!-- N439K -->
      <g style="fill:#4d4d4d;" transform="translate(233.931938 155.393375)rotate(-90)scale(0.088 -0.088)">
       <use xlink:href="#DejaVuSans-78"/>
       <use x="74.804688" xlink:href="#DejaVuSans-52"/>
       <use x="138.427734" xlink:href="#DejaVuSans-51"/>
       <use x="202.050781" xlink:href="#DejaVuSans-57"/>
       <use x="265.673828" xlink:href="#DejaVuSans-75"/>
      </g>
     </g>
    </g>
    <g id="xtick_9">
     <g id="line2d_14">
      <path d="M 254.920995 121.292 
" style="fill:none;stroke:#333333;stroke-linecap:square;stroke-width:1.5;"/>
      <g>
       <use style="fill:#333333;stroke:#000000;" x="254.920995" xlink:href="#m217a399ea8" y="121.292"/>
      </g>
     </g>
     <g id="text_17">
      <!-- K444Q -->
      <g style="fill:#4d4d4d;" transform="translate(257.349245 155.737125)rotate(-90)scale(0.088 -0.088)">
       <use xlink:href="#DejaVuSans-75"/>
       <use x="65.576172" xlink:href="#DejaVuSans-52"/>
       <use x="129.199219" xlink:href="#DejaVuSans-52"/>
       <use x="192.822266" xlink:href="#DejaVuSans-52"/>
       <use x="256.445312" xlink:href="#DejaVuSans-81"/>
      </g>
     </g>
    </g>
    <g id="xtick_10">
     <g id="line2d_15">
      <path d="M 278.338303 121.292 
" style="fill:none;stroke:#333333;stroke-linecap:square;stroke-width:1.5;"/>
      <g>
       <use style="fill:#333333;stroke:#000000;" x="278.338303" xlink:href="#m217a399ea8" y="121.292"/>
      </g>
     </g>
     <g id="text_18">
      <!-- F486K -->
      <g style="fill:#4d4d4d;" transform="translate(280.766553 153.87125)rotate(-90)scale(0.088 -0.088)">
       <use xlink:href="#DejaVuSans-70"/>
       <use x="57.519531" xlink:href="#DejaVuSans-52"/>
       <use x="121.142578" xlink:href="#DejaVuSans-56"/>
       <use x="184.765625" xlink:href="#DejaVuSans-54"/>
       <use x="248.388672" xlink:href="#DejaVuSans-75"/>
      </g>
     </g>
    </g>
   </g>
   <g id="matplotlib.axis_4">
    <g id="ytick_29"/>
    <g id="ytick_30"/>
    <g id="ytick_31"/>
    <g id="ytick_32"/>
    <g id="ytick_33"/>
    <g id="ytick_34"/>
    <g id="ytick_35"/>
    <g id="ytick_36"/>
    <g id="ytick_37"/>
    <g id="ytick_38"/>
    <g id="ytick_39"/>
    <g id="ytick_40"/>
    <g id="ytick_41"/>
    <g id="ytick_42"/>
    <g id="ytick_43"/>
    <g id="ytick_44"/>
    <g id="ytick_45"/>
    <g id="ytick_46"/>
    <g id="ytick_47"/>
    <g id="ytick_48"/>
    <g id="ytick_49"/>
    <g id="ytick_50"/>
    <g id="ytick_51"/>
    <g id="ytick_52"/>
    <g id="ytick_53"/>
    <g id="ytick_54"/>
    <g id="ytick_55"/>
    <g id="ytick_56"/>
   </g>
   <g id="PathCollection_3">
    <path clip-path="url(#pe4fb34b2bd)" d="M 208.08638 49.930714 
L 204.984586 56.134303 
L 211.188174 56.134303 
z
" style="fill:#009e73;stroke:#009e73;stroke-width:0.886227;"/>
    <path clip-path="url(#pe4fb34b2bd)" d="M 231.503688 62.046376 
L 228.401893 68.249964 
L 234.605482 68.249964 
z
" style="fill:#009e73;stroke:#009e73;stroke-width:0.886227;"/>
    <path clip-path="url(#pe4fb34b2bd)" d="M 254.920995 27.278575 
L 251.819201 33.482163 
L 258.022789 33.482163 
z
" style="fill:#009e73;stroke:#009e73;stroke-width:0.886227;"/>
   </g>
   <g id="PathCollection_4">
    <path clip-path="url(#pe4fb34b2bd)" d="M 184.669072 107.432559 
C 185.491678 107.432559 186.280702 107.105734 186.862372 106.524064 
C 187.444042 105.942394 187.770866 105.15337 187.770866 104.330764 
C 187.770866 103.508159 187.444042 102.719134 186.862372 102.137465 
C 186.280702 101.555795 185.491678 101.22897 184.669072 101.22897 
C 183.846467 101.22897 183.057442 101.555795 182.475772 102.137465 
C 181.894102 102.719134 181.567278 103.508159 181.567278 104.330764 
C 181.567278 105.15337 181.894102 105.942394 182.475772 106.524064 
C 183.057442 107.105734 183.846467 107.432559 184.669072 107.432559 
z
" style="fill:#56b4e9;stroke:#56b4e9;stroke-width:0.886227;"/>
    <path clip-path="url(#pe4fb34b2bd)" d="M 278.338303 116.444858 
C 279.160908 116.444858 279.949933 116.118033 280.531603 115.536363 
C 281.113273 114.954693 281.440097 114.165669 281.440097 113.343064 
C 281.440097 112.520458 281.113273 111.731434 280.531603 111.149764 
C 279.949933 110.568094 279.160908 110.241269 278.338303 110.241269 
C 277.515697 110.241269 276.726673 110.568094 276.145003 111.149764 
C 275.563333 111.731434 275.236509 112.520458 275.236509 113.343064 
C 275.236509 114.165669 275.563333 114.954693 276.145003 115.536363 
C 276.726673 116.118033 277.515697 116.444858 278.338303 116.444858 
z
" style="fill:#56b4e9;stroke:#56b4e9;stroke-width:0.886227;"/>
   </g>
   <g id="LineCollection_4">
    <path clip-path="url(#pe4fb34b2bd)" d="M 170.618688 104.330764 
L 292.388688 104.330764 
" style="fill:none;stroke:#56b4e9;stroke-dasharray:1.32934,2.193412;stroke-dashoffset:0;stroke-width:1.32934;"/>
   </g>
   <g id="patch_10">
    <path d="M 170.618688 21.5 
L 292.388688 21.5 
L 292.388688 7.2 
L 170.618688 7.2 
z
" style="fill:none;stroke:#000000;stroke-linejoin:miter;"/>
   </g>
   <g id="patch_11">
    <path d="M 170.618688 121.292 
L 170.618688 21.5 
" style="fill:none;stroke:#000000;stroke-linecap:square;stroke-linejoin:miter;"/>
   </g>
   <g id="patch_12">
    <path d="M 170.618688 121.292 
L 292.388688 121.292 
" style="fill:none;stroke:#000000;stroke-linecap:square;stroke-linejoin:miter;"/>
   </g>
   <g id="text_19">
    <!-- REGN10987 -->
    <g style="fill:#1a1a1a;" transform="translate(204.967563 16.77825)scale(0.088 -0.088)">
     <defs>
      <path d="M 8.203125 72.90625 
L 55.078125 72.90625 
L 55.078125 68.703125 
L 28.609375 0 
L 18.3125 0 
L 43.21875 64.59375 
L 8.203125 64.59375 
z
" id="DejaVuSans-55"/>
     </defs>
     <use xlink:href="#DejaVuSans-82"/>
     <use x="69.482422" xlink:href="#DejaVuSans-69"/>
     <use x="132.666016" xlink:href="#DejaVuSans-71"/>
     <use x="210.15625" xlink:href="#DejaVuSans-78"/>
     <use x="284.960938" xlink:href="#DejaVuSans-49"/>
     <use x="348.583984" xlink:href="#DejaVuSans-48"/>
     <use x="412.207031" xlink:href="#DejaVuSans-57"/>
     <use x="475.830078" xlink:href="#DejaVuSans-56"/>
     <use x="539.453125" xlink:href="#DejaVuSans-55"/>
    </g>
   </g>
   <g id="LineCollection_5">
    <path clip-path="url(#pe4fb34b2bd)" d="M 170.618688 30.380369 
L 292.388688 30.380369 
" style="fill:none;stroke:#999999;stroke-dasharray:3.27904,1.417963;stroke-dashoffset:0;stroke-opacity:0.698039;stroke-width:0.886227;"/>
   </g>
  </g>
  <g id="axes_3">
   <g id="patch_13">
    <path d="M 297.428688 121.292 
L 419.198688 121.292 
L 419.198688 21.5 
L 297.428688 21.5 
z
" style="fill:#ffffff;"/>
   </g>
   <g id="matplotlib.axis_5">
    <g id="xtick_11">
     <g id="line2d_16">
      <path d="M 311.479072 121.292 
" style="fill:none;stroke:#333333;stroke-linecap:square;stroke-width:1.5;"/>
      <g>
       <use style="fill:#333333;stroke:#000000;" x="311.479072" xlink:href="#m217a399ea8" y="121.292"/>
      </g>
     </g>
     <g id="text_20">
      <!-- WT -->
      <g style="fill:#4d4d4d;" transform="translate(313.907322 140.317875)rotate(-90)scale(0.088 -0.088)">
       <use xlink:href="#DejaVuSans-87"/>
       <use x="98.876953" xlink:href="#DejaVuSans-84"/>
      </g>
     </g>
    </g>
    <g id="xtick_12">
     <g id="line2d_17">
      <path d="M 334.89638 121.292 
" style="fill:none;stroke:#333333;stroke-linecap:square;stroke-width:1.5;"/>
      <g>
       <use style="fill:#333333;stroke:#000000;" x="334.89638" xlink:href="#m217a399ea8" y="121.292"/>
      </g>
     </g>
     <g id="text_21">
      <!-- E406W -->
      <g style="fill:#4d4d4d;" transform="translate(337.32463 157.3005)rotate(-90)scale(0.088 -0.088)">
       <use xlink:href="#DejaVuSans-69"/>
       <use x="63.183594" xlink:href="#DejaVuSans-52"/>
       <use x="126.806641" xlink:href="#DejaVuSans-48"/>
       <use x="190.429688" xlink:href="#DejaVuSans-54"/>
       <use x="254.052734" xlink:href="#DejaVuSans-87"/>
      </g>
     </g>
    </g>
    <g id="xtick_13">
     <g id="line2d_18">
      <path d="M 358.313688 121.292 
" style="fill:none;stroke:#333333;stroke-linecap:square;stroke-width:1.5;"/>
      <g>
       <use style="fill:#333333;stroke:#000000;" x="358.313688" xlink:href="#m217a399ea8" y="121.292"/>
      </g>
     </g>
     <g id="text_22">
      <!-- N439K -->
      <g style="fill:#4d4d4d;" transform="translate(360.741938 155.393375)rotate(-90)scale(0.088 -0.088)">
       <use xlink:href="#DejaVuSans-78"/>
       <use x="74.804688" xlink:href="#DejaVuSans-52"/>
       <use x="138.427734" xlink:href="#DejaVuSans-51"/>
       <use x="202.050781" xlink:href="#DejaVuSans-57"/>
       <use x="265.673828" xlink:href="#DejaVuSans-75"/>
      </g>
     </g>
    </g>
    <g id="xtick_14">
     <g id="line2d_19">
      <path d="M 381.730995 121.292 
" style="fill:none;stroke:#333333;stroke-linecap:square;stroke-width:1.5;"/>
      <g>
       <use style="fill:#333333;stroke:#000000;" x="381.730995" xlink:href="#m217a399ea8" y="121.292"/>
      </g>
     </g>
     <g id="text_23">
      <!-- K444Q -->
      <g style="fill:#4d4d4d;" transform="translate(384.159245 155.737125)rotate(-90)scale(0.088 -0.088)">
       <use xlink:href="#DejaVuSans-75"/>
       <use x="65.576172" xlink:href="#DejaVuSans-52"/>
       <use x="129.199219" xlink:href="#DejaVuSans-52"/>
       <use x="192.822266" xlink:href="#DejaVuSans-52"/>
       <use x="256.445312" xlink:href="#DejaVuSans-81"/>
      </g>
     </g>
    </g>
    <g id="xtick_15">
     <g id="line2d_20">
      <path d="M 405.148303 121.292 
" style="fill:none;stroke:#333333;stroke-linecap:square;stroke-width:1.5;"/>
      <g>
       <use style="fill:#333333;stroke:#000000;" x="405.148303" xlink:href="#m217a399ea8" y="121.292"/>
      </g>
     </g>
     <g id="text_24">
      <!-- F486K -->
      <g style="fill:#4d4d4d;" transform="translate(407.576553 153.87125)rotate(-90)scale(0.088 -0.088)">
       <use xlink:href="#DejaVuSans-70"/>
       <use x="57.519531" xlink:href="#DejaVuSans-52"/>
       <use x="121.142578" xlink:href="#DejaVuSans-56"/>
       <use x="184.765625" xlink:href="#DejaVuSans-54"/>
       <use x="248.388672" xlink:href="#DejaVuSans-75"/>
      </g>
     </g>
    </g>
   </g>
   <g id="matplotlib.axis_6">
    <g id="ytick_57"/>
    <g id="ytick_58"/>
    <g id="ytick_59"/>
    <g id="ytick_60"/>
    <g id="ytick_61"/>
    <g id="ytick_62"/>
    <g id="ytick_63"/>
    <g id="ytick_64"/>
    <g id="ytick_65"/>
    <g id="ytick_66"/>
    <g id="ytick_67"/>
    <g id="ytick_68"/>
    <g id="ytick_69"/>
    <g id="ytick_70"/>
    <g id="ytick_71"/>
    <g id="ytick_72"/>
    <g id="ytick_73"/>
    <g id="ytick_74"/>
    <g id="ytick_75"/>
    <g id="ytick_76"/>
    <g id="ytick_77"/>
    <g id="ytick_78"/>
    <g id="ytick_79"/>
    <g id="ytick_80"/>
    <g id="ytick_81"/>
    <g id="ytick_82"/>
    <g id="ytick_83"/>
    <g id="ytick_84"/>
   </g>
   <g id="PathCollection_5">
    <defs>
     <path d="M 0 -3.101794 
L -3.101794 3.101794 
L 3.101794 3.101794 
z
" id="m6ed8587000" style="stroke:#009e73;stroke-width:0.886227;"/>
    </defs>
    <g clip-path="url(#p431d4fb2c4)">
     <use style="fill:#009e73;stroke:#009e73;stroke-width:0.886227;" x="334.89638" xlink:href="#m6ed8587000" y="54.853445"/>
    </g>
   </g>
   <g id="PathCollection_6">
    <path clip-path="url(#p431d4fb2c4)" d="M 311.479072 107.432559 
C 312.301678 107.432559 313.090702 107.105734 313.672372 106.524064 
C 314.254042 105.942394 314.580866 105.15337 314.580866 104.330764 
C 314.580866 103.508159 314.254042 102.719134 313.672372 102.137465 
C 313.090702 101.555795 312.301678 101.22897 311.479072 101.22897 
C 310.656467 101.22897 309.867442 101.555795 309.285772 102.137465 
C 308.704102 102.719134 308.377278 103.508159 308.377278 104.330764 
C 308.377278 105.15337 308.704102 105.942394 309.285772 106.524064 
C 309.867442 107.105734 310.656467 107.432559 311.479072 107.432559 
z
" style="fill:#56b4e9;stroke:#56b4e9;stroke-width:0.886227;"/>
    <path clip-path="url(#p431d4fb2c4)" d="M 358.313688 101.488577 
C 359.136293 101.488577 359.925317 101.161752 360.506987 100.580083 
C 361.088657 99.998413 361.415482 99.209388 361.415482 98.386783 
C 361.415482 97.564177 361.088657 96.775153 360.506987 96.193483 
C 359.925317 95.611813 359.136293 95.284989 358.313688 95.284989 
C 357.491082 95.284989 356.702058 95.611813 356.120388 96.193483 
C 355.538718 96.775153 355.211893 97.564177 355.211893 98.386783 
C 355.211893 99.209388 355.538718 99.998413 356.120388 100.580083 
C 356.702058 101.161752 357.491082 101.488577 358.313688 101.488577 
z
" style="fill:#56b4e9;stroke:#56b4e9;stroke-width:0.886227;"/>
    <path clip-path="url(#p431d4fb2c4)" d="M 381.730995 100.41137 
C 382.553601 100.41137 383.342625 100.084546 383.924295 99.502876 
C 384.505965 98.921206 384.832789 98.132181 384.832789 97.309576 
C 384.832789 96.486971 384.505965 95.697946 383.924295 95.116276 
C 383.342625 94.534606 382.553601 94.207782 381.730995 94.207782 
C 380.90839 94.207782 380.119365 94.534606 379.537695 95.116276 
C 378.956026 95.697946 378.629201 96.486971 378.629201 97.309576 
C 378.629201 98.132181 378.956026 98.921206 379.537695 99.502876 
C 380.119365 100.084546 380.90839 100.41137 381.730995 100.41137 
z
" style="fill:#56b4e9;stroke:#56b4e9;stroke-width:0.886227;"/>
    <path clip-path="url(#p431d4fb2c4)" d="M 405.148303 102.79162 
C 405.970908 102.79162 406.759933 102.464795 407.341603 101.883125 
C 407.923273 101.301455 408.250097 100.512431 408.250097 99.689825 
C 408.250097 98.86722 407.923273 98.078196 407.341603 97.496526 
C 406.759933 96.914856 405.970908 96.588031 405.148303 96.588031 
C 404.325697 96.588031 403.536673 96.914856 402.955003 97.496526 
C 402.373333 98.078196 402.046509 98.86722 402.046509 99.689825 
C 402.046509 100.512431 402.373333 101.301455 402.955003 101.883125 
C 403.536673 102.464795 404.325697 102.79162 405.148303 102.79162 
z
" style="fill:#56b4e9;stroke:#56b4e9;stroke-width:0.886227;"/>
   </g>
   <g id="LineCollection_6">
    <path clip-path="url(#p431d4fb2c4)" d="M 297.428688 104.330764 
L 419.198688 104.330764 
" style="fill:none;stroke:#56b4e9;stroke-dasharray:1.32934,2.193412;stroke-dashoffset:0;stroke-width:1.32934;"/>
   </g>
   <g id="patch_14">
    <path d="M 297.428688 21.5 
L 419.198688 21.5 
L 419.198688 7.2 
L 297.428688 7.2 
z
" style="fill:none;stroke:#000000;stroke-linejoin:miter;"/>
   </g>
   <g id="patch_15">
    <path d="M 297.428688 121.292 
L 297.428688 21.5 
" style="fill:none;stroke:#000000;stroke-linecap:square;stroke-linejoin:miter;"/>
   </g>
   <g id="patch_16">
    <path d="M 297.428688 121.292 
L 419.198688 121.292 
" style="fill:none;stroke:#000000;stroke-linecap:square;stroke-linejoin:miter;"/>
   </g>
   <g id="text_25">
    <!-- REGN10933 + REGN10987 -->
    <g style="fill:#1a1a1a;" transform="translate(298.757625 16.77825)scale(0.088 -0.088)">
     <defs>
      <path d="M 46 62.703125 
L 46 35.5 
L 73.1875 35.5 
L 73.1875 27.203125 
L 46 27.203125 
L 46 0 
L 37.796875 0 
L 37.796875 27.203125 
L 10.59375 27.203125 
L 10.59375 35.5 
L 37.796875 35.5 
L 37.796875 62.703125 
z
" id="DejaVuSans-43"/>
     </defs>
     <use xlink:href="#DejaVuSans-82"/>
     <use x="69.482422" xlink:href="#DejaVuSans-69"/>
     <use x="132.666016" xlink:href="#DejaVuSans-71"/>
     <use x="210.15625" xlink:href="#DejaVuSans-78"/>
     <use x="284.960938" xlink:href="#DejaVuSans-49"/>
     <use x="348.583984" xlink:href="#DejaVuSans-48"/>
     <use x="412.207031" xlink:href="#DejaVuSans-57"/>
     <use x="475.830078" xlink:href="#DejaVuSans-51"/>
     <use x="539.453125" xlink:href="#DejaVuSans-51"/>
     <use x="603.076172" xlink:href="#DejaVuSans-32"/>
     <use x="634.863281" xlink:href="#DejaVuSans-43"/>
     <use x="718.652344" xlink:href="#DejaVuSans-32"/>
     <use x="750.439453" xlink:href="#DejaVuSans-82"/>
     <use x="819.921875" xlink:href="#DejaVuSans-69"/>
     <use x="883.105469" xlink:href="#DejaVuSans-71"/>
     <use x="960.595703" xlink:href="#DejaVuSans-78"/>
     <use x="1035.400391" xlink:href="#DejaVuSans-49"/>
     <use x="1099.023438" xlink:href="#DejaVuSans-48"/>
     <use x="1162.646484" xlink:href="#DejaVuSans-57"/>
     <use x="1226.269531" xlink:href="#DejaVuSans-56"/>
     <use x="1289.892578" xlink:href="#DejaVuSans-55"/>
    </g>
   </g>
  </g>
  <g id="axes_4">
   <g id="patch_17">
    <path d="M 424.238687 121.292 
L 546.008687 121.292 
L 546.008687 21.5 
L 424.238687 21.5 
z
" style="fill:#ffffff;"/>
   </g>
   <g id="matplotlib.axis_7">
    <g id="xtick_16">
     <g id="line2d_21">
      <path d="M 441.634402 121.292 
" style="fill:none;stroke:#333333;stroke-linecap:square;stroke-width:1.5;"/>
      <g>
       <use style="fill:#333333;stroke:#000000;" x="441.634402" xlink:href="#m217a399ea8" y="121.292"/>
      </g>
     </g>
     <g id="text_26">
      <!-- WT -->
      <g style="fill:#4d4d4d;" transform="translate(444.062652 140.317875)rotate(-90)scale(0.088 -0.088)">
       <use xlink:href="#DejaVuSans-87"/>
       <use x="98.876953" xlink:href="#DejaVuSans-84"/>
      </g>
     </g>
    </g>
    <g id="xtick_17">
     <g id="line2d_22">
      <path d="M 470.627259 121.292 
" style="fill:none;stroke:#333333;stroke-linecap:square;stroke-width:1.5;"/>
      <g>
       <use style="fill:#333333;stroke:#000000;" x="470.627259" xlink:href="#m217a399ea8" y="121.292"/>
      </g>
     </g>
     <g id="text_27">
      <!-- K417N -->
      <g style="fill:#4d4d4d;" transform="translate(473.055509 155.393375)rotate(-90)scale(0.088 -0.088)">
       <use xlink:href="#DejaVuSans-75"/>
       <use x="65.576172" xlink:href="#DejaVuSans-52"/>
       <use x="129.199219" xlink:href="#DejaVuSans-49"/>
       <use x="192.822266" xlink:href="#DejaVuSans-55"/>
       <use x="256.445312" xlink:href="#DejaVuSans-78"/>
      </g>
     </g>
    </g>
    <g id="xtick_18">
     <g id="line2d_23">
      <path d="M 499.620116 121.292 
" style="fill:none;stroke:#333333;stroke-linecap:square;stroke-width:1.5;"/>
      <g>
       <use style="fill:#333333;stroke:#000000;" x="499.620116" xlink:href="#m217a399ea8" y="121.292"/>
      </g>
     </g>
     <g id="text_28">
      <!-- N460T -->
      <g style="fill:#4d4d4d;" transform="translate(502.048366 154.997375)rotate(-90)scale(0.088 -0.088)">
       <use xlink:href="#DejaVuSans-78"/>
       <use x="74.804688" xlink:href="#DejaVuSans-52"/>
       <use x="138.427734" xlink:href="#DejaVuSans-54"/>
       <use x="202.050781" xlink:href="#DejaVuSans-48"/>
       <use x="265.673828" xlink:href="#DejaVuSans-84"/>
      </g>
     </g>
    </g>
    <g id="xtick_19">
     <g id="line2d_24">
      <path d="M 528.612973 121.292 
" style="fill:none;stroke:#333333;stroke-linecap:square;stroke-width:1.5;"/>
      <g>
       <use style="fill:#333333;stroke:#000000;" x="528.612973" xlink:href="#m217a399ea8" y="121.292"/>
      </g>
     </g>
     <g id="text_29">
      <!-- A475V -->
      <g style="fill:#4d4d4d;" transform="translate(531.041223 155.0785)rotate(-90)scale(0.088 -0.088)">
       <defs>
        <path d="M 34.1875 63.1875 
L 20.796875 26.90625 
L 47.609375 26.90625 
z
M 28.609375 72.90625 
L 39.796875 72.90625 
L 67.578125 0 
L 57.328125 0 
L 50.6875 18.703125 
L 17.828125 18.703125 
L 11.1875 0 
L 0.78125 0 
z
" id="DejaVuSans-65"/>
        <path d="M 28.609375 0 
L 0.78125 72.90625 
L 11.078125 72.90625 
L 34.1875 11.53125 
L 57.328125 72.90625 
L 67.578125 72.90625 
L 39.796875 0 
z
" id="DejaVuSans-86"/>
       </defs>
       <use xlink:href="#DejaVuSans-65"/>
       <use x="68.408203" xlink:href="#DejaVuSans-52"/>
       <use x="132.03125" xlink:href="#DejaVuSans-55"/>
       <use x="195.654297" xlink:href="#DejaVuSans-53"/>
       <use x="259.277344" xlink:href="#DejaVuSans-86"/>
      </g>
     </g>
    </g>
    <g id="text_30">
     <!-- virus -->
     <g transform="translate(273.413609 168.151656)scale(0.11 -0.11)">
      <defs>
       <path d="M 2.984375 54.6875 
L 12.5 54.6875 
L 29.59375 8.796875 
L 46.6875 54.6875 
L 56.203125 54.6875 
L 35.6875 0 
L 23.484375 0 
z
" id="DejaVuSans-118"/>
       <path d="M 41.109375 46.296875 
Q 39.59375 47.171875 37.8125 47.578125 
Q 36.03125 48 33.890625 48 
Q 26.265625 48 22.1875 43.046875 
Q 18.109375 38.09375 18.109375 28.8125 
L 18.109375 0 
L 9.078125 0 
L 9.078125 54.6875 
L 18.109375 54.6875 
L 18.109375 46.1875 
Q 20.953125 51.171875 25.484375 53.578125 
Q 30.03125 56 36.53125 56 
Q 37.453125 56 38.578125 55.875 
Q 39.703125 55.765625 41.0625 55.515625 
z
" id="DejaVuSans-114"/>
       <path d="M 8.5 21.578125 
L 8.5 54.6875 
L 17.484375 54.6875 
L 17.484375 21.921875 
Q 17.484375 14.15625 20.5 10.265625 
Q 23.53125 6.390625 29.59375 6.390625 
Q 36.859375 6.390625 41.078125 11.03125 
Q 45.3125 15.671875 45.3125 23.6875 
L 45.3125 54.6875 
L 54.296875 54.6875 
L 54.296875 0 
L 45.3125 0 
L 45.3125 8.40625 
Q 42.046875 3.421875 37.71875 1 
Q 33.40625 -1.421875 27.6875 -1.421875 
Q 18.265625 -1.421875 13.375 4.4375 
Q 8.5 10.296875 8.5 21.578125 
z
M 31.109375 56 
z
" id="DejaVuSans-117"/>
      </defs>
      <use xlink:href="#DejaVuSans-118"/>
      <use x="59.179688" xlink:href="#DejaVuSans-105"/>
      <use x="86.962891" xlink:href="#DejaVuSans-114"/>
      <use x="128.076172" xlink:href="#DejaVuSans-117"/>
      <use x="191.455078" xlink:href="#DejaVuSans-115"/>
     </g>
    </g>
   </g>
   <g id="matplotlib.axis_8">
    <g id="ytick_85"/>
    <g id="ytick_86"/>
    <g id="ytick_87"/>
    <g id="ytick_88"/>
    <g id="ytick_89"/>
    <g id="ytick_90"/>
    <g id="ytick_91"/>
    <g id="ytick_92"/>
    <g id="ytick_93"/>
    <g id="ytick_94"/>
    <g id="ytick_95"/>
    <g id="ytick_96"/>
    <g id="ytick_97"/>
    <g id="ytick_98"/>
    <g id="ytick_99"/>
    <g id="ytick_100"/>
    <g id="ytick_101"/>
    <g id="ytick_102"/>
    <g id="ytick_103"/>
    <g id="ytick_104"/>
    <g id="ytick_105"/>
    <g id="ytick_106"/>
    <g id="ytick_107"/>
    <g id="ytick_108"/>
    <g id="ytick_109"/>
    <g id="ytick_110"/>
    <g id="ytick_111"/>
    <g id="ytick_112"/>
   </g>
   <g id="PathCollection_7">
    <path clip-path="url(#pe7eeecb841)" d="M 470.627259 42.704335 
L 467.525465 48.907924 
L 473.729053 48.907924 
z
" style="fill:#009e73;stroke:#009e73;stroke-width:0.886227;"/>
    <path clip-path="url(#pe7eeecb841)" d="M 499.620116 51.251009 
L 496.518322 57.454598 
L 502.72191 57.454598 
z
" style="fill:#009e73;stroke:#009e73;stroke-width:0.886227;"/>
    <path clip-path="url(#pe7eeecb841)" d="M 528.612973 82.081387 
L 525.511179 88.284975 
L 531.714767 88.284975 
z
" style="fill:#009e73;stroke:#009e73;stroke-width:0.886227;"/>
   </g>
   <g id="PathCollection_8">
    <g clip-path="url(#pe7eeecb841)">
     <use style="fill:#56b4e9;stroke:#56b4e9;stroke-width:0.886227;" x="441.634402" xlink:href="#mfb8f7e6ba9" y="104.330764"/>
    </g>
   </g>
   <g id="LineCollection_7">
    <path clip-path="url(#pe7eeecb841)" d="M 424.238687 104.330764 
L 546.008687 104.330764 
" style="fill:none;stroke:#56b4e9;stroke-dasharray:1.32934,2.193412;stroke-dashoffset:0;stroke-width:1.32934;"/>
   </g>
   <g id="patch_18">
    <path d="M 424.238687 21.5 
L 546.008687 21.5 
L 546.008687 7.2 
L 424.238687 7.2 
z
" style="fill:none;stroke:#000000;stroke-linejoin:miter;"/>
   </g>
   <g id="patch_19">
    <path d="M 424.238687 121.292 
L 424.238687 21.5 
" style="fill:none;stroke:#000000;stroke-linecap:square;stroke-linejoin:miter;"/>
   </g>
   <g id="patch_20">
    <path d="M 424.238687 121.292 
L 546.008687 121.292 
" style="fill:none;stroke:#000000;stroke-linecap:square;stroke-linejoin:miter;"/>
   </g>
   <g id="text_31">
    <!-- LY-CoV016 -->
    <g style="fill:#1a1a1a;" transform="translate(462.329625 16.77825)scale(0.088 -0.088)">
     <defs>
      <path d="M 9.8125 72.90625 
L 19.671875 72.90625 
L 19.671875 8.296875 
L 55.171875 8.296875 
L 55.171875 0 
L 9.8125 0 
z
" id="DejaVuSans-76"/>
      <path d="M -0.203125 72.90625 
L 10.40625 72.90625 
L 30.609375 42.921875 
L 50.6875 72.90625 
L 61.28125 72.90625 
L 35.5 34.71875 
L 35.5 0 
L 25.59375 0 
L 25.59375 34.71875 
z
" id="DejaVuSans-89"/>
      <path d="M 4.890625 31.390625 
L 31.203125 31.390625 
L 31.203125 23.390625 
L 4.890625 23.390625 
z
" id="DejaVuSans-45"/>
     </defs>
     <use xlink:href="#DejaVuSans-76"/>
     <use x="42.462891" xlink:href="#DejaVuSans-89"/>
     <use x="91.671875" xlink:href="#DejaVuSans-45"/>
     <use x="127.755859" xlink:href="#DejaVuSans-67"/>
     <use x="197.580078" xlink:href="#DejaVuSans-111"/>
     <use x="258.761719" xlink:href="#DejaVuSans-86"/>
     <use x="327.169922" xlink:href="#DejaVuSans-48"/>
     <use x="390.792969" xlink:href="#DejaVuSans-49"/>
     <use x="454.416016" xlink:href="#DejaVuSans-54"/>
    </g>
   </g>
   <g id="LineCollection_8">
    <path clip-path="url(#pe7eeecb841)" d="M 424.238687 45.806129 
L 546.008687 45.806129 
" style="fill:none;stroke:#999999;stroke-dasharray:3.27904,1.417963;stroke-dashoffset:0;stroke-opacity:0.698039;stroke-width:0.886227;"/>
   </g>
  </g>
 </g>
 <defs>
  <clipPath id="p330af6d461">
   <rect height="99.792" width="121.77" x="43.808688" y="21.5"/>
  </clipPath>
  <clipPath id="p37dbb99011">
   <path d="M 565.408688 77.270969 
L 565.408688 61.430969 
L 581.248688 61.430969 
L 581.248688 77.270969 
"/>
  </clipPath>
  <clipPath id="p899d6d44f4">
   <path d="M 565.408688 95.110969 
L 565.408688 79.270969 
L 581.248688 79.270969 
L 581.248688 95.110969 
"/>
  </clipPath>
  <clipPath id="pe4fb34b2bd">
   <rect height="99.792" width="121.77" x="170.618688" y="21.5"/>
  </clipPath>
  <clipPath id="p431d4fb2c4">
   <rect height="99.792" width="121.77" x="297.428688" y="21.5"/>
  </clipPath>
  <clipPath id="pe7eeecb841">
   <rect height="99.792" width="121.77" x="424.238687" y="21.5"/>
  </clipPath>
 </defs>
</svg>
