<?xml version="1.0" encoding="utf-8" standalone="no"?>
<!DOCTYPE svg PUBLIC "-//W3C//DTD SVG 1.1//EN"
  "http://www.w3.org/Graphics/SVG/1.1/DTD/svg11.dtd">
<!-- Created with matplotlib (https://matplotlib.org/) -->
<svg height="185.090437pt" version="1.1" viewBox="0 0 677.170187 185.090437" width="677.170187pt" xmlns="http://www.w3.org/2000/svg" xmlns:xlink="http://www.w3.org/1999/xlink">
 <metadata>
  <rdf:RDF xmlns:cc="http://creativecommons.org/ns#" xmlns:dc="http://purl.org/dc/elements/1.1/" xmlns:rdf="http://www.w3.org/1999/02/22-rdf-syntax-ns#">
   <cc:Work>
    <dc:type rdf:resource="http://purl.org/dc/dcmitype/StillImage"/>
    <dc:date>2021-01-12T13:02:17.880680</dc:date>
    <dc:format>image/svg+xml</dc:format>
    <dc:creator>
     <cc:Agent>
      <dc:title>Matplotlib v3.3.2, https://matplotlib.org/</dc:title>
     </cc:Agent>
    </dc:creator>
   </cc:Work>
  </rdf:RDF>
 </metadata>
 <defs>
  <style type="text/css">*{stroke-linecap:butt;stroke-linejoin:round;}</style>
 </defs>
 <g id="figure_1">
  <g id="patch_1">
   <path d="M 0 185.090438 
L 677.170187 185.090438 
L 677.170187 -0 
L 0 -0 
z
" style="fill:#ffffff;stroke:#ffffff;stroke-linejoin:miter;"/>
  </g>
  <g id="axes_1">
   <g id="patch_2">
    <path d="M 42.683938 126.836 
L 164.453938 126.836 
L 164.453938 21.5 
L 42.683938 21.5 
z
" style="fill:#ffffff;"/>
   </g>
   <g id="matplotlib.axis_1">
    <g id="xtick_1">
     <g id="line2d_1">
      <path d="M 56.734322 126.836 
" style="fill:none;stroke:#333333;stroke-width:1.5;"/>
      <defs>
       <path d="M 0 0 
L 0 2.75 
" id="m2adc3fc263" style="stroke:#000000;"/>
      </defs>
      <g>
       <use style="fill:#333333;stroke:#000000;" x="56.734322" xlink:href="#m2adc3fc263" y="126.836"/>
      </g>
     </g>
     <g id="text_1">
      <!-- WT -->
      <g style="fill:#4d4d4d;" transform="translate(59.162572 145.861875)rotate(-90)scale(0.088 -0.088)">
       <defs>
        <path d="M 3.328125 72.90625 
L 13.28125 72.90625 
L 28.609375 11.28125 
L 43.890625 72.90625 
L 54.984375 72.90625 
L 70.3125 11.28125 
L 85.59375 72.90625 
L 95.609375 72.90625 
L 77.296875 0 
L 64.890625 0 
L 49.515625 63.28125 
L 33.984375 0 
L 21.578125 0 
z
" id="DejaVuSans-87"/>
        <path d="M -0.296875 72.90625 
L 61.375 72.90625 
L 61.375 64.59375 
L 35.5 64.59375 
L 35.5 0 
L 25.59375 0 
L 25.59375 64.59375 
L -0.296875 64.59375 
z
" id="DejaVuSans-84"/>
       </defs>
       <use xlink:href="#DejaVuSans-87"/>
       <use x="98.876953" xlink:href="#DejaVuSans-84"/>
      </g>
     </g>
    </g>
    <g id="xtick_2">
     <g id="line2d_2">
      <path d="M 80.15163 126.836 
" style="fill:none;stroke:#333333;stroke-width:1.5;"/>
      <g>
       <use style="fill:#333333;stroke:#000000;" x="80.15163" xlink:href="#m2adc3fc263" y="126.836"/>
      </g>
     </g>
     <g id="text_2">
      <!-- E406W -->
      <g style="fill:#4d4d4d;" transform="translate(82.57988 162.8445)rotate(-90)scale(0.088 -0.088)">
       <defs>
        <path d="M 9.8125 72.90625 
L 55.90625 72.90625 
L 55.90625 64.59375 
L 19.671875 64.59375 
L 19.671875 43.015625 
L 54.390625 43.015625 
L 54.390625 34.71875 
L 19.671875 34.71875 
L 19.671875 8.296875 
L 56.78125 8.296875 
L 56.78125 0 
L 9.8125 0 
z
" id="DejaVuSans-69"/>
        <path d="M 37.796875 64.3125 
L 12.890625 25.390625 
L 37.796875 25.390625 
z
M 35.203125 72.90625 
L 47.609375 72.90625 
L 47.609375 25.390625 
L 58.015625 25.390625 
L 58.015625 17.1875 
L 47.609375 17.1875 
L 47.609375 0 
L 37.796875 0 
L 37.796875 17.1875 
L 4.890625 17.1875 
L 4.890625 26.703125 
z
" id="DejaVuSans-52"/>
        <path d="M 31.78125 66.40625 
Q 24.171875 66.40625 20.328125 58.90625 
Q 16.5 51.421875 16.5 36.375 
Q 16.5 21.390625 20.328125 13.890625 
Q 24.171875 6.390625 31.78125 6.390625 
Q 39.453125 6.390625 43.28125 13.890625 
Q 47.125 21.390625 47.125 36.375 
Q 47.125 51.421875 43.28125 58.90625 
Q 39.453125 66.40625 31.78125 66.40625 
z
M 31.78125 74.21875 
Q 44.046875 74.21875 50.515625 64.515625 
Q 56.984375 54.828125 56.984375 36.375 
Q 56.984375 17.96875 50.515625 8.265625 
Q 44.046875 -1.421875 31.78125 -1.421875 
Q 19.53125 -1.421875 13.0625 8.265625 
Q 6.59375 17.96875 6.59375 36.375 
Q 6.59375 54.828125 13.0625 64.515625 
Q 19.53125 74.21875 31.78125 74.21875 
z
" id="DejaVuSans-48"/>
        <path d="M 33.015625 40.375 
Q 26.375 40.375 22.484375 35.828125 
Q 18.609375 31.296875 18.609375 23.390625 
Q 18.609375 15.53125 22.484375 10.953125 
Q 26.375 6.390625 33.015625 6.390625 
Q 39.65625 6.390625 43.53125 10.953125 
Q 47.40625 15.53125 47.40625 23.390625 
Q 47.40625 31.296875 43.53125 35.828125 
Q 39.65625 40.375 33.015625 40.375 
z
M 52.59375 71.296875 
L 52.59375 62.3125 
Q 48.875 64.0625 45.09375 64.984375 
Q 41.3125 65.921875 37.59375 65.921875 
Q 27.828125 65.921875 22.671875 59.328125 
Q 17.53125 52.734375 16.796875 39.40625 
Q 19.671875 43.65625 24.015625 45.921875 
Q 28.375 48.1875 33.59375 48.1875 
Q 44.578125 48.1875 50.953125 41.515625 
Q 57.328125 34.859375 57.328125 23.390625 
Q 57.328125 12.15625 50.6875 5.359375 
Q 44.046875 -1.421875 33.015625 -1.421875 
Q 20.359375 -1.421875 13.671875 8.265625 
Q 6.984375 17.96875 6.984375 36.375 
Q 6.984375 53.65625 15.1875 63.9375 
Q 23.390625 74.21875 37.203125 74.21875 
Q 40.921875 74.21875 44.703125 73.484375 
Q 48.484375 72.75 52.59375 71.296875 
z
" id="DejaVuSans-54"/>
       </defs>
       <use xlink:href="#DejaVuSans-69"/>
       <use x="63.183594" xlink:href="#DejaVuSans-52"/>
       <use x="126.806641" xlink:href="#DejaVuSans-48"/>
       <use x="190.429688" xlink:href="#DejaVuSans-54"/>
       <use x="254.052734" xlink:href="#DejaVuSans-87"/>
      </g>
     </g>
    </g>
    <g id="xtick_3">
     <g id="line2d_3">
      <path d="M 103.568938 126.836 
" style="fill:none;stroke:#333333;stroke-width:1.5;"/>
      <g>
       <use style="fill:#333333;stroke:#000000;" x="103.568938" xlink:href="#m2adc3fc263" y="126.836"/>
      </g>
     </g>
     <g id="text_3">
      <!-- N439K -->
      <g style="fill:#4d4d4d;" transform="translate(105.997188 160.937375)rotate(-90)scale(0.088 -0.088)">
       <defs>
        <path d="M 9.8125 72.90625 
L 23.09375 72.90625 
L 55.421875 11.921875 
L 55.421875 72.90625 
L 64.984375 72.90625 
L 64.984375 0 
L 51.703125 0 
L 19.390625 60.984375 
L 19.390625 0 
L 9.8125 0 
z
" id="DejaVuSans-78"/>
        <path d="M 40.578125 39.3125 
Q 47.65625 37.796875 51.625 33 
Q 55.609375 28.21875 55.609375 21.1875 
Q 55.609375 10.40625 48.1875 4.484375 
Q 40.765625 -1.421875 27.09375 -1.421875 
Q 22.515625 -1.421875 17.65625 -0.515625 
Q 12.796875 0.390625 7.625 2.203125 
L 7.625 11.71875 
Q 11.71875 9.328125 16.59375 8.109375 
Q 21.484375 6.890625 26.8125 6.890625 
Q 36.078125 6.890625 40.9375 10.546875 
Q 45.796875 14.203125 45.796875 21.1875 
Q 45.796875 27.640625 41.28125 31.265625 
Q 36.765625 34.90625 28.71875 34.90625 
L 20.21875 34.90625 
L 20.21875 43.015625 
L 29.109375 43.015625 
Q 36.375 43.015625 40.234375 45.921875 
Q 44.09375 48.828125 44.09375 54.296875 
Q 44.09375 59.90625 40.109375 62.90625 
Q 36.140625 65.921875 28.71875 65.921875 
Q 24.65625 65.921875 20.015625 65.03125 
Q 15.375 64.15625 9.8125 62.3125 
L 9.8125 71.09375 
Q 15.4375 72.65625 20.34375 73.4375 
Q 25.25 74.21875 29.59375 74.21875 
Q 40.828125 74.21875 47.359375 69.109375 
Q 53.90625 64.015625 53.90625 55.328125 
Q 53.90625 49.265625 50.4375 45.09375 
Q 46.96875 40.921875 40.578125 39.3125 
z
" id="DejaVuSans-51"/>
        <path d="M 10.984375 1.515625 
L 10.984375 10.5 
Q 14.703125 8.734375 18.5 7.8125 
Q 22.3125 6.890625 25.984375 6.890625 
Q 35.75 6.890625 40.890625 13.453125 
Q 46.046875 20.015625 46.78125 33.40625 
Q 43.953125 29.203125 39.59375 26.953125 
Q 35.25 24.703125 29.984375 24.703125 
Q 19.046875 24.703125 12.671875 31.3125 
Q 6.296875 37.9375 6.296875 49.421875 
Q 6.296875 60.640625 12.9375 67.421875 
Q 19.578125 74.21875 30.609375 74.21875 
Q 43.265625 74.21875 49.921875 64.515625 
Q 56.59375 54.828125 56.59375 36.375 
Q 56.59375 19.140625 48.40625 8.859375 
Q 40.234375 -1.421875 26.421875 -1.421875 
Q 22.703125 -1.421875 18.890625 -0.6875 
Q 15.09375 0.046875 10.984375 1.515625 
z
M 30.609375 32.421875 
Q 37.25 32.421875 41.125 36.953125 
Q 45.015625 41.5 45.015625 49.421875 
Q 45.015625 57.28125 41.125 61.84375 
Q 37.25 66.40625 30.609375 66.40625 
Q 23.96875 66.40625 20.09375 61.84375 
Q 16.21875 57.28125 16.21875 49.421875 
Q 16.21875 41.5 20.09375 36.953125 
Q 23.96875 32.421875 30.609375 32.421875 
z
" id="DejaVuSans-57"/>
        <path d="M 9.8125 72.90625 
L 19.671875 72.90625 
L 19.671875 42.09375 
L 52.390625 72.90625 
L 65.09375 72.90625 
L 28.90625 38.921875 
L 67.671875 0 
L 54.6875 0 
L 19.671875 35.109375 
L 19.671875 0 
L 9.8125 0 
z
" id="DejaVuSans-75"/>
       </defs>
       <use xlink:href="#DejaVuSans-78"/>
       <use x="74.804688" xlink:href="#DejaVuSans-52"/>
       <use x="138.427734" xlink:href="#DejaVuSans-51"/>
       <use x="202.050781" xlink:href="#DejaVuSans-57"/>
       <use x="265.673828" xlink:href="#DejaVuSans-75"/>
      </g>
     </g>
    </g>
    <g id="xtick_4">
     <g id="line2d_4">
      <path d="M 126.986245 126.836 
" style="fill:none;stroke:#333333;stroke-width:1.5;"/>
      <g>
       <use style="fill:#333333;stroke:#000000;" x="126.986245" xlink:href="#m2adc3fc263" y="126.836"/>
      </g>
     </g>
     <g id="text_4">
      <!-- K444Q -->
      <g style="fill:#4d4d4d;" transform="translate(129.414495 161.281125)rotate(-90)scale(0.088 -0.088)">
       <defs>
        <path d="M 39.40625 66.21875 
Q 28.65625 66.21875 22.328125 58.203125 
Q 16.015625 50.203125 16.015625 36.375 
Q 16.015625 22.609375 22.328125 14.59375 
Q 28.65625 6.59375 39.40625 6.59375 
Q 50.140625 6.59375 56.421875 14.59375 
Q 62.703125 22.609375 62.703125 36.375 
Q 62.703125 50.203125 56.421875 58.203125 
Q 50.140625 66.21875 39.40625 66.21875 
z
M 53.21875 1.3125 
L 66.21875 -12.890625 
L 54.296875 -12.890625 
L 43.5 -1.21875 
Q 41.890625 -1.3125 41.03125 -1.359375 
Q 40.1875 -1.421875 39.40625 -1.421875 
Q 24.03125 -1.421875 14.8125 8.859375 
Q 5.609375 19.140625 5.609375 36.375 
Q 5.609375 53.65625 14.8125 63.9375 
Q 24.03125 74.21875 39.40625 74.21875 
Q 54.734375 74.21875 63.90625 63.9375 
Q 73.09375 53.65625 73.09375 36.375 
Q 73.09375 23.6875 67.984375 14.640625 
Q 62.890625 5.609375 53.21875 1.3125 
z
" id="DejaVuSans-81"/>
       </defs>
       <use xlink:href="#DejaVuSans-75"/>
       <use x="65.576172" xlink:href="#DejaVuSans-52"/>
       <use x="129.199219" xlink:href="#DejaVuSans-52"/>
       <use x="192.822266" xlink:href="#DejaVuSans-52"/>
       <use x="256.445312" xlink:href="#DejaVuSans-81"/>
      </g>
     </g>
    </g>
    <g id="xtick_5">
     <g id="line2d_5">
      <path d="M 150.403553 126.836 
" style="fill:none;stroke:#333333;stroke-width:1.5;"/>
      <g>
       <use style="fill:#333333;stroke:#000000;" x="150.403553" xlink:href="#m2adc3fc263" y="126.836"/>
      </g>
     </g>
     <g id="text_5">
      <!-- F486K -->
      <g style="fill:#4d4d4d;" transform="translate(152.831803 159.41525)rotate(-90)scale(0.088 -0.088)">
       <defs>
        <path d="M 9.8125 72.90625 
L 51.703125 72.90625 
L 51.703125 64.59375 
L 19.671875 64.59375 
L 19.671875 43.109375 
L 48.578125 43.109375 
L 48.578125 34.8125 
L 19.671875 34.8125 
L 19.671875 0 
L 9.8125 0 
z
" id="DejaVuSans-70"/>
        <path d="M 31.78125 34.625 
Q 24.75 34.625 20.71875 30.859375 
Q 16.703125 27.09375 16.703125 20.515625 
Q 16.703125 13.921875 20.71875 10.15625 
Q 24.75 6.390625 31.78125 6.390625 
Q 38.8125 6.390625 42.859375 10.171875 
Q 46.921875 13.96875 46.921875 20.515625 
Q 46.921875 27.09375 42.890625 30.859375 
Q 38.875 34.625 31.78125 34.625 
z
M 21.921875 38.8125 
Q 15.578125 40.375 12.03125 44.71875 
Q 8.5 49.078125 8.5 55.328125 
Q 8.5 64.0625 14.71875 69.140625 
Q 20.953125 74.21875 31.78125 74.21875 
Q 42.671875 74.21875 48.875 69.140625 
Q 55.078125 64.0625 55.078125 55.328125 
Q 55.078125 49.078125 51.53125 44.71875 
Q 48 40.375 41.703125 38.8125 
Q 48.828125 37.15625 52.796875 32.3125 
Q 56.78125 27.484375 56.78125 20.515625 
Q 56.78125 9.90625 50.3125 4.234375 
Q 43.84375 -1.421875 31.78125 -1.421875 
Q 19.734375 -1.421875 13.25 4.234375 
Q 6.78125 9.90625 6.78125 20.515625 
Q 6.78125 27.484375 10.78125 32.3125 
Q 14.796875 37.15625 21.921875 38.8125 
z
M 18.3125 54.390625 
Q 18.3125 48.734375 21.84375 45.5625 
Q 25.390625 42.390625 31.78125 42.390625 
Q 38.140625 42.390625 41.71875 45.5625 
Q 45.3125 48.734375 45.3125 54.390625 
Q 45.3125 60.0625 41.71875 63.234375 
Q 38.140625 66.40625 31.78125 66.40625 
Q 25.390625 66.40625 21.84375 63.234375 
Q 18.3125 60.0625 18.3125 54.390625 
z
" id="DejaVuSans-56"/>
       </defs>
       <use xlink:href="#DejaVuSans-70"/>
       <use x="57.519531" xlink:href="#DejaVuSans-52"/>
       <use x="121.142578" xlink:href="#DejaVuSans-56"/>
       <use x="184.765625" xlink:href="#DejaVuSans-54"/>
       <use x="248.388672" xlink:href="#DejaVuSans-75"/>
      </g>
     </g>
    </g>
   </g>
   <g id="matplotlib.axis_2">
    <g id="ytick_1">
     <g id="line2d_6">
      <path d="M 42.683938 108.907042 
" style="fill:none;stroke:#333333;stroke-width:1.5;"/>
      <defs>
       <path d="M 0 0 
L -2.75 0 
" id="m31680669c2" style="stroke:#000000;"/>
      </defs>
      <g>
       <use style="fill:#333333;stroke:#000000;" x="42.683938" xlink:href="#m31680669c2" y="108.907042"/>
      </g>
     </g>
     <g id="text_6">
      <!-- $1$ -->
      <g style="fill:#4d4d4d;" transform="translate(32.101938 111.335292)scale(0.088 -0.088)">
       <defs>
        <path d="M 12.40625 8.296875 
L 28.515625 8.296875 
L 28.515625 63.921875 
L 10.984375 60.40625 
L 10.984375 69.390625 
L 28.421875 72.90625 
L 38.28125 72.90625 
L 38.28125 8.296875 
L 54.390625 8.296875 
L 54.390625 0 
L 12.40625 0 
z
" id="DejaVuSans-49"/>
       </defs>
       <use transform="translate(0 0.09375)" xlink:href="#DejaVuSans-49"/>
      </g>
     </g>
    </g>
    <g id="ytick_2">
     <g id="line2d_7">
      <path d="M 42.683938 88.002703 
" style="fill:none;stroke:#333333;stroke-width:1.5;"/>
      <g>
       <use style="fill:#333333;stroke:#000000;" x="42.683938" xlink:href="#m31680669c2" y="88.002703"/>
      </g>
     </g>
     <g id="text_7">
      <!-- $10$ -->
      <g style="fill:#4d4d4d;" transform="translate(26.469938 90.430953)scale(0.088 -0.088)">
       <use transform="translate(0 0.78125)" xlink:href="#DejaVuSans-49"/>
       <use transform="translate(63.623047 0.78125)" xlink:href="#DejaVuSans-48"/>
      </g>
     </g>
    </g>
    <g id="ytick_3">
     <g id="line2d_8">
      <path d="M 42.683938 67.098365 
" style="fill:none;stroke:#333333;stroke-width:1.5;"/>
      <g>
       <use style="fill:#333333;stroke:#000000;" x="42.683938" xlink:href="#m31680669c2" y="67.098365"/>
      </g>
     </g>
     <g id="text_8">
      <!-- $10^2$ -->
      <g style="fill:#4d4d4d;" transform="translate(22.245938 69.526615)scale(0.088 -0.088)">
       <defs>
        <path d="M 19.1875 8.296875 
L 53.609375 8.296875 
L 53.609375 0 
L 7.328125 0 
L 7.328125 8.296875 
Q 12.9375 14.109375 22.625 23.890625 
Q 32.328125 33.6875 34.8125 36.53125 
Q 39.546875 41.84375 41.421875 45.53125 
Q 43.3125 49.21875 43.3125 52.78125 
Q 43.3125 58.59375 39.234375 62.25 
Q 35.15625 65.921875 28.609375 65.921875 
Q 23.96875 65.921875 18.8125 64.3125 
Q 13.671875 62.703125 7.8125 59.421875 
L 7.8125 69.390625 
Q 13.765625 71.78125 18.9375 73 
Q 24.125 74.21875 28.421875 74.21875 
Q 39.75 74.21875 46.484375 68.546875 
Q 53.21875 62.890625 53.21875 53.421875 
Q 53.21875 48.921875 51.53125 44.890625 
Q 49.859375 40.875 45.40625 35.40625 
Q 44.1875 33.984375 37.640625 27.21875 
Q 31.109375 20.453125 19.1875 8.296875 
z
" id="DejaVuSans-50"/>
       </defs>
       <use transform="translate(0 0.765625)" xlink:href="#DejaVuSans-49"/>
       <use transform="translate(63.623047 0.765625)" xlink:href="#DejaVuSans-48"/>
       <use transform="translate(128.203125 39.046875)scale(0.7)" xlink:href="#DejaVuSans-50"/>
      </g>
     </g>
    </g>
    <g id="ytick_4">
     <g id="line2d_9">
      <path d="M 42.683938 46.194026 
" style="fill:none;stroke:#333333;stroke-width:1.5;"/>
      <g>
       <use style="fill:#333333;stroke:#000000;" x="42.683938" xlink:href="#m31680669c2" y="46.194026"/>
      </g>
     </g>
     <g id="text_9">
      <!-- $10^3$ -->
      <g style="fill:#4d4d4d;" transform="translate(22.245938 48.622276)scale(0.088 -0.088)">
       <use transform="translate(0 0.765625)" xlink:href="#DejaVuSans-49"/>
       <use transform="translate(63.623047 0.765625)" xlink:href="#DejaVuSans-48"/>
       <use transform="translate(128.203125 39.046875)scale(0.7)" xlink:href="#DejaVuSans-51"/>
      </g>
     </g>
    </g>
    <g id="ytick_5">
     <g id="line2d_10">
      <path d="M 42.683938 25.289688 
" style="fill:none;stroke:#333333;stroke-width:1.5;"/>
      <g>
       <use style="fill:#333333;stroke:#000000;" x="42.683938" xlink:href="#m31680669c2" y="25.289688"/>
      </g>
     </g>
     <g id="text_10">
      <!-- $10^4$ -->
      <g style="fill:#4d4d4d;" transform="translate(22.245938 27.717938)scale(0.088 -0.088)">
       <use transform="translate(0 0.684375)" xlink:href="#DejaVuSans-49"/>
       <use transform="translate(63.623047 0.684375)" xlink:href="#DejaVuSans-48"/>
       <use transform="translate(128.203125 38.965625)scale(0.7)" xlink:href="#DejaVuSans-52"/>
      </g>
     </g>
    </g>
    <g id="ytick_6"/>
    <g id="ytick_7"/>
    <g id="ytick_8"/>
    <g id="ytick_9"/>
    <g id="ytick_10"/>
    <g id="ytick_11"/>
    <g id="ytick_12"/>
    <g id="ytick_13"/>
    <g id="ytick_14"/>
    <g id="ytick_15"/>
    <g id="ytick_16"/>
    <g id="ytick_17"/>
    <g id="ytick_18"/>
    <g id="ytick_19"/>
    <g id="ytick_20"/>
    <g id="ytick_21"/>
    <g id="ytick_22"/>
    <g id="ytick_23"/>
    <g id="ytick_24"/>
    <g id="ytick_25"/>
    <g id="ytick_26"/>
    <g id="ytick_27"/>
    <g id="ytick_28"/>
    <g id="ytick_29"/>
    <g id="ytick_30"/>
    <g id="ytick_31"/>
    <g id="ytick_32"/>
    <g id="ytick_33"/>
    <g id="ytick_34"/>
    <g id="ytick_35"/>
    <g id="ytick_36"/>
    <g id="ytick_37"/>
    <g id="ytick_38"/>
    <g id="ytick_39"/>
    <g id="ytick_40"/>
    <g id="ytick_41"/>
    <g id="ytick_42"/>
    <g id="ytick_43"/>
    <g id="ytick_44"/>
    <g id="ytick_45"/>
    <g id="text_11">
     <!-- fold change in IC50 -->
     <g transform="translate(15.558281 126.766109)rotate(-90)scale(0.11 -0.11)">
      <defs>
       <path d="M 37.109375 75.984375 
L 37.109375 68.5 
L 28.515625 68.5 
Q 23.6875 68.5 21.796875 66.546875 
Q 19.921875 64.59375 19.921875 59.515625 
L 19.921875 54.6875 
L 34.71875 54.6875 
L 34.71875 47.703125 
L 19.921875 47.703125 
L 19.921875 0 
L 10.890625 0 
L 10.890625 47.703125 
L 2.296875 47.703125 
L 2.296875 54.6875 
L 10.890625 54.6875 
L 10.890625 58.5 
Q 10.890625 67.625 15.140625 71.796875 
Q 19.390625 75.984375 28.609375 75.984375 
z
" id="DejaVuSans-102"/>
       <path d="M 30.609375 48.390625 
Q 23.390625 48.390625 19.1875 42.75 
Q 14.984375 37.109375 14.984375 27.296875 
Q 14.984375 17.484375 19.15625 11.84375 
Q 23.34375 6.203125 30.609375 6.203125 
Q 37.796875 6.203125 41.984375 11.859375 
Q 46.1875 17.53125 46.1875 27.296875 
Q 46.1875 37.015625 41.984375 42.703125 
Q 37.796875 48.390625 30.609375 48.390625 
z
M 30.609375 56 
Q 42.328125 56 49.015625 48.375 
Q 55.71875 40.765625 55.71875 27.296875 
Q 55.71875 13.875 49.015625 6.21875 
Q 42.328125 -1.421875 30.609375 -1.421875 
Q 18.84375 -1.421875 12.171875 6.21875 
Q 5.515625 13.875 5.515625 27.296875 
Q 5.515625 40.765625 12.171875 48.375 
Q 18.84375 56 30.609375 56 
z
" id="DejaVuSans-111"/>
       <path d="M 9.421875 75.984375 
L 18.40625 75.984375 
L 18.40625 0 
L 9.421875 0 
z
" id="DejaVuSans-108"/>
       <path d="M 45.40625 46.390625 
L 45.40625 75.984375 
L 54.390625 75.984375 
L 54.390625 0 
L 45.40625 0 
L 45.40625 8.203125 
Q 42.578125 3.328125 38.25 0.953125 
Q 33.9375 -1.421875 27.875 -1.421875 
Q 17.96875 -1.421875 11.734375 6.484375 
Q 5.515625 14.40625 5.515625 27.296875 
Q 5.515625 40.1875 11.734375 48.09375 
Q 17.96875 56 27.875 56 
Q 33.9375 56 38.25 53.625 
Q 42.578125 51.265625 45.40625 46.390625 
z
M 14.796875 27.296875 
Q 14.796875 17.390625 18.875 11.75 
Q 22.953125 6.109375 30.078125 6.109375 
Q 37.203125 6.109375 41.296875 11.75 
Q 45.40625 17.390625 45.40625 27.296875 
Q 45.40625 37.203125 41.296875 42.84375 
Q 37.203125 48.484375 30.078125 48.484375 
Q 22.953125 48.484375 18.875 42.84375 
Q 14.796875 37.203125 14.796875 27.296875 
z
" id="DejaVuSans-100"/>
       <path id="DejaVuSans-32"/>
       <path d="M 48.78125 52.59375 
L 48.78125 44.1875 
Q 44.96875 46.296875 41.140625 47.34375 
Q 37.3125 48.390625 33.40625 48.390625 
Q 24.65625 48.390625 19.8125 42.84375 
Q 14.984375 37.3125 14.984375 27.296875 
Q 14.984375 17.28125 19.8125 11.734375 
Q 24.65625 6.203125 33.40625 6.203125 
Q 37.3125 6.203125 41.140625 7.25 
Q 44.96875 8.296875 48.78125 10.40625 
L 48.78125 2.09375 
Q 45.015625 0.34375 40.984375 -0.53125 
Q 36.96875 -1.421875 32.421875 -1.421875 
Q 20.0625 -1.421875 12.78125 6.34375 
Q 5.515625 14.109375 5.515625 27.296875 
Q 5.515625 40.671875 12.859375 48.328125 
Q 20.21875 56 33.015625 56 
Q 37.15625 56 41.109375 55.140625 
Q 45.0625 54.296875 48.78125 52.59375 
z
" id="DejaVuSans-99"/>
       <path d="M 54.890625 33.015625 
L 54.890625 0 
L 45.90625 0 
L 45.90625 32.71875 
Q 45.90625 40.484375 42.875 44.328125 
Q 39.84375 48.1875 33.796875 48.1875 
Q 26.515625 48.1875 22.3125 43.546875 
Q 18.109375 38.921875 18.109375 30.90625 
L 18.109375 0 
L 9.078125 0 
L 9.078125 75.984375 
L 18.109375 75.984375 
L 18.109375 46.1875 
Q 21.34375 51.125 25.703125 53.5625 
Q 30.078125 56 35.796875 56 
Q 45.21875 56 50.046875 50.171875 
Q 54.890625 44.34375 54.890625 33.015625 
z
" id="DejaVuSans-104"/>
       <path d="M 34.28125 27.484375 
Q 23.390625 27.484375 19.1875 25 
Q 14.984375 22.515625 14.984375 16.5 
Q 14.984375 11.71875 18.140625 8.90625 
Q 21.296875 6.109375 26.703125 6.109375 
Q 34.1875 6.109375 38.703125 11.40625 
Q 43.21875 16.703125 43.21875 25.484375 
L 43.21875 27.484375 
z
M 52.203125 31.203125 
L 52.203125 0 
L 43.21875 0 
L 43.21875 8.296875 
Q 40.140625 3.328125 35.546875 0.953125 
Q 30.953125 -1.421875 24.3125 -1.421875 
Q 15.921875 -1.421875 10.953125 3.296875 
Q 6 8.015625 6 15.921875 
Q 6 25.140625 12.171875 29.828125 
Q 18.359375 34.515625 30.609375 34.515625 
L 43.21875 34.515625 
L 43.21875 35.40625 
Q 43.21875 41.609375 39.140625 45 
Q 35.0625 48.390625 27.6875 48.390625 
Q 23 48.390625 18.546875 47.265625 
Q 14.109375 46.140625 10.015625 43.890625 
L 10.015625 52.203125 
Q 14.9375 54.109375 19.578125 55.046875 
Q 24.21875 56 28.609375 56 
Q 40.484375 56 46.34375 49.84375 
Q 52.203125 43.703125 52.203125 31.203125 
z
" id="DejaVuSans-97"/>
       <path d="M 54.890625 33.015625 
L 54.890625 0 
L 45.90625 0 
L 45.90625 32.71875 
Q 45.90625 40.484375 42.875 44.328125 
Q 39.84375 48.1875 33.796875 48.1875 
Q 26.515625 48.1875 22.3125 43.546875 
Q 18.109375 38.921875 18.109375 30.90625 
L 18.109375 0 
L 9.078125 0 
L 9.078125 54.6875 
L 18.109375 54.6875 
L 18.109375 46.1875 
Q 21.34375 51.125 25.703125 53.5625 
Q 30.078125 56 35.796875 56 
Q 45.21875 56 50.046875 50.171875 
Q 54.890625 44.34375 54.890625 33.015625 
z
" id="DejaVuSans-110"/>
       <path d="M 45.40625 27.984375 
Q 45.40625 37.75 41.375 43.109375 
Q 37.359375 48.484375 30.078125 48.484375 
Q 22.859375 48.484375 18.828125 43.109375 
Q 14.796875 37.75 14.796875 27.984375 
Q 14.796875 18.265625 18.828125 12.890625 
Q 22.859375 7.515625 30.078125 7.515625 
Q 37.359375 7.515625 41.375 12.890625 
Q 45.40625 18.265625 45.40625 27.984375 
z
M 54.390625 6.78125 
Q 54.390625 -7.171875 48.1875 -13.984375 
Q 42 -20.796875 29.203125 -20.796875 
Q 24.46875 -20.796875 20.265625 -20.09375 
Q 16.0625 -19.390625 12.109375 -17.921875 
L 12.109375 -9.1875 
Q 16.0625 -11.328125 19.921875 -12.34375 
Q 23.78125 -13.375 27.78125 -13.375 
Q 36.625 -13.375 41.015625 -8.765625 
Q 45.40625 -4.15625 45.40625 5.171875 
L 45.40625 9.625 
Q 42.625 4.78125 38.28125 2.390625 
Q 33.9375 0 27.875 0 
Q 17.828125 0 11.671875 7.65625 
Q 5.515625 15.328125 5.515625 27.984375 
Q 5.515625 40.671875 11.671875 48.328125 
Q 17.828125 56 27.875 56 
Q 33.9375 56 38.28125 53.609375 
Q 42.625 51.21875 45.40625 46.390625 
L 45.40625 54.6875 
L 54.390625 54.6875 
z
" id="DejaVuSans-103"/>
       <path d="M 56.203125 29.59375 
L 56.203125 25.203125 
L 14.890625 25.203125 
Q 15.484375 15.921875 20.484375 11.0625 
Q 25.484375 6.203125 34.421875 6.203125 
Q 39.59375 6.203125 44.453125 7.46875 
Q 49.3125 8.734375 54.109375 11.28125 
L 54.109375 2.78125 
Q 49.265625 0.734375 44.1875 -0.34375 
Q 39.109375 -1.421875 33.890625 -1.421875 
Q 20.796875 -1.421875 13.15625 6.1875 
Q 5.515625 13.8125 5.515625 26.8125 
Q 5.515625 40.234375 12.765625 48.109375 
Q 20.015625 56 32.328125 56 
Q 43.359375 56 49.78125 48.890625 
Q 56.203125 41.796875 56.203125 29.59375 
z
M 47.21875 32.234375 
Q 47.125 39.59375 43.09375 43.984375 
Q 39.0625 48.390625 32.421875 48.390625 
Q 24.90625 48.390625 20.390625 44.140625 
Q 15.875 39.890625 15.1875 32.171875 
z
" id="DejaVuSans-101"/>
       <path d="M 9.421875 54.6875 
L 18.40625 54.6875 
L 18.40625 0 
L 9.421875 0 
z
M 9.421875 75.984375 
L 18.40625 75.984375 
L 18.40625 64.59375 
L 9.421875 64.59375 
z
" id="DejaVuSans-105"/>
       <path d="M 9.8125 72.90625 
L 19.671875 72.90625 
L 19.671875 0 
L 9.8125 0 
z
" id="DejaVuSans-73"/>
       <path d="M 64.40625 67.28125 
L 64.40625 56.890625 
Q 59.421875 61.53125 53.78125 63.8125 
Q 48.140625 66.109375 41.796875 66.109375 
Q 29.296875 66.109375 22.65625 58.46875 
Q 16.015625 50.828125 16.015625 36.375 
Q 16.015625 21.96875 22.65625 14.328125 
Q 29.296875 6.6875 41.796875 6.6875 
Q 48.140625 6.6875 53.78125 8.984375 
Q 59.421875 11.28125 64.40625 15.921875 
L 64.40625 5.609375 
Q 59.234375 2.09375 53.4375 0.328125 
Q 47.65625 -1.421875 41.21875 -1.421875 
Q 24.65625 -1.421875 15.125 8.703125 
Q 5.609375 18.84375 5.609375 36.375 
Q 5.609375 53.953125 15.125 64.078125 
Q 24.65625 74.21875 41.21875 74.21875 
Q 47.75 74.21875 53.53125 72.484375 
Q 59.328125 70.75 64.40625 67.28125 
z
" id="DejaVuSans-67"/>
       <path d="M 10.796875 72.90625 
L 49.515625 72.90625 
L 49.515625 64.59375 
L 19.828125 64.59375 
L 19.828125 46.734375 
Q 21.96875 47.46875 24.109375 47.828125 
Q 26.265625 48.1875 28.421875 48.1875 
Q 40.625 48.1875 47.75 41.5 
Q 54.890625 34.8125 54.890625 23.390625 
Q 54.890625 11.625 47.5625 5.09375 
Q 40.234375 -1.421875 26.90625 -1.421875 
Q 22.3125 -1.421875 17.546875 -0.640625 
Q 12.796875 0.140625 7.71875 1.703125 
L 7.71875 11.625 
Q 12.109375 9.234375 16.796875 8.0625 
Q 21.484375 6.890625 26.703125 6.890625 
Q 35.15625 6.890625 40.078125 11.328125 
Q 45.015625 15.765625 45.015625 23.390625 
Q 45.015625 31 40.078125 35.4375 
Q 35.15625 39.890625 26.703125 39.890625 
Q 22.75 39.890625 18.8125 39.015625 
Q 14.890625 38.140625 10.796875 36.28125 
z
" id="DejaVuSans-53"/>
      </defs>
      <use xlink:href="#DejaVuSans-102"/>
      <use x="35.205078" xlink:href="#DejaVuSans-111"/>
      <use x="96.386719" xlink:href="#DejaVuSans-108"/>
      <use x="124.169922" xlink:href="#DejaVuSans-100"/>
      <use x="187.646484" xlink:href="#DejaVuSans-32"/>
      <use x="219.433594" xlink:href="#DejaVuSans-99"/>
      <use x="274.414062" xlink:href="#DejaVuSans-104"/>
      <use x="337.792969" xlink:href="#DejaVuSans-97"/>
      <use x="399.072266" xlink:href="#DejaVuSans-110"/>
      <use x="462.451172" xlink:href="#DejaVuSans-103"/>
      <use x="525.927734" xlink:href="#DejaVuSans-101"/>
      <use x="587.451172" xlink:href="#DejaVuSans-32"/>
      <use x="619.238281" xlink:href="#DejaVuSans-105"/>
      <use x="647.021484" xlink:href="#DejaVuSans-110"/>
      <use x="710.400391" xlink:href="#DejaVuSans-32"/>
      <use x="742.1875" xlink:href="#DejaVuSans-73"/>
      <use x="771.679688" xlink:href="#DejaVuSans-67"/>
      <use x="841.503906" xlink:href="#DejaVuSans-53"/>
      <use x="905.126953" xlink:href="#DejaVuSans-48"/>
     </g>
    </g>
   </g>
   <g id="PathCollection_1">
    <path clip-path="url(#pcda29c4e36)" d="M 124.219712 113.345945 
L 121.561031 118.663307 
L 126.878392 118.663307 
z
" style="fill:#56b4e9;fill-opacity:0.6;stroke:#56b4e9;stroke-opacity:0.6;stroke-width:0.886227;"/>
    <path clip-path="url(#pcda29c4e36)" d="M 148.526934 44.125751 
L 145.868253 49.443113 
L 151.185614 49.443113 
z
" style="fill:#009e73;fill-opacity:0.6;stroke:#009e73;stroke-opacity:0.6;stroke-width:0.886227;"/>
    <path clip-path="url(#pcda29c4e36)" d="M 148.219442 38.218746 
L 145.560761 43.536108 
L 150.878123 43.536108 
z
" style="fill:#009e73;fill-opacity:0.6;stroke:#009e73;stroke-opacity:0.6;stroke-width:0.886227;"/>
   </g>
   <g id="PathCollection_2">
    <path clip-path="url(#pcda29c4e36)" d="M 56.134791 111.565723 
C 56.839882 111.565723 57.516188 111.285587 58.014762 110.787013 
C 58.513337 110.288439 58.793472 109.612132 58.793472 108.907042 
C 58.793472 108.201952 58.513337 107.525645 58.014762 107.027071 
C 57.516188 106.528497 56.839882 106.248361 56.134791 106.248361 
C 55.429701 106.248361 54.753394 106.528497 54.25482 107.027071 
C 53.756246 107.525645 53.476111 108.201952 53.476111 108.907042 
C 53.476111 109.612132 53.756246 110.288439 54.25482 110.787013 
C 54.753394 111.285587 55.429701 111.565723 56.134791 111.565723 
z
" style="fill:#56b4e9;fill-opacity:0.6;stroke:#56b4e9;stroke-opacity:0.6;stroke-width:0.886227;"/>
    <path clip-path="url(#pcda29c4e36)" d="M 52.29371 111.565723 
C 52.9988 111.565723 53.675107 111.285587 54.173681 110.787013 
C 54.672255 110.288439 54.95239 109.612132 54.95239 108.907042 
C 54.95239 108.201952 54.672255 107.525645 54.173681 107.027071 
C 53.675107 106.528497 52.9988 106.248361 52.29371 106.248361 
C 51.588619 106.248361 50.912313 106.528497 50.413738 107.027071 
C 49.915164 107.525645 49.635029 108.201952 49.635029 108.907042 
C 49.635029 109.612132 49.915164 110.288439 50.413738 110.787013 
C 50.912313 111.285587 51.588619 111.565723 52.29371 111.565723 
z
" style="fill:#56b4e9;fill-opacity:0.6;stroke:#56b4e9;stroke-opacity:0.6;stroke-width:0.886227;"/>
    <path clip-path="url(#pcda29c4e36)" d="M 80.616814 71.29891 
C 81.321905 71.29891 81.998211 71.018775 82.496786 70.520201 
C 82.99536 70.021626 83.275495 69.34532 83.275495 68.640229 
C 83.275495 67.935139 82.99536 67.258832 82.496786 66.760258 
C 81.998211 66.261684 81.321905 65.981549 80.616814 65.981549 
C 79.911724 65.981549 79.235417 66.261684 78.736843 66.760258 
C 78.238269 67.258832 77.958134 67.935139 77.958134 68.640229 
C 77.958134 69.34532 78.238269 70.021626 78.736843 70.520201 
C 79.235417 71.018775 79.911724 71.29891 80.616814 71.29891 
z
" style="fill:#009e73;fill-opacity:0.6;stroke:#009e73;stroke-opacity:0.6;stroke-width:0.886227;"/>
    <path clip-path="url(#pcda29c4e36)" d="M 79.5458 59.453196 
C 80.25089 59.453196 80.927197 59.173061 81.425771 58.674487 
C 81.924345 58.175913 82.20448 57.499606 82.20448 56.794516 
C 82.20448 56.089425 81.924345 55.413119 81.425771 54.914544 
C 80.927197 54.41597 80.25089 54.135835 79.5458 54.135835 
C 78.840709 54.135835 78.164403 54.41597 77.665828 54.914544 
C 77.167254 55.413119 76.887119 56.089425 76.887119 56.794516 
C 76.887119 57.499606 77.167254 58.175913 77.665828 58.674487 
C 78.164403 59.173061 78.840709 59.453196 79.5458 59.453196 
z
" style="fill:#009e73;fill-opacity:0.6;stroke:#009e73;stroke-opacity:0.6;stroke-width:0.886227;"/>
    <path clip-path="url(#pcda29c4e36)" d="M 102.823029 113.351595 
C 103.528119 113.351595 104.204426 113.07146 104.703 112.572886 
C 105.201574 112.074312 105.48171 111.398005 105.48171 110.692915 
C 105.48171 109.987824 105.201574 109.311518 104.703 108.812943 
C 104.204426 108.314369 103.528119 108.034234 102.823029 108.034234 
C 102.117938 108.034234 101.441632 108.314369 100.943058 108.812943 
C 100.444483 109.311518 100.164348 109.987824 100.164348 110.692915 
C 100.164348 111.398005 100.444483 112.074312 100.943058 112.572886 
C 101.441632 113.07146 102.117938 113.351595 102.823029 113.351595 
z
" style="fill:#56b4e9;fill-opacity:0.6;stroke:#56b4e9;stroke-opacity:0.6;stroke-width:0.886227;"/>
    <path clip-path="url(#pcda29c4e36)" d="M 101.979697 112.895533 
C 102.684787 112.895533 103.361094 112.615398 103.859668 112.116824 
C 104.358242 111.618249 104.638378 110.941943 104.638378 110.236852 
C 104.638378 109.531762 104.358242 108.855455 103.859668 108.356881 
C 103.361094 107.858307 102.684787 107.578172 101.979697 107.578172 
C 101.274606 107.578172 100.5983 107.858307 100.099726 108.356881 
C 99.601151 108.855455 99.321016 109.531762 99.321016 110.236852 
C 99.321016 110.941943 99.601151 111.618249 100.099726 112.116824 
C 100.5983 112.615398 101.274606 112.895533 101.979697 112.895533 
z
" style="fill:#56b4e9;fill-opacity:0.6;stroke:#56b4e9;stroke-opacity:0.6;stroke-width:0.886227;"/>
    <path clip-path="url(#pcda29c4e36)" d="M 128.103447 114.509324 
C 128.808538 114.509324 129.484844 114.229188 129.983418 113.730614 
C 130.481993 113.23204 130.762128 112.555733 130.762128 111.850643 
C 130.762128 111.145553 130.481993 110.469246 129.983418 109.970672 
C 129.484844 109.472098 128.808538 109.191962 128.103447 109.191962 
C 127.398357 109.191962 126.72205 109.472098 126.223476 109.970672 
C 125.724902 110.469246 125.444766 111.145553 125.444766 111.850643 
C 125.444766 112.555733 125.724902 113.23204 126.223476 113.730614 
C 126.72205 114.229188 127.398357 114.509324 128.103447 114.509324 
z
" style="fill:#56b4e9;fill-opacity:0.6;stroke:#56b4e9;stroke-opacity:0.6;stroke-width:0.886227;"/>
   </g>
   <g id="LineCollection_1">
    <path clip-path="url(#pcda29c4e36)" d="M 42.683938 108.907042 
L 164.453938 108.907042 
" style="fill:none;stroke:#56b4e9;stroke-dasharray:1.32934,2.193412;stroke-dashoffset:0;stroke-width:1.32934;"/>
   </g>
   <g id="patch_3">
    <path d="M 42.683938 21.5 
L 164.453938 21.5 
L 164.453938 7.2 
L 42.683938 7.2 
z
" style="fill:none;stroke:#000000;stroke-linejoin:miter;"/>
   </g>
   <g id="patch_4">
    <path d="M 42.683938 126.836 
L 42.683938 21.5 
" style="fill:none;stroke:#000000;stroke-linecap:square;stroke-linejoin:miter;"/>
   </g>
   <g id="patch_5">
    <path d="M 42.683938 126.836 
L 164.453938 126.836 
" style="fill:none;stroke:#000000;stroke-linecap:square;stroke-linejoin:miter;"/>
   </g>
   <g id="text_12">
    <!-- REGN10933 -->
    <g style="fill:#1a1a1a;" transform="translate(77.032813 16.77825)scale(0.088 -0.088)">
     <defs>
      <path d="M 44.390625 34.1875 
Q 47.5625 33.109375 50.5625 29.59375 
Q 53.5625 26.078125 56.59375 19.921875 
L 66.609375 0 
L 56 0 
L 46.6875 18.703125 
Q 43.0625 26.03125 39.671875 28.421875 
Q 36.28125 30.8125 30.421875 30.8125 
L 19.671875 30.8125 
L 19.671875 0 
L 9.8125 0 
L 9.8125 72.90625 
L 32.078125 72.90625 
Q 44.578125 72.90625 50.734375 67.671875 
Q 56.890625 62.453125 56.890625 51.90625 
Q 56.890625 45.015625 53.6875 40.46875 
Q 50.484375 35.9375 44.390625 34.1875 
z
M 19.671875 64.796875 
L 19.671875 38.921875 
L 32.078125 38.921875 
Q 39.203125 38.921875 42.84375 42.21875 
Q 46.484375 45.515625 46.484375 51.90625 
Q 46.484375 58.296875 42.84375 61.546875 
Q 39.203125 64.796875 32.078125 64.796875 
z
" id="DejaVuSans-82"/>
      <path d="M 59.515625 10.40625 
L 59.515625 29.984375 
L 43.40625 29.984375 
L 43.40625 38.09375 
L 69.28125 38.09375 
L 69.28125 6.78125 
Q 63.578125 2.734375 56.6875 0.65625 
Q 49.8125 -1.421875 42 -1.421875 
Q 24.90625 -1.421875 15.25 8.5625 
Q 5.609375 18.5625 5.609375 36.375 
Q 5.609375 54.25 15.25 64.234375 
Q 24.90625 74.21875 42 74.21875 
Q 49.125 74.21875 55.546875 72.453125 
Q 61.96875 70.703125 67.390625 67.28125 
L 67.390625 56.78125 
Q 61.921875 61.421875 55.765625 63.765625 
Q 49.609375 66.109375 42.828125 66.109375 
Q 29.4375 66.109375 22.71875 58.640625 
Q 16.015625 51.171875 16.015625 36.375 
Q 16.015625 21.625 22.71875 14.15625 
Q 29.4375 6.6875 42.828125 6.6875 
Q 48.046875 6.6875 52.140625 7.59375 
Q 56.25 8.5 59.515625 10.40625 
z
" id="DejaVuSans-71"/>
     </defs>
     <use xlink:href="#DejaVuSans-82"/>
     <use x="69.482422" xlink:href="#DejaVuSans-69"/>
     <use x="132.666016" xlink:href="#DejaVuSans-71"/>
     <use x="210.15625" xlink:href="#DejaVuSans-78"/>
     <use x="284.960938" xlink:href="#DejaVuSans-49"/>
     <use x="348.583984" xlink:href="#DejaVuSans-48"/>
     <use x="412.207031" xlink:href="#DejaVuSans-57"/>
     <use x="475.830078" xlink:href="#DejaVuSans-51"/>
     <use x="539.453125" xlink:href="#DejaVuSans-51"/>
    </g>
   </g>
   <g id="patch_6">
    <path d="M 552.083937 139.409937 
L 669.970187 139.409937 
L 669.970187 7.558062 
L 552.083937 7.558062 
z
" style="fill:#ffffff;"/>
   </g>
   <g id="text_13">
    <!-- escape expected -->
    <g transform="translate(564.283937 31.151656)scale(0.11 -0.11)">
     <defs>
      <path d="M 44.28125 53.078125 
L 44.28125 44.578125 
Q 40.484375 46.53125 36.375 47.5 
Q 32.28125 48.484375 27.875 48.484375 
Q 21.1875 48.484375 17.84375 46.4375 
Q 14.5 44.390625 14.5 40.28125 
Q 14.5 37.15625 16.890625 35.375 
Q 19.28125 33.59375 26.515625 31.984375 
L 29.59375 31.296875 
Q 39.15625 29.25 43.1875 25.515625 
Q 47.21875 21.78125 47.21875 15.09375 
Q 47.21875 7.46875 41.1875 3.015625 
Q 35.15625 -1.421875 24.609375 -1.421875 
Q 20.21875 -1.421875 15.453125 -0.5625 
Q 10.6875 0.296875 5.421875 2 
L 5.421875 11.28125 
Q 10.40625 8.6875 15.234375 7.390625 
Q 20.0625 6.109375 24.8125 6.109375 
Q 31.15625 6.109375 34.5625 8.28125 
Q 37.984375 10.453125 37.984375 14.40625 
Q 37.984375 18.0625 35.515625 20.015625 
Q 33.0625 21.96875 24.703125 23.78125 
L 21.578125 24.515625 
Q 13.234375 26.265625 9.515625 29.90625 
Q 5.8125 33.546875 5.8125 39.890625 
Q 5.8125 47.609375 11.28125 51.796875 
Q 16.75 56 26.8125 56 
Q 31.78125 56 36.171875 55.265625 
Q 40.578125 54.546875 44.28125 53.078125 
z
" id="DejaVuSans-115"/>
      <path d="M 18.109375 8.203125 
L 18.109375 -20.796875 
L 9.078125 -20.796875 
L 9.078125 54.6875 
L 18.109375 54.6875 
L 18.109375 46.390625 
Q 20.953125 51.265625 25.265625 53.625 
Q 29.59375 56 35.59375 56 
Q 45.5625 56 51.78125 48.09375 
Q 58.015625 40.1875 58.015625 27.296875 
Q 58.015625 14.40625 51.78125 6.484375 
Q 45.5625 -1.421875 35.59375 -1.421875 
Q 29.59375 -1.421875 25.265625 0.953125 
Q 20.953125 3.328125 18.109375 8.203125 
z
M 48.6875 27.296875 
Q 48.6875 37.203125 44.609375 42.84375 
Q 40.53125 48.484375 33.40625 48.484375 
Q 26.265625 48.484375 22.1875 42.84375 
Q 18.109375 37.203125 18.109375 27.296875 
Q 18.109375 17.390625 22.1875 11.75 
Q 26.265625 6.109375 33.40625 6.109375 
Q 40.53125 6.109375 44.609375 11.75 
Q 48.6875 17.390625 48.6875 27.296875 
z
" id="DejaVuSans-112"/>
      <path d="M 54.890625 54.6875 
L 35.109375 28.078125 
L 55.90625 0 
L 45.3125 0 
L 29.390625 21.484375 
L 13.484375 0 
L 2.875 0 
L 24.125 28.609375 
L 4.6875 54.6875 
L 15.28125 54.6875 
L 29.78125 35.203125 
L 44.28125 54.6875 
z
" id="DejaVuSans-120"/>
      <path d="M 18.3125 70.21875 
L 18.3125 54.6875 
L 36.8125 54.6875 
L 36.8125 47.703125 
L 18.3125 47.703125 
L 18.3125 18.015625 
Q 18.3125 11.328125 20.140625 9.421875 
Q 21.96875 7.515625 27.59375 7.515625 
L 36.8125 7.515625 
L 36.8125 0 
L 27.59375 0 
Q 17.1875 0 13.234375 3.875 
Q 9.28125 7.765625 9.28125 18.015625 
L 9.28125 47.703125 
L 2.6875 47.703125 
L 2.6875 54.6875 
L 9.28125 54.6875 
L 9.28125 70.21875 
z
" id="DejaVuSans-116"/>
     </defs>
     <use xlink:href="#DejaVuSans-101"/>
     <use x="61.523438" xlink:href="#DejaVuSans-115"/>
     <use x="113.623047" xlink:href="#DejaVuSans-99"/>
     <use x="168.603516" xlink:href="#DejaVuSans-97"/>
     <use x="229.882812" xlink:href="#DejaVuSans-112"/>
     <use x="293.359375" xlink:href="#DejaVuSans-101"/>
     <use x="354.882812" xlink:href="#DejaVuSans-32"/>
     <use x="386.669922" xlink:href="#DejaVuSans-101"/>
     <use x="446.443359" xlink:href="#DejaVuSans-120"/>
     <use x="505.623047" xlink:href="#DejaVuSans-112"/>
     <use x="569.099609" xlink:href="#DejaVuSans-101"/>
     <use x="630.623047" xlink:href="#DejaVuSans-99"/>
     <use x="685.603516" xlink:href="#DejaVuSans-116"/>
     <use x="724.8125" xlink:href="#DejaVuSans-101"/>
     <use x="786.335938" xlink:href="#DejaVuSans-100"/>
    </g>
   </g>
   <g id="patch_7">
    <path clip-path="url(#pf8a2ac0110)" d="M 564.283937 50.644 
L 580.123938 50.644 
L 580.123938 34.804 
L 564.283937 34.804 
z
" style="fill:none;"/>
   </g>
   <g id="line2d_11">
    <path clip-path="url(#pf8a2ac0110)" d="M 572.203937 42.724 
" style="fill:none;stroke:#1f77b4;stroke-linecap:square;stroke-opacity:0.6;stroke-width:1.5;"/>
    <defs>
     <path d="M 0 2.658681 
C 0.70509 2.658681 1.381397 2.378545 1.879971 1.879971 
C 2.378545 1.381397 2.658681 0.70509 2.658681 0 
C 2.658681 -0.70509 2.378545 -1.381397 1.879971 -1.879971 
C 1.381397 -2.378545 0.70509 -2.658681 0 -2.658681 
C -0.70509 -2.658681 -1.381397 -2.378545 -1.879971 -1.879971 
C -2.378545 -1.381397 -2.658681 -0.70509 -2.658681 0 
C -2.658681 0.70509 -2.378545 1.381397 -1.879971 1.879971 
C -1.381397 2.378545 -0.70509 2.658681 0 2.658681 
z
" id="mcde4d6d6ba" style="stroke:#56b4e9;stroke-opacity:0.6;stroke-width:0.886227;"/>
    </defs>
    <g clip-path="url(#pf8a2ac0110)">
     <use style="fill:#56b4e9;fill-opacity:0.6;stroke:#56b4e9;stroke-opacity:0.6;stroke-width:0.886227;" x="572.203937" xlink:href="#mcde4d6d6ba" y="42.724"/>
    </g>
   </g>
   <g id="text_14">
    <!-- no -->
    <g transform="translate(583.123938 45.15225)scale(0.088 -0.088)">
     <use xlink:href="#DejaVuSans-110"/>
     <use x="63.378906" xlink:href="#DejaVuSans-111"/>
    </g>
   </g>
   <g id="patch_8">
    <path clip-path="url(#p63ebb77273)" d="M 564.283937 68.484 
L 580.123938 68.484 
L 580.123938 52.644 
L 564.283937 52.644 
z
" style="fill:none;"/>
   </g>
   <g id="line2d_12">
    <path clip-path="url(#p63ebb77273)" d="M 572.203937 60.564 
" style="fill:none;stroke:#1f77b4;stroke-linecap:square;stroke-opacity:0.6;stroke-width:1.5;"/>
    <defs>
     <path d="M 0 2.658681 
C 0.70509 2.658681 1.381397 2.378545 1.879971 1.879971 
C 2.378545 1.381397 2.658681 0.70509 2.658681 0 
C 2.658681 -0.70509 2.378545 -1.381397 1.879971 -1.879971 
C 1.381397 -2.378545 0.70509 -2.658681 0 -2.658681 
C -0.70509 -2.658681 -1.381397 -2.378545 -1.879971 -1.879971 
C -2.378545 -1.381397 -2.658681 -0.70509 -2.658681 0 
C -2.658681 0.70509 -2.378545 1.381397 -1.879971 1.879971 
C -1.381397 2.378545 -0.70509 2.658681 0 2.658681 
z
" id="m5afc429eae" style="stroke:#009e73;stroke-opacity:0.6;stroke-width:0.886227;"/>
    </defs>
    <g clip-path="url(#p63ebb77273)">
     <use style="fill:#009e73;fill-opacity:0.6;stroke:#009e73;stroke-opacity:0.6;stroke-width:0.886227;" x="572.203937" xlink:href="#m5afc429eae" y="60.564"/>
    </g>
   </g>
   <g id="text_15">
    <!-- yes -->
    <g transform="translate(583.123938 62.99225)scale(0.088 -0.088)">
     <defs>
      <path d="M 32.171875 -5.078125 
Q 28.375 -14.84375 24.75 -17.8125 
Q 21.140625 -20.796875 15.09375 -20.796875 
L 7.90625 -20.796875 
L 7.90625 -13.28125 
L 13.1875 -13.28125 
Q 16.890625 -13.28125 18.9375 -11.515625 
Q 21 -9.765625 23.484375 -3.21875 
L 25.09375 0.875 
L 2.984375 54.6875 
L 12.5 54.6875 
L 29.59375 11.921875 
L 46.6875 54.6875 
L 56.203125 54.6875 
z
" id="DejaVuSans-121"/>
     </defs>
     <use xlink:href="#DejaVuSans-121"/>
     <use x="59.179688" xlink:href="#DejaVuSans-101"/>
     <use x="120.703125" xlink:href="#DejaVuSans-115"/>
    </g>
   </g>
   <g id="text_16">
    <!-- censored -->
    <g transform="translate(564.283937 89.877594)scale(0.11 -0.11)">
     <defs>
      <path d="M 41.109375 46.296875 
Q 39.59375 47.171875 37.8125 47.578125 
Q 36.03125 48 33.890625 48 
Q 26.265625 48 22.1875 43.046875 
Q 18.109375 38.09375 18.109375 28.8125 
L 18.109375 0 
L 9.078125 0 
L 9.078125 54.6875 
L 18.109375 54.6875 
L 18.109375 46.1875 
Q 20.953125 51.171875 25.484375 53.578125 
Q 30.03125 56 36.53125 56 
Q 37.453125 56 38.578125 55.875 
Q 39.703125 55.765625 41.0625 55.515625 
z
" id="DejaVuSans-114"/>
     </defs>
     <use xlink:href="#DejaVuSans-99"/>
     <use x="54.980469" xlink:href="#DejaVuSans-101"/>
     <use x="116.503906" xlink:href="#DejaVuSans-110"/>
     <use x="179.882812" xlink:href="#DejaVuSans-115"/>
     <use x="231.982422" xlink:href="#DejaVuSans-111"/>
     <use x="293.164062" xlink:href="#DejaVuSans-114"/>
     <use x="332.027344" xlink:href="#DejaVuSans-101"/>
     <use x="393.550781" xlink:href="#DejaVuSans-100"/>
    </g>
   </g>
   <g id="patch_9">
    <path clip-path="url(#pc0788677e0)" d="M 564.283937 109.369937 
L 580.123938 109.369937 
L 580.123938 93.529937 
L 564.283937 93.529937 
z
" style="fill:none;"/>
   </g>
   <g id="line2d_13">
    <path clip-path="url(#pc0788677e0)" d="M 572.203937 101.449937 
" style="fill:none;stroke:#1f77b4;stroke-linecap:square;stroke-opacity:0.6;stroke-width:1.5;"/>
    <defs>
     <path d="M 0 2.658681 
C 0.70509 2.658681 1.381397 2.378545 1.879971 1.879971 
C 2.378545 1.381397 2.658681 0.70509 2.658681 0 
C 2.658681 -0.70509 2.378545 -1.381397 1.879971 -1.879971 
C 1.381397 -2.378545 0.70509 -2.658681 0 -2.658681 
C -0.70509 -2.658681 -1.381397 -2.378545 -1.879971 -1.879971 
C -2.378545 -1.381397 -2.658681 -0.70509 -2.658681 0 
C -2.658681 0.70509 -2.378545 1.381397 -1.879971 1.879971 
C -1.381397 2.378545 -0.70509 2.658681 0 2.658681 
z
" id="mc1b52981fa" style="stroke:#000000;stroke-opacity:0.6;stroke-width:0.886227;"/>
    </defs>
    <g clip-path="url(#pc0788677e0)">
     <use style="fill-opacity:0.6;stroke:#000000;stroke-opacity:0.6;stroke-width:0.886227;" x="572.203937" xlink:href="#mc1b52981fa" y="101.449937"/>
    </g>
   </g>
   <g id="text_17">
    <!-- no -->
    <g transform="translate(583.123938 103.878187)scale(0.088 -0.088)">
     <use xlink:href="#DejaVuSans-110"/>
     <use x="63.378906" xlink:href="#DejaVuSans-111"/>
    </g>
   </g>
   <g id="patch_10">
    <path clip-path="url(#p97d55e4fec)" d="M 564.283937 127.209937 
L 580.123938 127.209937 
L 580.123938 111.369937 
L 564.283937 111.369937 
z
" style="fill:none;"/>
   </g>
   <g id="line2d_14">
    <path clip-path="url(#p97d55e4fec)" d="M 572.203937 119.289937 
" style="fill:none;stroke:#1f77b4;stroke-linecap:square;stroke-opacity:0.6;stroke-width:1.5;"/>
    <defs>
     <path d="M 0 -2.658681 
L -2.658681 2.658681 
L 2.658681 2.658681 
z
" id="maef6ffb0c5" style="stroke:#000000;stroke-linejoin:miter;stroke-opacity:0.6;stroke-width:0.886227;"/>
    </defs>
    <g clip-path="url(#p97d55e4fec)">
     <use style="fill-opacity:0.6;stroke:#000000;stroke-linejoin:miter;stroke-opacity:0.6;stroke-width:0.886227;" x="572.203937" xlink:href="#maef6ffb0c5" y="119.289937"/>
    </g>
   </g>
   <g id="text_18">
    <!-- yes -->
    <g transform="translate(583.123938 121.718187)scale(0.088 -0.088)">
     <use xlink:href="#DejaVuSans-121"/>
     <use x="59.179688" xlink:href="#DejaVuSans-101"/>
     <use x="120.703125" xlink:href="#DejaVuSans-115"/>
    </g>
   </g>
  </g>
  <g id="axes_2">
   <g id="patch_11">
    <path d="M 169.493938 126.836 
L 291.263937 126.836 
L 291.263937 21.5 
L 169.493938 21.5 
z
" style="fill:#ffffff;"/>
   </g>
   <g id="matplotlib.axis_3">
    <g id="xtick_6">
     <g id="line2d_15">
      <path d="M 183.544322 126.836 
" style="fill:none;stroke:#333333;stroke-linecap:square;stroke-width:1.5;"/>
      <g>
       <use style="fill:#333333;stroke:#000000;" x="183.544322" xlink:href="#m2adc3fc263" y="126.836"/>
      </g>
     </g>
     <g id="text_19">
      <!-- WT -->
      <g style="fill:#4d4d4d;" transform="translate(185.972572 145.861875)rotate(-90)scale(0.088 -0.088)">
       <use xlink:href="#DejaVuSans-87"/>
       <use x="98.876953" xlink:href="#DejaVuSans-84"/>
      </g>
     </g>
    </g>
    <g id="xtick_7">
     <g id="line2d_16">
      <path d="M 206.96163 126.836 
" style="fill:none;stroke:#333333;stroke-linecap:square;stroke-width:1.5;"/>
      <g>
       <use style="fill:#333333;stroke:#000000;" x="206.96163" xlink:href="#m2adc3fc263" y="126.836"/>
      </g>
     </g>
     <g id="text_20">
      <!-- E406W -->
      <g style="fill:#4d4d4d;" transform="translate(209.38988 162.8445)rotate(-90)scale(0.088 -0.088)">
       <use xlink:href="#DejaVuSans-69"/>
       <use x="63.183594" xlink:href="#DejaVuSans-52"/>
       <use x="126.806641" xlink:href="#DejaVuSans-48"/>
       <use x="190.429688" xlink:href="#DejaVuSans-54"/>
       <use x="254.052734" xlink:href="#DejaVuSans-87"/>
      </g>
     </g>
    </g>
    <g id="xtick_8">
     <g id="line2d_17">
      <path d="M 230.378938 126.836 
" style="fill:none;stroke:#333333;stroke-linecap:square;stroke-width:1.5;"/>
      <g>
       <use style="fill:#333333;stroke:#000000;" x="230.378938" xlink:href="#m2adc3fc263" y="126.836"/>
      </g>
     </g>
     <g id="text_21">
      <!-- N439K -->
      <g style="fill:#4d4d4d;" transform="translate(232.807187 160.937375)rotate(-90)scale(0.088 -0.088)">
       <use xlink:href="#DejaVuSans-78"/>
       <use x="74.804688" xlink:href="#DejaVuSans-52"/>
       <use x="138.427734" xlink:href="#DejaVuSans-51"/>
       <use x="202.050781" xlink:href="#DejaVuSans-57"/>
       <use x="265.673828" xlink:href="#DejaVuSans-75"/>
      </g>
     </g>
    </g>
    <g id="xtick_9">
     <g id="line2d_18">
      <path d="M 253.796245 126.836 
" style="fill:none;stroke:#333333;stroke-linecap:square;stroke-width:1.5;"/>
      <g>
       <use style="fill:#333333;stroke:#000000;" x="253.796245" xlink:href="#m2adc3fc263" y="126.836"/>
      </g>
     </g>
     <g id="text_22">
      <!-- K444Q -->
      <g style="fill:#4d4d4d;" transform="translate(256.224495 161.281125)rotate(-90)scale(0.088 -0.088)">
       <use xlink:href="#DejaVuSans-75"/>
       <use x="65.576172" xlink:href="#DejaVuSans-52"/>
       <use x="129.199219" xlink:href="#DejaVuSans-52"/>
       <use x="192.822266" xlink:href="#DejaVuSans-52"/>
       <use x="256.445312" xlink:href="#DejaVuSans-81"/>
      </g>
     </g>
    </g>
    <g id="xtick_10">
     <g id="line2d_19">
      <path d="M 277.213553 126.836 
" style="fill:none;stroke:#333333;stroke-linecap:square;stroke-width:1.5;"/>
      <g>
       <use style="fill:#333333;stroke:#000000;" x="277.213553" xlink:href="#m2adc3fc263" y="126.836"/>
      </g>
     </g>
     <g id="text_23">
      <!-- F486K -->
      <g style="fill:#4d4d4d;" transform="translate(279.641803 159.41525)rotate(-90)scale(0.088 -0.088)">
       <use xlink:href="#DejaVuSans-70"/>
       <use x="57.519531" xlink:href="#DejaVuSans-52"/>
       <use x="121.142578" xlink:href="#DejaVuSans-56"/>
       <use x="184.765625" xlink:href="#DejaVuSans-54"/>
       <use x="248.388672" xlink:href="#DejaVuSans-75"/>
      </g>
     </g>
    </g>
   </g>
   <g id="matplotlib.axis_4">
    <g id="ytick_46"/>
    <g id="ytick_47"/>
    <g id="ytick_48"/>
    <g id="ytick_49"/>
    <g id="ytick_50"/>
    <g id="ytick_51"/>
    <g id="ytick_52"/>
    <g id="ytick_53"/>
    <g id="ytick_54"/>
    <g id="ytick_55"/>
    <g id="ytick_56"/>
    <g id="ytick_57"/>
    <g id="ytick_58"/>
    <g id="ytick_59"/>
    <g id="ytick_60"/>
    <g id="ytick_61"/>
    <g id="ytick_62"/>
    <g id="ytick_63"/>
    <g id="ytick_64"/>
    <g id="ytick_65"/>
    <g id="ytick_66"/>
    <g id="ytick_67"/>
    <g id="ytick_68"/>
    <g id="ytick_69"/>
    <g id="ytick_70"/>
    <g id="ytick_71"/>
    <g id="ytick_72"/>
    <g id="ytick_73"/>
    <g id="ytick_74"/>
    <g id="ytick_75"/>
    <g id="ytick_76"/>
    <g id="ytick_77"/>
    <g id="ytick_78"/>
    <g id="ytick_79"/>
    <g id="ytick_80"/>
    <g id="ytick_81"/>
    <g id="ytick_82"/>
    <g id="ytick_83"/>
    <g id="ytick_84"/>
    <g id="ytick_85"/>
    <g id="ytick_86"/>
    <g id="ytick_87"/>
    <g id="ytick_88"/>
    <g id="ytick_89"/>
    <g id="ytick_90"/>
   </g>
   <g id="PathCollection_3">
    <path clip-path="url(#p7a56e1f3d3)" d="M 257.111905 44.89858 
L 254.453224 50.215942 
L 259.770585 50.215942 
z
" style="fill:#009e73;fill-opacity:0.6;stroke:#009e73;stroke-opacity:0.6;stroke-width:0.886227;"/>
    <path clip-path="url(#p7a56e1f3d3)" d="M 253.742262 40.107598 
L 251.083581 45.42496 
L 256.400943 45.42496 
z
" style="fill:#009e73;fill-opacity:0.6;stroke:#009e73;stroke-opacity:0.6;stroke-width:0.886227;"/>
   </g>
   <g id="PathCollection_4">
    <path clip-path="url(#p7a56e1f3d3)" d="M 184.678973 111.565723 
C 185.384064 111.565723 186.06037 111.285587 186.558945 110.787013 
C 187.057519 110.288439 187.337654 109.612132 187.337654 108.907042 
C 187.337654 108.201952 187.057519 107.525645 186.558945 107.027071 
C 186.06037 106.528497 185.384064 106.248361 184.678973 106.248361 
C 183.973883 106.248361 183.297576 106.528497 182.799002 107.027071 
C 182.300428 107.525645 182.020293 108.201952 182.020293 108.907042 
C 182.020293 109.612132 182.300428 110.288439 182.799002 110.787013 
C 183.297576 111.285587 183.973883 111.565723 184.678973 111.565723 
z
" style="fill:#56b4e9;fill-opacity:0.6;stroke:#56b4e9;stroke-opacity:0.6;stroke-width:0.886227;"/>
    <path clip-path="url(#p7a56e1f3d3)" d="M 183.817294 111.565723 
C 184.522384 111.565723 185.198691 111.285587 185.697265 110.787013 
C 186.195839 110.288439 186.475975 109.612132 186.475975 108.907042 
C 186.475975 108.201952 186.195839 107.525645 185.697265 107.027071 
C 185.198691 106.528497 184.522384 106.248361 183.817294 106.248361 
C 183.112203 106.248361 182.435897 106.528497 181.937323 107.027071 
C 181.438748 107.525645 181.158613 108.201952 181.158613 108.907042 
C 181.158613 109.612132 181.438748 110.288439 181.937323 110.787013 
C 182.435897 111.285587 183.112203 111.565723 183.817294 111.565723 
z
" style="fill:#56b4e9;fill-opacity:0.6;stroke:#56b4e9;stroke-opacity:0.6;stroke-width:0.886227;"/>
    <path clip-path="url(#p7a56e1f3d3)" d="M 203.538768 69.008364 
C 204.243859 69.008364 204.920165 68.728229 205.418739 68.229655 
C 205.917314 67.73108 206.197449 67.054774 206.197449 66.349683 
C 206.197449 65.644593 205.917314 64.968286 205.418739 64.469712 
C 204.920165 63.971138 204.243859 63.691003 203.538768 63.691003 
C 202.833678 63.691003 202.157371 63.971138 201.658797 64.469712 
C 201.160223 64.968286 200.880087 65.644593 200.880087 66.349683 
C 200.880087 67.054774 201.160223 67.73108 201.658797 68.229655 
C 202.157371 68.728229 202.833678 69.008364 203.538768 69.008364 
z
" style="fill:#009e73;fill-opacity:0.6;stroke:#009e73;stroke-opacity:0.6;stroke-width:0.886227;"/>
    <path clip-path="url(#p7a56e1f3d3)" d="M 207.088815 72.021641 
C 207.793905 72.021641 208.470212 71.741505 208.968786 71.242931 
C 209.46736 70.744357 209.747496 70.06805 209.747496 69.36296 
C 209.747496 68.65787 209.46736 67.981563 208.968786 67.482989 
C 208.470212 66.984415 207.793905 66.704279 207.088815 66.704279 
C 206.383725 66.704279 205.707418 66.984415 205.208844 67.482989 
C 204.71027 67.981563 204.430134 68.65787 204.430134 69.36296 
C 204.430134 70.06805 204.71027 70.744357 205.208844 71.242931 
C 205.707418 71.741505 206.383725 72.021641 207.088815 72.021641 
z
" style="fill:#009e73;fill-opacity:0.6;stroke:#009e73;stroke-opacity:0.6;stroke-width:0.886227;"/>
    <path clip-path="url(#p7a56e1f3d3)" d="M 227.42311 79.059458 
C 228.1282 79.059458 228.804507 78.779323 229.303081 78.280749 
C 229.801655 77.782175 230.081791 77.105868 230.081791 76.400778 
C 230.081791 75.695687 229.801655 75.019381 229.303081 74.520807 
C 228.804507 74.022232 228.1282 73.742097 227.42311 73.742097 
C 226.71802 73.742097 226.041713 74.022232 225.543139 74.520807 
C 225.044565 75.019381 224.764429 75.695687 224.764429 76.400778 
C 224.764429 77.105868 225.044565 77.782175 225.543139 78.280749 
C 226.041713 78.779323 226.71802 79.059458 227.42311 79.059458 
z
" style="fill:#009e73;fill-opacity:0.6;stroke:#009e73;stroke-opacity:0.6;stroke-width:0.886227;"/>
    <path clip-path="url(#p7a56e1f3d3)" d="M 233.05165 80.16641 
C 233.75674 80.16641 234.433047 79.886275 234.931621 79.3877 
C 235.430195 78.889126 235.710331 78.21282 235.710331 77.507729 
C 235.710331 76.802639 235.430195 76.126332 234.931621 75.627758 
C 234.433047 75.129184 233.75674 74.849048 233.05165 74.849048 
C 232.346559 74.849048 231.670253 75.129184 231.171679 75.627758 
C 230.673104 76.126332 230.392969 76.802639 230.392969 77.507729 
C 230.392969 78.21282 230.673104 78.889126 231.171679 79.3877 
C 231.670253 79.886275 232.346559 80.16641 233.05165 80.16641 
z
" style="fill:#009e73;fill-opacity:0.6;stroke:#009e73;stroke-opacity:0.6;stroke-width:0.886227;"/>
    <path clip-path="url(#p7a56e1f3d3)" d="M 280.459768 119.042511 
C 281.164858 119.042511 281.841165 118.762376 282.339739 118.263802 
C 282.838313 117.765228 283.118448 117.088921 283.118448 116.383831 
C 283.118448 115.67874 282.838313 115.002434 282.339739 114.503859 
C 281.841165 114.005285 281.164858 113.72515 280.459768 113.72515 
C 279.754677 113.72515 279.078371 114.005285 278.579796 114.503859 
C 278.081222 115.002434 277.801087 115.67874 277.801087 116.383831 
C 277.801087 117.088921 278.081222 117.765228 278.579796 118.263802 
C 279.078371 118.762376 279.754677 119.042511 280.459768 119.042511 
z
" style="fill:#56b4e9;fill-opacity:0.6;stroke:#56b4e9;stroke-opacity:0.6;stroke-width:0.886227;"/>
    <path clip-path="url(#p7a56e1f3d3)" d="M 273.276124 115.457038 
C 273.981215 115.457038 274.657521 115.176902 275.156096 114.678328 
C 275.65467 114.179754 275.934805 113.503447 275.934805 112.798357 
C 275.934805 112.093266 275.65467 111.41696 275.156096 110.918386 
C 274.657521 110.419811 273.981215 110.139676 273.276124 110.139676 
C 272.571034 110.139676 271.894727 110.419811 271.396153 110.918386 
C 270.897579 111.41696 270.617444 112.093266 270.617444 112.798357 
C 270.617444 113.503447 270.897579 114.179754 271.396153 114.678328 
C 271.894727 115.176902 272.571034 115.457038 273.276124 115.457038 
z
" style="fill:#56b4e9;fill-opacity:0.6;stroke:#56b4e9;stroke-opacity:0.6;stroke-width:0.886227;"/>
   </g>
   <g id="LineCollection_2">
    <path clip-path="url(#p7a56e1f3d3)" d="M 169.493938 108.907042 
L 291.263937 108.907042 
" style="fill:none;stroke:#56b4e9;stroke-dasharray:1.32934,2.193412;stroke-dashoffset:0;stroke-width:1.32934;"/>
   </g>
   <g id="patch_12">
    <path d="M 169.493938 21.5 
L 291.263937 21.5 
L 291.263937 7.2 
L 169.493938 7.2 
z
" style="fill:none;stroke:#000000;stroke-linejoin:miter;"/>
   </g>
   <g id="patch_13">
    <path d="M 169.493938 126.836 
L 169.493938 21.5 
" style="fill:none;stroke:#000000;stroke-linecap:square;stroke-linejoin:miter;"/>
   </g>
   <g id="patch_14">
    <path d="M 169.493938 126.836 
L 291.263937 126.836 
" style="fill:none;stroke:#000000;stroke-linecap:square;stroke-linejoin:miter;"/>
   </g>
   <g id="text_24">
    <!-- REGN10987 -->
    <g style="fill:#1a1a1a;" transform="translate(203.842813 16.77825)scale(0.088 -0.088)">
     <defs>
      <path d="M 8.203125 72.90625 
L 55.078125 72.90625 
L 55.078125 68.703125 
L 28.609375 0 
L 18.3125 0 
L 43.21875 64.59375 
L 8.203125 64.59375 
z
" id="DejaVuSans-55"/>
     </defs>
     <use xlink:href="#DejaVuSans-82"/>
     <use x="69.482422" xlink:href="#DejaVuSans-69"/>
     <use x="132.666016" xlink:href="#DejaVuSans-71"/>
     <use x="210.15625" xlink:href="#DejaVuSans-78"/>
     <use x="284.960938" xlink:href="#DejaVuSans-49"/>
     <use x="348.583984" xlink:href="#DejaVuSans-48"/>
     <use x="412.207031" xlink:href="#DejaVuSans-57"/>
     <use x="475.830078" xlink:href="#DejaVuSans-56"/>
     <use x="539.453125" xlink:href="#DejaVuSans-55"/>
    </g>
   </g>
  </g>
  <g id="axes_3">
   <g id="patch_15">
    <path d="M 296.303938 126.836 
L 418.073937 126.836 
L 418.073937 21.5 
L 296.303938 21.5 
z
" style="fill:#ffffff;"/>
   </g>
   <g id="matplotlib.axis_5">
    <g id="xtick_11">
     <g id="line2d_20">
      <path d="M 310.354322 126.836 
" style="fill:none;stroke:#333333;stroke-linecap:square;stroke-width:1.5;"/>
      <g>
       <use style="fill:#333333;stroke:#000000;" x="310.354322" xlink:href="#m2adc3fc263" y="126.836"/>
      </g>
     </g>
     <g id="text_25">
      <!-- WT -->
      <g style="fill:#4d4d4d;" transform="translate(312.782572 145.861875)rotate(-90)scale(0.088 -0.088)">
       <use xlink:href="#DejaVuSans-87"/>
       <use x="98.876953" xlink:href="#DejaVuSans-84"/>
      </g>
     </g>
    </g>
    <g id="xtick_12">
     <g id="line2d_21">
      <path d="M 333.77163 126.836 
" style="fill:none;stroke:#333333;stroke-linecap:square;stroke-width:1.5;"/>
      <g>
       <use style="fill:#333333;stroke:#000000;" x="333.77163" xlink:href="#m2adc3fc263" y="126.836"/>
      </g>
     </g>
     <g id="text_26">
      <!-- E406W -->
      <g style="fill:#4d4d4d;" transform="translate(336.19988 162.8445)rotate(-90)scale(0.088 -0.088)">
       <use xlink:href="#DejaVuSans-69"/>
       <use x="63.183594" xlink:href="#DejaVuSans-52"/>
       <use x="126.806641" xlink:href="#DejaVuSans-48"/>
       <use x="190.429688" xlink:href="#DejaVuSans-54"/>
       <use x="254.052734" xlink:href="#DejaVuSans-87"/>
      </g>
     </g>
    </g>
    <g id="xtick_13">
     <g id="line2d_22">
      <path d="M 357.188938 126.836 
" style="fill:none;stroke:#333333;stroke-linecap:square;stroke-width:1.5;"/>
      <g>
       <use style="fill:#333333;stroke:#000000;" x="357.188938" xlink:href="#m2adc3fc263" y="126.836"/>
      </g>
     </g>
     <g id="text_27">
      <!-- N439K -->
      <g style="fill:#4d4d4d;" transform="translate(359.617188 160.937375)rotate(-90)scale(0.088 -0.088)">
       <use xlink:href="#DejaVuSans-78"/>
       <use x="74.804688" xlink:href="#DejaVuSans-52"/>
       <use x="138.427734" xlink:href="#DejaVuSans-51"/>
       <use x="202.050781" xlink:href="#DejaVuSans-57"/>
       <use x="265.673828" xlink:href="#DejaVuSans-75"/>
      </g>
     </g>
    </g>
    <g id="xtick_14">
     <g id="line2d_23">
      <path d="M 380.606245 126.836 
" style="fill:none;stroke:#333333;stroke-linecap:square;stroke-width:1.5;"/>
      <g>
       <use style="fill:#333333;stroke:#000000;" x="380.606245" xlink:href="#m2adc3fc263" y="126.836"/>
      </g>
     </g>
     <g id="text_28">
      <!-- K444Q -->
      <g style="fill:#4d4d4d;" transform="translate(383.034495 161.281125)rotate(-90)scale(0.088 -0.088)">
       <use xlink:href="#DejaVuSans-75"/>
       <use x="65.576172" xlink:href="#DejaVuSans-52"/>
       <use x="129.199219" xlink:href="#DejaVuSans-52"/>
       <use x="192.822266" xlink:href="#DejaVuSans-52"/>
       <use x="256.445312" xlink:href="#DejaVuSans-81"/>
      </g>
     </g>
    </g>
    <g id="xtick_15">
     <g id="line2d_24">
      <path d="M 404.023553 126.836 
" style="fill:none;stroke:#333333;stroke-linecap:square;stroke-width:1.5;"/>
      <g>
       <use style="fill:#333333;stroke:#000000;" x="404.023553" xlink:href="#m2adc3fc263" y="126.836"/>
      </g>
     </g>
     <g id="text_29">
      <!-- F486K -->
      <g style="fill:#4d4d4d;" transform="translate(406.451803 159.41525)rotate(-90)scale(0.088 -0.088)">
       <use xlink:href="#DejaVuSans-70"/>
       <use x="57.519531" xlink:href="#DejaVuSans-52"/>
       <use x="121.142578" xlink:href="#DejaVuSans-56"/>
       <use x="184.765625" xlink:href="#DejaVuSans-54"/>
       <use x="248.388672" xlink:href="#DejaVuSans-75"/>
      </g>
     </g>
    </g>
   </g>
   <g id="matplotlib.axis_6">
    <g id="ytick_91"/>
    <g id="ytick_92"/>
    <g id="ytick_93"/>
    <g id="ytick_94"/>
    <g id="ytick_95"/>
    <g id="ytick_96"/>
    <g id="ytick_97"/>
    <g id="ytick_98"/>
    <g id="ytick_99"/>
    <g id="ytick_100"/>
    <g id="ytick_101"/>
    <g id="ytick_102"/>
    <g id="ytick_103"/>
    <g id="ytick_104"/>
    <g id="ytick_105"/>
    <g id="ytick_106"/>
    <g id="ytick_107"/>
    <g id="ytick_108"/>
    <g id="ytick_109"/>
    <g id="ytick_110"/>
    <g id="ytick_111"/>
    <g id="ytick_112"/>
    <g id="ytick_113"/>
    <g id="ytick_114"/>
    <g id="ytick_115"/>
    <g id="ytick_116"/>
    <g id="ytick_117"/>
    <g id="ytick_118"/>
    <g id="ytick_119"/>
    <g id="ytick_120"/>
    <g id="ytick_121"/>
    <g id="ytick_122"/>
    <g id="ytick_123"/>
    <g id="ytick_124"/>
    <g id="ytick_125"/>
    <g id="ytick_126"/>
    <g id="ytick_127"/>
    <g id="ytick_128"/>
    <g id="ytick_129"/>
    <g id="ytick_130"/>
    <g id="ytick_131"/>
    <g id="ytick_132"/>
    <g id="ytick_133"/>
    <g id="ytick_134"/>
    <g id="ytick_135"/>
   </g>
   <g id="PathCollection_5">
    <path clip-path="url(#p2f13921637)" d="M 310.403462 111.565723 
C 311.108552 111.565723 311.784859 111.285587 312.283433 110.787013 
C 312.782007 110.288439 313.062143 109.612132 313.062143 108.907042 
C 313.062143 108.201952 312.782007 107.525645 312.283433 107.027071 
C 311.784859 106.528497 311.108552 106.248361 310.403462 106.248361 
C 309.698371 106.248361 309.022065 106.528497 308.523491 107.027071 
C 308.024916 107.525645 307.744781 108.201952 307.744781 108.907042 
C 307.744781 109.612132 308.024916 110.288439 308.523491 110.787013 
C 309.022065 111.285587 309.698371 111.565723 310.403462 111.565723 
z
" style="fill:#56b4e9;fill-opacity:0.6;stroke:#56b4e9;stroke-opacity:0.6;stroke-width:0.886227;"/>
    <path clip-path="url(#p2f13921637)" d="M 306.282394 111.565723 
C 306.987485 111.565723 307.663791 111.285587 308.162365 110.787013 
C 308.66094 110.288439 308.941075 109.612132 308.941075 108.907042 
C 308.941075 108.201952 308.66094 107.525645 308.162365 107.027071 
C 307.663791 106.528497 306.987485 106.248361 306.282394 106.248361 
C 305.577304 106.248361 304.900997 106.528497 304.402423 107.027071 
C 303.903849 107.525645 303.623713 108.201952 303.623713 108.907042 
C 303.623713 109.612132 303.903849 110.288439 304.402423 110.787013 
C 304.900997 111.285587 305.577304 111.565723 306.282394 111.565723 
z
" style="fill:#56b4e9;fill-opacity:0.6;stroke:#56b4e9;stroke-opacity:0.6;stroke-width:0.886227;"/>
    <path clip-path="url(#p2f13921637)" d="M 333.098357 70.518522 
C 333.803448 70.518522 334.479754 70.238387 334.978328 69.739813 
C 335.476903 69.241239 335.757038 68.564932 335.757038 67.859842 
C 335.757038 67.154751 335.476903 66.478445 334.978328 65.97987 
C 334.479754 65.481296 333.803448 65.201161 333.098357 65.201161 
C 332.393267 65.201161 331.71696 65.481296 331.218386 65.97987 
C 330.719812 66.478445 330.439676 67.154751 330.439676 67.859842 
C 330.439676 68.564932 330.719812 69.241239 331.218386 69.739813 
C 331.71696 70.238387 332.393267 70.518522 333.098357 70.518522 
z
" style="fill:#009e73;fill-opacity:0.6;stroke:#009e73;stroke-opacity:0.6;stroke-width:0.886227;"/>
    <path clip-path="url(#p2f13921637)" d="M 329.992366 68.040096 
C 330.697456 68.040096 331.373763 67.759961 331.872337 67.261387 
C 332.370911 66.762813 332.651047 66.086506 332.651047 65.381416 
C 332.651047 64.676325 332.370911 64.000019 331.872337 63.501444 
C 331.373763 63.00287 330.697456 62.722735 329.992366 62.722735 
C 329.287276 62.722735 328.610969 63.00287 328.112395 63.501444 
C 327.613821 64.000019 327.333685 64.676325 327.333685 65.381416 
C 327.333685 66.086506 327.613821 66.762813 328.112395 67.261387 
C 328.610969 67.759961 329.287276 68.040096 329.992366 68.040096 
z
" style="fill:#009e73;fill-opacity:0.6;stroke:#009e73;stroke-opacity:0.6;stroke-width:0.886227;"/>
    <path clip-path="url(#p2f13921637)" d="M 353.696574 106.634426 
C 354.401664 106.634426 355.077971 106.354291 355.576545 105.855716 
C 356.075119 105.357142 356.355254 104.680836 356.355254 103.975745 
C 356.355254 103.270655 356.075119 102.594348 355.576545 102.095774 
C 355.077971 101.5972 354.401664 101.317064 353.696574 101.317064 
C 352.991483 101.317064 352.315177 101.5972 351.816602 102.095774 
C 351.318028 102.594348 351.037893 103.270655 351.037893 103.975745 
C 351.037893 104.680836 351.318028 105.357142 351.816602 105.855716 
C 352.315177 106.354291 352.991483 106.634426 353.696574 106.634426 
z
" style="fill:#56b4e9;fill-opacity:0.6;stroke:#56b4e9;stroke-opacity:0.6;stroke-width:0.886227;"/>
    <path clip-path="url(#p2f13921637)" d="M 358.095143 107.582824 
C 358.800234 107.582824 359.47654 107.302688 359.975115 106.804114 
C 360.473689 106.30554 360.753824 105.629233 360.753824 104.924143 
C 360.753824 104.219052 360.473689 103.542746 359.975115 103.044172 
C 359.47654 102.545597 358.800234 102.265462 358.095143 102.265462 
C 357.390053 102.265462 356.713746 102.545597 356.215172 103.044172 
C 355.716598 103.542746 355.436463 104.219052 355.436463 104.924143 
C 355.436463 105.629233 355.716598 106.30554 356.215172 106.804114 
C 356.713746 107.302688 357.390053 107.582824 358.095143 107.582824 
z
" style="fill:#56b4e9;fill-opacity:0.6;stroke:#56b4e9;stroke-opacity:0.6;stroke-width:0.886227;"/>
    <path clip-path="url(#p2f13921637)" d="M 378.039821 105.74073 
C 378.744911 105.74073 379.421218 105.460595 379.919792 104.962021 
C 380.418366 104.463446 380.698501 103.78714 380.698501 103.082049 
C 380.698501 102.376959 380.418366 101.700652 379.919792 101.202078 
C 379.421218 100.703504 378.744911 100.423369 378.039821 100.423369 
C 377.33473 100.423369 376.658424 100.703504 376.159849 101.202078 
C 375.661275 101.700652 375.38114 102.376959 375.38114 103.082049 
C 375.38114 103.78714 375.661275 104.463446 376.159849 104.962021 
C 376.658424 105.460595 377.33473 105.74073 378.039821 105.74073 
z
" style="fill:#56b4e9;fill-opacity:0.6;stroke:#56b4e9;stroke-opacity:0.6;stroke-width:0.886227;"/>
    <path clip-path="url(#p2f13921637)" d="M 376.924536 103.380351 
C 377.629626 103.380351 378.305933 103.100215 378.804507 102.601641 
C 379.303081 102.103067 379.583216 101.42676 379.583216 100.72167 
C 379.583216 100.01658 379.303081 99.340273 378.804507 98.841699 
C 378.305933 98.343125 377.629626 98.062989 376.924536 98.062989 
C 376.219445 98.062989 375.543139 98.343125 375.044564 98.841699 
C 374.54599 99.340273 374.265855 100.01658 374.265855 100.72167 
C 374.265855 101.42676 374.54599 102.103067 375.044564 102.601641 
C 375.543139 103.100215 376.219445 103.380351 376.924536 103.380351 
z
" style="fill:#56b4e9;fill-opacity:0.6;stroke:#56b4e9;stroke-opacity:0.6;stroke-width:0.886227;"/>
    <path clip-path="url(#p2f13921637)" d="M 401.403683 107.715437 
C 402.108773 107.715437 402.78508 107.435302 403.283654 106.936728 
C 403.782228 106.438154 404.062363 105.761847 404.062363 105.056757 
C 404.062363 104.351666 403.782228 103.67536 403.283654 103.176785 
C 402.78508 102.678211 402.108773 102.398076 401.403683 102.398076 
C 400.698592 102.398076 400.022286 102.678211 399.523711 103.176785 
C 399.025137 103.67536 398.745002 104.351666 398.745002 105.056757 
C 398.745002 105.761847 399.025137 106.438154 399.523711 106.936728 
C 400.022286 107.435302 400.698592 107.715437 401.403683 107.715437 
z
" style="fill:#56b4e9;fill-opacity:0.6;stroke:#56b4e9;stroke-opacity:0.6;stroke-width:0.886227;"/>
    <path clip-path="url(#p2f13921637)" d="M 402.616887 103.871519 
C 403.321978 103.871519 403.998284 103.591383 404.496858 103.092809 
C 404.995433 102.594235 405.275568 101.917928 405.275568 101.212838 
C 405.275568 100.507748 404.995433 99.831441 404.496858 99.332867 
C 403.998284 98.834293 403.321978 98.554157 402.616887 98.554157 
C 401.911797 98.554157 401.23549 98.834293 400.736916 99.332867 
C 400.238342 99.831441 399.958206 100.507748 399.958206 101.212838 
C 399.958206 101.917928 400.238342 102.594235 400.736916 103.092809 
C 401.23549 103.591383 401.911797 103.871519 402.616887 103.871519 
z
" style="fill:#56b4e9;fill-opacity:0.6;stroke:#56b4e9;stroke-opacity:0.6;stroke-width:0.886227;"/>
   </g>
   <g id="LineCollection_3">
    <path clip-path="url(#p2f13921637)" d="M 296.303938 108.907042 
L 418.073938 108.907042 
" style="fill:none;stroke:#56b4e9;stroke-dasharray:1.32934,2.193412;stroke-dashoffset:0;stroke-width:1.32934;"/>
   </g>
   <g id="patch_16">
    <path d="M 296.303938 21.5 
L 418.073937 21.5 
L 418.073937 7.2 
L 296.303938 7.2 
z
" style="fill:none;stroke:#000000;stroke-linejoin:miter;"/>
   </g>
   <g id="patch_17">
    <path d="M 296.303938 126.836 
L 296.303938 21.5 
" style="fill:none;stroke:#000000;stroke-linecap:square;stroke-linejoin:miter;"/>
   </g>
   <g id="patch_18">
    <path d="M 296.303938 126.836 
L 418.073938 126.836 
" style="fill:none;stroke:#000000;stroke-linecap:square;stroke-linejoin:miter;"/>
   </g>
   <g id="text_30">
    <!-- REGN10933 + REGN10987 -->
    <g style="fill:#1a1a1a;" transform="translate(297.632875 16.77825)scale(0.088 -0.088)">
     <defs>
      <path d="M 46 62.703125 
L 46 35.5 
L 73.1875 35.5 
L 73.1875 27.203125 
L 46 27.203125 
L 46 0 
L 37.796875 0 
L 37.796875 27.203125 
L 10.59375 27.203125 
L 10.59375 35.5 
L 37.796875 35.5 
L 37.796875 62.703125 
z
" id="DejaVuSans-43"/>
     </defs>
     <use xlink:href="#DejaVuSans-82"/>
     <use x="69.482422" xlink:href="#DejaVuSans-69"/>
     <use x="132.666016" xlink:href="#DejaVuSans-71"/>
     <use x="210.15625" xlink:href="#DejaVuSans-78"/>
     <use x="284.960938" xlink:href="#DejaVuSans-49"/>
     <use x="348.583984" xlink:href="#DejaVuSans-48"/>
     <use x="412.207031" xlink:href="#DejaVuSans-57"/>
     <use x="475.830078" xlink:href="#DejaVuSans-51"/>
     <use x="539.453125" xlink:href="#DejaVuSans-51"/>
     <use x="603.076172" xlink:href="#DejaVuSans-32"/>
     <use x="634.863281" xlink:href="#DejaVuSans-43"/>
     <use x="718.652344" xlink:href="#DejaVuSans-32"/>
     <use x="750.439453" xlink:href="#DejaVuSans-82"/>
     <use x="819.921875" xlink:href="#DejaVuSans-69"/>
     <use x="883.105469" xlink:href="#DejaVuSans-71"/>
     <use x="960.595703" xlink:href="#DejaVuSans-78"/>
     <use x="1035.400391" xlink:href="#DejaVuSans-49"/>
     <use x="1099.023438" xlink:href="#DejaVuSans-48"/>
     <use x="1162.646484" xlink:href="#DejaVuSans-57"/>
     <use x="1226.269531" xlink:href="#DejaVuSans-56"/>
     <use x="1289.892578" xlink:href="#DejaVuSans-55"/>
    </g>
   </g>
  </g>
  <g id="axes_4">
   <g id="patch_19">
    <path d="M 423.113937 126.836 
L 544.883937 126.836 
L 544.883937 21.5 
L 423.113937 21.5 
z
" style="fill:#ffffff;"/>
   </g>
   <g id="matplotlib.axis_7">
    <g id="xtick_16">
     <g id="line2d_25">
      <path d="M 437.164322 126.836 
" style="fill:none;stroke:#333333;stroke-linecap:square;stroke-width:1.5;"/>
      <g>
       <use style="fill:#333333;stroke:#000000;" x="437.164322" xlink:href="#m2adc3fc263" y="126.836"/>
      </g>
     </g>
     <g id="text_31">
      <!-- WT -->
      <g style="fill:#4d4d4d;" transform="translate(439.592572 145.861875)rotate(-90)scale(0.088 -0.088)">
       <use xlink:href="#DejaVuSans-87"/>
       <use x="98.876953" xlink:href="#DejaVuSans-84"/>
      </g>
     </g>
    </g>
    <g id="xtick_17">
     <g id="line2d_26">
      <path d="M 460.58163 126.836 
" style="fill:none;stroke:#333333;stroke-linecap:square;stroke-width:1.5;"/>
      <g>
       <use style="fill:#333333;stroke:#000000;" x="460.58163" xlink:href="#m2adc3fc263" y="126.836"/>
      </g>
     </g>
     <g id="text_32">
      <!-- E406W -->
      <g style="fill:#4d4d4d;" transform="translate(463.00988 162.8445)rotate(-90)scale(0.088 -0.088)">
       <use xlink:href="#DejaVuSans-69"/>
       <use x="63.183594" xlink:href="#DejaVuSans-52"/>
       <use x="126.806641" xlink:href="#DejaVuSans-48"/>
       <use x="190.429688" xlink:href="#DejaVuSans-54"/>
       <use x="254.052734" xlink:href="#DejaVuSans-87"/>
      </g>
     </g>
    </g>
    <g id="xtick_18">
     <g id="line2d_27">
      <path d="M 483.998937 126.836 
" style="fill:none;stroke:#333333;stroke-linecap:square;stroke-width:1.5;"/>
      <g>
       <use style="fill:#333333;stroke:#000000;" x="483.998937" xlink:href="#m2adc3fc263" y="126.836"/>
      </g>
     </g>
     <g id="text_33">
      <!-- K417N -->
      <g style="fill:#4d4d4d;" transform="translate(486.427187 160.937375)rotate(-90)scale(0.088 -0.088)">
       <use xlink:href="#DejaVuSans-75"/>
       <use x="65.576172" xlink:href="#DejaVuSans-52"/>
       <use x="129.199219" xlink:href="#DejaVuSans-49"/>
       <use x="192.822266" xlink:href="#DejaVuSans-55"/>
       <use x="256.445312" xlink:href="#DejaVuSans-78"/>
      </g>
     </g>
    </g>
    <g id="xtick_19">
     <g id="line2d_28">
      <path d="M 507.416245 126.836 
" style="fill:none;stroke:#333333;stroke-linecap:square;stroke-width:1.5;"/>
      <g>
       <use style="fill:#333333;stroke:#000000;" x="507.416245" xlink:href="#m2adc3fc263" y="126.836"/>
      </g>
     </g>
     <g id="text_34">
      <!-- N460T -->
      <g style="fill:#4d4d4d;" transform="translate(509.844495 160.541375)rotate(-90)scale(0.088 -0.088)">
       <use xlink:href="#DejaVuSans-78"/>
       <use x="74.804688" xlink:href="#DejaVuSans-52"/>
       <use x="138.427734" xlink:href="#DejaVuSans-54"/>
       <use x="202.050781" xlink:href="#DejaVuSans-48"/>
       <use x="265.673828" xlink:href="#DejaVuSans-84"/>
      </g>
     </g>
    </g>
    <g id="xtick_20">
     <g id="line2d_29">
      <path d="M 530.833553 126.836 
" style="fill:none;stroke:#333333;stroke-linecap:square;stroke-width:1.5;"/>
      <g>
       <use style="fill:#333333;stroke:#000000;" x="530.833553" xlink:href="#m2adc3fc263" y="126.836"/>
      </g>
     </g>
     <g id="text_35">
      <!-- A475V -->
      <g style="fill:#4d4d4d;" transform="translate(533.261803 160.6225)rotate(-90)scale(0.088 -0.088)">
       <defs>
        <path d="M 34.1875 63.1875 
L 20.796875 26.90625 
L 47.609375 26.90625 
z
M 28.609375 72.90625 
L 39.796875 72.90625 
L 67.578125 0 
L 57.328125 0 
L 50.6875 18.703125 
L 17.828125 18.703125 
L 11.1875 0 
L 0.78125 0 
z
" id="DejaVuSans-65"/>
        <path d="M 28.609375 0 
L 0.78125 72.90625 
L 11.078125 72.90625 
L 34.1875 11.53125 
L 57.328125 72.90625 
L 67.578125 72.90625 
L 39.796875 0 
z
" id="DejaVuSans-86"/>
       </defs>
       <use xlink:href="#DejaVuSans-65"/>
       <use x="68.408203" xlink:href="#DejaVuSans-52"/>
       <use x="132.03125" xlink:href="#DejaVuSans-55"/>
       <use x="195.654297" xlink:href="#DejaVuSans-53"/>
       <use x="259.277344" xlink:href="#DejaVuSans-86"/>
      </g>
     </g>
    </g>
    <g id="text_36">
     <!-- virus -->
     <g transform="translate(272.288859 175.602781)scale(0.11 -0.11)">
      <defs>
       <path d="M 2.984375 54.6875 
L 12.5 54.6875 
L 29.59375 8.796875 
L 46.6875 54.6875 
L 56.203125 54.6875 
L 35.6875 0 
L 23.484375 0 
z
" id="DejaVuSans-118"/>
       <path d="M 8.5 21.578125 
L 8.5 54.6875 
L 17.484375 54.6875 
L 17.484375 21.921875 
Q 17.484375 14.15625 20.5 10.265625 
Q 23.53125 6.390625 29.59375 6.390625 
Q 36.859375 6.390625 41.078125 11.03125 
Q 45.3125 15.671875 45.3125 23.6875 
L 45.3125 54.6875 
L 54.296875 54.6875 
L 54.296875 0 
L 45.3125 0 
L 45.3125 8.40625 
Q 42.046875 3.421875 37.71875 1 
Q 33.40625 -1.421875 27.6875 -1.421875 
Q 18.265625 -1.421875 13.375 4.4375 
Q 8.5 10.296875 8.5 21.578125 
z
M 31.109375 56 
z
" id="DejaVuSans-117"/>
      </defs>
      <use xlink:href="#DejaVuSans-118"/>
      <use x="59.179688" xlink:href="#DejaVuSans-105"/>
      <use x="86.962891" xlink:href="#DejaVuSans-114"/>
      <use x="128.076172" xlink:href="#DejaVuSans-117"/>
      <use x="191.455078" xlink:href="#DejaVuSans-115"/>
     </g>
    </g>
   </g>
   <g id="matplotlib.axis_8">
    <g id="ytick_136"/>
    <g id="ytick_137"/>
    <g id="ytick_138"/>
    <g id="ytick_139"/>
    <g id="ytick_140"/>
    <g id="ytick_141"/>
    <g id="ytick_142"/>
    <g id="ytick_143"/>
    <g id="ytick_144"/>
    <g id="ytick_145"/>
    <g id="ytick_146"/>
    <g id="ytick_147"/>
    <g id="ytick_148"/>
    <g id="ytick_149"/>
    <g id="ytick_150"/>
    <g id="ytick_151"/>
    <g id="ytick_152"/>
    <g id="ytick_153"/>
    <g id="ytick_154"/>
    <g id="ytick_155"/>
    <g id="ytick_156"/>
    <g id="ytick_157"/>
    <g id="ytick_158"/>
    <g id="ytick_159"/>
    <g id="ytick_160"/>
    <g id="ytick_161"/>
    <g id="ytick_162"/>
    <g id="ytick_163"/>
    <g id="ytick_164"/>
    <g id="ytick_165"/>
    <g id="ytick_166"/>
    <g id="ytick_167"/>
    <g id="ytick_168"/>
    <g id="ytick_169"/>
    <g id="ytick_170"/>
    <g id="ytick_171"/>
    <g id="ytick_172"/>
    <g id="ytick_173"/>
    <g id="ytick_174"/>
    <g id="ytick_175"/>
    <g id="ytick_176"/>
    <g id="ytick_177"/>
    <g id="ytick_178"/>
    <g id="ytick_179"/>
    <g id="ytick_180"/>
   </g>
   <g id="PathCollection_6">
    <defs>
     <path d="M 0 -2.658681 
L -2.658681 2.658681 
L 2.658681 2.658681 
z
" id="ma0f7f74ee8" style="stroke:#009e73;stroke-opacity:0.6;stroke-width:0.886227;"/>
    </defs>
    <g clip-path="url(#p6a04f99b1a)">
     <use style="fill:#009e73;fill-opacity:0.6;stroke:#009e73;stroke-opacity:0.6;stroke-width:0.886227;" x="483.840354" xlink:href="#ma0f7f74ee8" y="31.952169"/>
    </g>
   </g>
   <g id="PathCollection_7">
    <path clip-path="url(#p6a04f99b1a)" d="M 436.86259 111.565723 
C 437.56768 111.565723 438.243987 111.285587 438.742561 110.787013 
C 439.241135 110.288439 439.521271 109.612132 439.521271 108.907042 
C 439.521271 108.201952 439.241135 107.525645 438.742561 107.027071 
C 438.243987 106.528497 437.56768 106.248361 436.86259 106.248361 
C 436.1575 106.248361 435.481193 106.528497 434.982619 107.027071 
C 434.484045 107.525645 434.203909 108.201952 434.203909 108.907042 
C 434.203909 109.612132 434.484045 110.288439 434.982619 110.787013 
C 435.481193 111.285587 436.1575 111.565723 436.86259 111.565723 
z
" style="fill:#56b4e9;fill-opacity:0.6;stroke:#56b4e9;stroke-opacity:0.6;stroke-width:0.886227;"/>
    <path clip-path="url(#p6a04f99b1a)" d="M 434.370574 111.565723 
C 435.075664 111.565723 435.751971 111.285587 436.250545 110.787013 
C 436.749119 110.288439 437.029255 109.612132 437.029255 108.907042 
C 437.029255 108.201952 436.749119 107.525645 436.250545 107.027071 
C 435.751971 106.528497 435.075664 106.248361 434.370574 106.248361 
C 433.665483 106.248361 432.989177 106.528497 432.490603 107.027071 
C 431.992028 107.525645 431.711893 108.201952 431.711893 108.907042 
C 431.711893 109.612132 431.992028 110.288439 432.490603 110.787013 
C 432.989177 111.285587 433.665483 111.565723 434.370574 111.565723 
z
" style="fill:#56b4e9;fill-opacity:0.6;stroke:#56b4e9;stroke-opacity:0.6;stroke-width:0.886227;"/>
    <path clip-path="url(#p6a04f99b1a)" d="M 461.896809 95.686515 
C 462.601899 95.686515 463.278206 95.40638 463.77678 94.907806 
C 464.275354 94.409232 464.55549 93.732925 464.55549 93.027835 
C 464.55549 92.322744 464.275354 91.646438 463.77678 91.147863 
C 463.278206 90.649289 462.601899 90.369154 461.896809 90.369154 
C 461.191718 90.369154 460.515412 90.649289 460.016838 91.147863 
C 459.518263 91.646438 459.238128 92.322744 459.238128 93.027835 
C 459.238128 93.732925 459.518263 94.409232 460.016838 94.907806 
C 460.515412 95.40638 461.191718 95.686515 461.896809 95.686515 
z
" style="fill:#56b4e9;fill-opacity:0.6;stroke:#56b4e9;stroke-opacity:0.6;stroke-width:0.886227;"/>
    <path clip-path="url(#p6a04f99b1a)" d="M 507.465297 45.848993 
C 508.170388 45.848993 508.846694 45.568858 509.345268 45.070284 
C 509.843843 44.571709 510.123978 43.895403 510.123978 43.190312 
C 510.123978 42.485222 509.843843 41.808915 509.345268 41.310341 
C 508.846694 40.811767 508.170388 40.531632 507.465297 40.531632 
C 506.760207 40.531632 506.0839 40.811767 505.585326 41.310341 
C 505.086752 41.808915 504.806616 42.485222 504.806616 43.190312 
C 504.806616 43.895403 505.086752 44.571709 505.585326 45.070284 
C 506.0839 45.568858 506.760207 45.848993 507.465297 45.848993 
z
" style="fill:#009e73;fill-opacity:0.6;stroke:#009e73;stroke-opacity:0.6;stroke-width:0.886227;"/>
    <path clip-path="url(#p6a04f99b1a)" d="M 529.774085 86.388294 
C 530.479175 86.388294 531.155482 86.108159 531.654056 85.609585 
C 532.15263 85.11101 532.432766 84.434704 532.432766 83.729613 
C 532.432766 83.024523 532.15263 82.348216 531.654056 81.849642 
C 531.155482 81.351068 530.479175 81.070933 529.774085 81.070933 
C 529.068995 81.070933 528.392688 81.351068 527.894114 81.849642 
C 527.39554 82.348216 527.115404 83.024523 527.115404 83.729613 
C 527.115404 84.434704 527.39554 85.11101 527.894114 85.609585 
C 528.392688 86.108159 529.068995 86.388294 529.774085 86.388294 
z
" style="fill:#009e73;fill-opacity:0.6;stroke:#009e73;stroke-opacity:0.6;stroke-width:0.886227;"/>
   </g>
   <g id="LineCollection_4">
    <path clip-path="url(#p6a04f99b1a)" d="M 423.113937 108.907042 
L 544.883937 108.907042 
" style="fill:none;stroke:#56b4e9;stroke-dasharray:1.32934,2.193412;stroke-dashoffset:0;stroke-width:1.32934;"/>
   </g>
   <g id="patch_20">
    <path d="M 423.113937 21.5 
L 544.883937 21.5 
L 544.883937 7.2 
L 423.113937 7.2 
z
" style="fill:none;stroke:#000000;stroke-linejoin:miter;"/>
   </g>
   <g id="patch_21">
    <path d="M 423.113937 126.836 
L 423.113937 21.5 
" style="fill:none;stroke:#000000;stroke-linecap:square;stroke-linejoin:miter;"/>
   </g>
   <g id="patch_22">
    <path d="M 423.113937 126.836 
L 544.883937 126.836 
" style="fill:none;stroke:#000000;stroke-linecap:square;stroke-linejoin:miter;"/>
   </g>
   <g id="text_37">
    <!-- LY-CoV016 -->
    <g style="fill:#1a1a1a;" transform="translate(461.204875 16.77825)scale(0.088 -0.088)">
     <defs>
      <path d="M 9.8125 72.90625 
L 19.671875 72.90625 
L 19.671875 8.296875 
L 55.171875 8.296875 
L 55.171875 0 
L 9.8125 0 
z
" id="DejaVuSans-76"/>
      <path d="M -0.203125 72.90625 
L 10.40625 72.90625 
L 30.609375 42.921875 
L 50.6875 72.90625 
L 61.28125 72.90625 
L 35.5 34.71875 
L 35.5 0 
L 25.59375 0 
L 25.59375 34.71875 
z
" id="DejaVuSans-89"/>
      <path d="M 4.890625 31.390625 
L 31.203125 31.390625 
L 31.203125 23.390625 
L 4.890625 23.390625 
z
" id="DejaVuSans-45"/>
     </defs>
     <use xlink:href="#DejaVuSans-76"/>
     <use x="42.462891" xlink:href="#DejaVuSans-89"/>
     <use x="91.671875" xlink:href="#DejaVuSans-45"/>
     <use x="127.755859" xlink:href="#DejaVuSans-67"/>
     <use x="197.580078" xlink:href="#DejaVuSans-111"/>
     <use x="258.761719" xlink:href="#DejaVuSans-86"/>
     <use x="327.169922" xlink:href="#DejaVuSans-48"/>
     <use x="390.792969" xlink:href="#DejaVuSans-49"/>
     <use x="454.416016" xlink:href="#DejaVuSans-54"/>
    </g>
   </g>
  </g>
 </g>
 <defs>
  <clipPath id="pcda29c4e36">
   <rect height="105.336" width="121.77" x="42.683938" y="21.5"/>
  </clipPath>
  <clipPath id="pf8a2ac0110">
   <path d="M 564.283937 50.644 
L 564.283937 34.804 
L 580.123938 34.804 
L 580.123938 50.644 
"/>
  </clipPath>
  <clipPath id="p63ebb77273">
   <path d="M 564.283937 68.484 
L 564.283937 52.644 
L 580.123938 52.644 
L 580.123938 68.484 
"/>
  </clipPath>
  <clipPath id="pc0788677e0">
   <path d="M 564.283937 109.369937 
L 564.283937 93.529937 
L 580.123938 93.529937 
L 580.123938 109.369937 
"/>
  </clipPath>
  <clipPath id="p97d55e4fec">
   <path d="M 564.283937 127.209937 
L 564.283937 111.369937 
L 580.123938 111.369937 
L 580.123938 127.209937 
"/>
  </clipPath>
  <clipPath id="p7a56e1f3d3">
   <rect height="105.336" width="121.77" x="169.493938" y="21.5"/>
  </clipPath>
  <clipPath id="p2f13921637">
   <rect height="105.336" width="121.77" x="296.303938" y="21.5"/>
  </clipPath>
  <clipPath id="p6a04f99b1a">
   <rect height="105.336" width="121.77" x="423.113937" y="21.5"/>
  </clipPath>
 </defs>
</svg>
